<svg width="339" height="363" viewBox="0 0 339 363" fill="none" xmlns="http://www.w3.org/2000/svg">
<path fill-rule="evenodd" clip-rule="evenodd" d="M179.512 91.4501C190.848 90.6381 206.389 92.8861 209.668 105.816C210.685 110.522 212.688 112.587 216.054 115.664C237.419 143.02 162.876 147.619 159.044 120.943C150.971 123.884 142.183 124.507 134.105 127.48C129.724 129.099 125.751 131.653 121.945 134.325C106.421 145.355 91.117 156.7 75.6486 167.809C81.6344 170.566 93.015 181.094 88.3777 188.169C87.2974 189.547 85.6939 190.497 84.2754 191.505L83.5275 192.039C81.9183 193.192 79.2095 195.159 77.7116 196.227L77.4354 196.428C77.3271 196.507 77.2049 196.595 77.0945 196.674C87.8966 212.473 100.539 227.051 114.562 240.066C115.756 241.177 115.267 243.659 113.539 243.949L111.48 244.251C104.832 245.219 98.0577 246.091 91.3585 245.565C84.8339 244.855 80.9022 239.077 76.4419 234.892C67.5351 225.785 59.2439 216.07 51.6919 205.807L51.5346 205.59C49.1842 202.377 46.0645 199.093 45.8362 194.944C45.4198 193.697 46.5156 191.909 47.5686 191.059L47.928 190.54C53.5755 182.415 59.9671 174.579 67.9749 168.694C67.9451 167.817 68.3503 166.896 69.1527 166.315L102.619 142.086C111.254 136.142 119.28 129.155 128.64 124.355C138.21 119.745 149.011 119.564 158.818 115.717C159.026 112.944 164.853 112.236 164.669 112.664C170.818 108.952 173.983 104.534 174.959 100.474C175.936 96.4151 174.722 92.7121 179.512 91.4501ZM262.272 178.436C272.62 162.859 282.484 180.093 286.792 190.481C291.882 204.696 281.341 222.181 274.532 234.436C272.024 237.839 268.725 245.017 264.304 245.538C253.166 245.492 242.012 244.708 230.868 244.474C223.671 242.688 233.768 231.87 240.742 235.821C242.855 236.612 243.911 239.012 245.971 239.782C246.722 239.942 246.774 239.607 247.079 238.86L247.123 238.755C247.667 237.461 248.195 236.16 248.731 234.862C253.269 223.684 258.066 212.604 262.835 201.529C263.854 199.125 262.425 197.144 260.567 195.713C259.145 194.541 253.03 191.682 258.791 192.94C256.573 187.789 259.239 182.561 262.272 178.436ZM236.58 157.113C237.576 156.988 238.856 157.993 239.009 158.966C240.28 167.032 238.864 175.007 237.166 182.897L236.854 184.342C236.228 187.22 235.528 190.155 233.967 192.677C232.373 195.251 229.962 197.192 227.195 198.371C218.316 201.91 207.274 198.41 200.743 191.793C196.565 186.067 200.238 178.875 200.939 172.599C200.276 170.908 200.032 168.953 199.649 167.209L199.602 167.001L198.113 160.497C197.784 159.063 198.829 157.1 200.547 157.297C212.519 158.671 224.621 158.609 236.58 157.113Z" fill="white"/>
<path fill-rule="evenodd" clip-rule="evenodd" d="M278.394 176.398C278.358 176.237 278.55 176.115 278.675 176.235C280.781 178.266 282.269 180.862 283.902 183.267C285.457 185.558 287.149 187.76 288.309 190.288C289.386 192.638 290.081 195.022 290.288 197.605C290.495 200.169 290.227 202.739 289.775 205.264C288.885 210.239 286.984 214.95 284.897 219.526C282.867 223.974 280.574 228.296 278.153 232.539L277.285 234.054C276.226 235.899 275.156 237.739 274.01 239.526C272.584 241.75 271.283 244.045 269.402 245.901C268.067 247.221 265.551 245.901 266.159 244.013C266.423 243.191 266.631 242.417 267.04 241.654C267.351 241.073 267.702 240.509 268.031 239.936C268.69 238.791 269.343 237.641 270.002 236.495C271.386 234.088 272.844 231.725 274.215 229.31C276.594 225.121 278.84 220.853 280.826 216.462L281.059 215.943C282.887 211.876 284.618 207.664 285.421 203.265C286.266 198.63 285.509 194.261 283.864 189.905C283.012 187.652 282.055 185.45 281.06 183.256L280.869 182.837C279.908 180.743 278.889 178.661 278.394 176.398ZM176.109 96.2281C176.128 96.1461 176.267 96.1401 176.28 96.2281C176.872 100.164 175.555 104.327 173.411 107.601C172.241 109.389 170.798 111.004 169.097 112.302L168.964 112.402C167.227 113.701 164.88 114.956 162.723 114.113C162.655 114.087 162.592 114.058 162.533 114.024C162.776 114.4 163 114.796 163.228 115.191C163.906 116.368 164.514 117.588 165.176 118.775C166.359 120.899 167.768 122.799 169.549 124.463C176.671 131.113 186.671 132.693 196.062 132.617L196.725 132.611C200.85 132.582 206.245 132.793 209.43 129.806C211.141 128.202 212.083 125.921 212.935 123.78C213.772 121.681 214.344 119.515 215.039 117.38C213.588 116.385 212.257 115.17 211.211 113.749C210.121 112.27 209.297 110.605 208.822 108.827L208.751 108.562C208.384 107.144 208.014 105.269 208.606 103.93C208.674 103.776 208.927 103.786 208.999 103.93C209.318 104.571 209.379 105.293 209.576 105.978C209.804 106.775 210.062 107.567 210.402 108.322C211.059 109.785 211.927 111.175 212.969 112.393C213.829 113.401 214.76 114.326 215.825 115.104C216.453 114.02 217.908 113.874 219.127 114.231C220.761 114.709 222.373 115.322 223.948 115.97L224.263 116.1C225.82 116.746 227.58 117.34 229.038 118.222C229.923 118.644 230.772 119.069 231.571 119.445C235.55 121.315 239.47 123.3 243.373 125.322L244.209 125.756C245.844 126.608 247.464 127.468 248.886 128.656C250.334 129.865 251.457 131.518 252.514 133.067C254.929 136.609 257.204 140.253 259.591 143.814C264.412 151 269.233 158.186 274.082 165.355C275.255 167.09 276.577 168.783 277.629 170.592C278.637 172.321 278.61 174.096 278.413 176.026L278.376 176.38C278 179.92 277.352 183.319 275.367 186.355C272.242 191.127 267.319 194.098 262.112 196.144C262.748 196.618 263.345 197.129 264.104 197.455C265.27 197.954 266.514 198.212 267.776 198.315C269.122 198.423 270.638 198.087 271.729 199.002C272.166 199.367 272.179 200.247 271.729 200.612C270.681 201.468 269.326 201.223 268.049 201.079L267.972 201.071C266.787 200.94 265.619 200.72 264.505 200.285C264.231 200.177 263.958 200.056 263.694 199.923C263.703 199.947 263.707 199.974 263.703 200.004C263.512 201.46 263.1 202.837 262.665 204.228L262.388 205.11C261.826 206.911 261.26 208.707 260.677 210.503C259.568 213.923 258.359 217.311 257.146 220.694L256.099 223.614C255.024 226.609 253.935 229.6 252.731 232.545C251.988 234.363 251.24 236.18 250.494 237.996C249.765 239.769 249.159 241.684 248.255 243.373C247.511 244.763 245.483 243.768 245.808 242.339C246.235 240.465 247.04 238.605 247.655 236.781C248.28 234.929 248.893 233.076 249.529 231.228C250.634 228.019 251.859 224.853 253.091 221.69L254.311 218.554C255.508 215.482 256.719 212.412 258.013 209.379L258.155 209.047C259.499 205.875 260.888 202.308 263.331 199.85C263.362 199.816 263.407 199.799 263.451 199.794C262.851 199.469 262.289 199.074 261.795 198.607L261.771 198.582C261.575 198.375 260.768 197.355 260.508 196.745C260.17 196.865 259.832 196.981 259.494 197.095C258.905 197.294 258.417 197.15 258.072 196.835L257.416 197.242C256.715 197.67 255.961 198.076 255.186 198.097C254.21 198.123 253.443 197.584 252.922 196.789C252.453 196.079 252.174 195.312 251.58 194.675C250.996 194.05 250.321 193.522 249.63 193.019L248.816 192.426C247.324 191.336 245.877 190.235 244.676 188.796C244.072 188.069 243.262 187.206 242.895 186.333C242.823 186.165 242.779 186.006 242.77 185.852C242.69 186.397 242.607 186.944 242.525 187.49C241.372 195.164 240.44 202.891 240.142 210.651C239.996 214.479 239.931 218.311 240.102 222.14C240.186 224.053 240.326 225.964 240.518 227.87C240.613 228.825 240.712 229.779 240.829 230.73L240.855 230.95C240.889 231.241 240.911 231.523 240.886 231.791C241.815 232.249 242.35 233.408 242.722 234.312C243.005 235.001 242.785 235.671 242.329 236.155C242.874 236.652 243.36 237.235 243.767 237.903C243.85 238.038 243.672 238.144 243.567 238.059C242.897 237.527 242.176 237.089 241.424 236.753C241.029 236.903 240.598 236.943 240.201 236.834C239.77 236.715 239.398 236.428 239.13 236.062C236.994 235.711 234.774 236.14 232.851 237.478C232.452 237.757 232.091 238.072 231.746 238.414C231.687 238.474 231.626 238.55 231.564 238.624L231.984 238.785C232.158 238.851 232.3 238.902 232.355 238.913C232.721 238.988 233.093 239.028 233.464 239.06L234.022 239.106C236.162 239.283 238.295 239.342 240.286 240.238C240.704 240.426 240.558 241.071 240.163 241.179C238.71 241.573 237.268 241.543 235.788 241.437L235.471 241.413C234.095 241.308 232.619 241.314 231.277 240.934C231.598 241.813 231.161 242.961 229.819 243.14C225.791 243.677 221.736 243.424 217.703 243.068C213.63 242.709 209.559 242.369 205.475 242.156C192.265 241.46 179.035 241.594 165.814 241.783L158.342 241.891C152.383 241.975 146.424 242.04 140.465 241.995L137.676 241.969C136.497 241.957 135.318 241.943 134.141 241.908L133.435 241.885C132.032 241.834 130.175 242.045 128.956 241.215C127.95 240.53 127.726 239.275 128.332 238.262C128.508 237.971 128.749 237.711 129 237.457C129.516 233.051 129.805 228.623 130.101 224.197C131.128 208.709 130.528 193.302 128.159 177.97C121.804 179.913 115.547 182.35 109.449 184.964C106.151 186.378 102.87 187.845 99.6276 189.383C96.6677 190.789 93.6952 192.545 90.5325 193.458C90.245 193.713 89.843 193.835 89.4865 193.722L89.4402 193.705H89.4381C89.1128 193.781 88.7515 193.735 88.3966 193.522C88.3247 193.478 88.2529 193.434 88.1811 193.389L88.0733 193.321C86.96 192.619 85.8402 191.755 85.0522 190.698C84.0952 191.586 83.0663 192.399 82.0543 193.224C80.9557 194.12 79.8614 195.02 78.7755 195.929C78.3445 196.29 77.8691 196.635 77.4888 197.051L77.4336 197.112C77.4247 197.122 77.4163 197.132 77.4086 197.142C79.0543 198.207 80.4952 199.824 81.786 201.229C83.1721 202.738 84.5104 204.294 85.8376 205.857L87.1225 207.373C96.2083 218.106 105.387 229.228 117.15 237.117C119.009 238.364 117.237 241.401 115.39 240.126C111.896 237.719 108.589 235.045 105.414 232.232C99.8494 227.306 94.8424 221.779 90.1543 216.02C87.7818 213.105 85.479 210.119 83.2226 207.113L82.4568 206.094C81.4363 204.734 80.4212 203.37 79.4494 201.976L79.2461 201.683C78.3936 200.453 77.4871 199.07 76.9374 197.653C76.7262 197.867 76.4874 198.046 76.1388 198.182C75.5431 198.414 74.8121 197.926 74.6663 197.345C74.3114 195.935 75.5367 195.096 76.5339 194.348C77.7445 193.443 78.9783 192.57 80.2142 191.702L80.6557 191.39C82.2012 190.293 83.7548 189.168 85.4388 188.301C85.4895 188.234 85.5508 188.17 85.6205 188.115C85.7008 188.052 85.779 187.99 85.8593 187.929C83.848 184.666 81.6424 181.529 79.1811 178.566C77.3304 176.337 75.3656 174.208 73.2867 172.192L72.3528 171.287C70.9402 169.923 69.4714 168.538 67.9036 167.352L67.4128 167.909C66.7575 168.65 66.0956 169.386 65.3959 170.083C64.0184 171.452 62.66 172.85 61.3078 174.246C59.0624 176.571 56.893 178.966 54.7304 181.365L53.6494 182.565C51.3973 185.065 48.9846 187.519 46.9374 190.19L46.8352 190.326C45.9414 191.525 45.3052 192.852 45.7205 194.375C46.1212 195.844 47.074 197.146 47.8952 198.414L47.9768 198.541C51.3297 203.766 54.9212 208.857 58.7684 213.729C66.4733 223.487 75.2621 232.735 85.7494 239.52C87.2029 240.46 85.8445 242.798 84.3888 241.847C78.2642 237.842 72.6381 233.032 67.4621 227.866C62.7107 223.125 58.405 217.905 54.3698 212.547C52.4029 209.933 50.5184 207.264 48.712 204.535C46.9606 201.887 44.9346 199.163 43.6649 196.242C42.9994 194.705 42.7543 193.042 43.2994 191.423C43.7992 189.935 44.7878 188.699 45.8162 187.537L45.9128 187.428C48.2768 184.772 50.6832 182.147 53.1107 179.547C55.5466 176.939 58.0945 174.424 60.6952 171.983C62.7381 170.062 64.8677 168.369 67.1452 166.8C66.9402 166.655 66.7353 166.515 66.5262 166.38C65.8902 165.966 65.7297 165.08 66.2874 164.518C67.8107 162.979 69.5663 161.641 71.2184 160.24C72.7712 158.923 74.324 157.605 75.8769 156.286C79.0374 153.606 82.198 150.924 85.3586 148.242C91.0353 143.425 96.6804 138.575 102.338 133.737C104.697 131.72 107.078 129.729 109.453 127.731L113.673 124.179L115.737 122.445C116.794 121.559 117.874 120.683 119.077 120.008C121.906 118.418 125.308 117.73 128.425 116.887L128.632 116.831C132.129 115.874 135.644 114.973 139.179 114.17C142.718 113.367 146.272 112.636 149.84 111.974C153.047 111.378 156.33 110.867 159.6 110.791C160.412 110.482 161.43 110.374 162.229 110.704C162.558 110.841 162.903 111.042 163.209 111.296C164.808 110.733 166.386 110.465 167.88 109.514C169.372 108.565 170.692 107.318 171.803 105.944C174.1 103.1 175.302 99.7391 176.109 96.2281ZM212.872 192.56C211.604 192.471 210.463 192.995 209.331 193.553C209.969 193.83 210.607 194.105 211.245 194.377L215.491 196.191C216.894 196.789 218.379 197.309 219.712 198.046C219.808 198.099 219.884 198.163 219.941 198.237C221.327 197.349 222.793 196.557 224.198 195.713C224.519 195.521 224.842 195.329 225.165 195.136C223.492 195.696 221.777 195.977 219.96 195.451C217.536 194.752 215.432 192.74 212.872 192.56ZM216.345 188.308L216.117 188.153C214.888 187.309 213.42 186.224 211.927 186.982C211.224 187.34 210.647 187.917 209.954 188.301C209.257 188.69 208.49 188.988 207.712 189.168C206.422 189.466 204.943 189.51 203.555 189.222L203.576 191.099C204.626 191.533 205.669 191.977 206.713 192.425C207.391 192.193 208.043 191.915 208.729 191.609L209.191 191.402C210.512 190.808 211.845 190.411 213.305 190.599C216.053 190.952 218.13 192.995 220.758 193.676C223.98 194.513 226.887 192.108 229.931 191.514C230.433 191.415 230.951 191.357 231.465 191.348L231.636 191.347L231.712 191.302C232.367 190.918 233.348 190.55 233.804 189.903C234.3 189.202 234.343 188.026 234.505 187.202C234.522 187.12 234.539 187.035 234.554 186.953C234.267 186.953 233.975 186.967 233.679 187.023C232.75 187.194 231.875 187.523 231.009 187.891C229.372 188.587 227.77 189.379 226.046 189.842C224.358 190.296 222.594 190.512 220.855 190.26C219.159 190.015 217.75 189.25 216.345 188.308ZM216.609 181.709L216.355 181.545C215.683 181.116 214.913 180.672 214.09 180.83C213.355 180.972 212.724 181.557 212.083 181.918C210.678 182.711 209.102 183.144 207.495 183.254C206.157 183.345 204.769 183.182 203.483 182.785L203.527 186.94C203.998 187.09 204.486 187.198 205 187.236C206.559 187.352 208.08 186.978 209.388 186.118L210.049 185.679C211.181 184.934 212.244 184.344 213.742 184.615C215.225 184.886 216.469 185.837 217.682 186.665L217.881 186.799C219.273 187.719 220.685 188.312 222.393 188.327C224.238 188.341 226.061 187.828 227.778 187.196C229.483 186.57 231.104 185.82 232.927 185.59C233.485 185.52 234.165 185.499 234.805 185.609C234.89 185.137 234.97 184.668 235.046 184.197C235.211 183.184 235.352 182.174 235.475 181.162C232.24 180.291 229.253 183.108 226.249 183.977C224.506 184.48 222.609 184.474 220.866 183.988C219.253 183.537 217.985 182.603 216.609 181.709ZM216.617 174.711C215.926 174.578 215.244 174.897 214.657 175.225C213.159 176.056 211.866 177.212 210.169 177.649C207.987 178.211 205.6 177.727 203.432 176.808C203.441 178.091 203.451 179.374 203.462 180.657C203.869 180.811 204.288 180.936 204.715 181.035C206.231 181.381 207.839 181.335 209.333 180.897C210.856 180.451 212.024 179.247 213.552 178.871C215.114 178.485 216.586 179.236 217.845 180.089L218.224 180.348C219.662 181.324 221.058 182.173 222.858 182.339C224.762 182.514 226.416 181.918 228.117 181.128L228.513 180.945C230.666 179.955 233.461 178.829 235.61 179.955C235.779 178.357 235.902 176.759 235.984 175.159C235.688 175.049 235.382 174.969 235.029 174.967C234.186 174.963 233.301 175.229 232.515 175.506C230.798 176.113 229.198 177.017 227.498 177.666C225.886 178.283 224.1 178.604 222.381 178.328C220.788 178.072 219.592 177.239 218.491 176.098L218.331 175.929C217.849 175.415 217.332 174.85 216.617 174.711ZM217.879 168.779C217.082 168.358 216.113 167.967 215.191 168.09C214.313 168.206 213.727 168.802 213.186 169.44L212.893 169.789C211.924 170.935 210.971 171.898 209.479 172.37C207.932 172.856 206.293 172.665 204.854 171.953C204.343 171.7 203.867 171.385 203.39 171.074L203.415 174.445C204.37 174.92 205.342 175.35 206.409 175.61C208.378 176.089 210.051 175.734 211.735 174.648L211.912 174.533C213.18 173.7 214.48 172.708 216.047 172.615C217.576 172.523 218.723 173.371 219.73 174.409L219.848 174.532C221.117 175.871 222.4 176.525 224.289 176.37C226.12 176.221 227.833 175.412 229.511 174.715L229.663 174.652C231.197 174.022 232.965 173.373 234.649 173.614C235.053 173.671 235.575 173.796 236.039 174.014C236.107 172.437 236.139 170.858 236.145 169.278C235.188 168.447 233.698 168.31 232.501 168.65C230.625 169.182 229.089 170.556 227.297 171.302C225.708 171.964 224.052 172.112 222.432 171.486C220.758 170.839 219.446 169.607 217.879 168.779ZM236.039 162.138C233.236 162.235 230.493 164.059 227.817 164.755C224.826 165.531 222.386 164.473 219.722 163.298L219.378 163.147C218.012 162.546 216.543 162.007 215.028 162.252C213.552 162.493 212.246 163.311 210.976 164.051L210.733 164.191C208.42 165.508 206.065 166.41 203.364 166.185C203.379 167.033 203.373 167.878 203.375 168.707C203.819 168.961 204.245 169.248 204.651 169.51L204.797 169.602C206.084 170.408 207.411 170.937 208.946 170.44C210.429 169.958 211.126 168.667 212.145 167.604C213.081 166.627 214.302 166.034 215.671 166.09C217.143 166.149 218.536 166.798 219.752 167.591C220.969 168.384 222.146 169.408 223.57 169.806C226.764 170.693 229.5 167.314 232.521 166.788C233.789 166.566 235.188 166.847 236.145 167.612C236.134 165.79 236.094 163.964 236.039 162.138ZM211.908 161.373C211.513 161.388 211.118 161.405 210.723 161.422C209.261 161.485 207.799 161.557 206.337 161.639C205.325 161.694 204.081 162.005 203.088 161.696C203.063 161.798 203.029 161.895 202.984 161.99C203.134 162.738 203.227 163.512 203.284 164.294C204.201 164.393 205.133 164.359 206.037 164.171C208.207 163.721 209.969 162.352 211.908 161.373ZM235.997 160.745C230.658 161.113 225.279 160.987 219.931 161.102L219.29 161.117C219.264 161.117 219.239 161.12 219.214 161.12C219.827 161.357 220.435 161.629 221.042 161.907L221.647 162.185C223.08 162.844 224.538 163.383 226.141 163.267C227.859 163.142 229.477 162.44 231.083 161.874C232.614 161.333 234.378 160.969 236.012 161.206C236.007 161.052 236.003 160.9 235.997 160.745Z" fill="#221E1F"/>
<path fill-rule="evenodd" clip-rule="evenodd" d="M191.741 16.5401C203.737 16.5401 221.295 24.5537 222.616 32.2636C224.172 41.3496 227.628 75.5151 225.746 86.6951C223.865 97.8761 216.528 106.136 200.303 106.136C184.078 106.136 171.967 97.2851 169.187 94.2461C166.406 91.2061 163.037 81.7491 163.037 81.7491C163.037 81.7491 154.154 80.2421 154.112 73.1581C154.071 66.0741 158.575 63.8851 158.575 63.8851C158.575 63.8851 156.144 34.4966 161.253 27.2179C166.362 19.9392 179.745 16.5401 191.741 16.5401Z" fill="white"/>
<path fill-rule="evenodd" clip-rule="evenodd" d="M227.959 53.9654C228.616 61.1069 228.863 68.3101 228.99 75.4791C229.112 82.2711 228.515 89.3561 224.646 95.1641C221.264 100.245 216.113 103.933 210.377 105.924C207.113 107.059 203.498 107.479 200.051 107.583C198.27 107.636 196.484 107.559 194.714 107.376C194.491 107.352 194.267 107.332 194.043 107.312C192.544 107.179 191.057 107.046 189.964 105.913C189.62 105.556 189.624 104.822 190.134 104.59C191.103 104.148 191.76 104.102 192.823 104.248C193.704 104.368 194.587 104.463 195.474 104.524C197.376 104.658 199.29 104.662 201.191 104.516C204.686 104.248 208.26 103.26 211.433 101.764C216.409 99.4141 220.683 95.5631 222.99 90.5101C225.635 84.7241 225.502 78.0331 225.378 71.8031L225.373 71.5471C225.236 64.6361 224.98 57.7464 224.38 50.8585C224.153 48.2528 223.829 45.6612 223.505 43.0687C223.413 42.3389 223.322 41.6089 223.233 40.8786C223.019 39.1117 222.739 37.353 222.394 35.6075C222.29 35.0803 222.169 34.5573 222.047 34.035C221.956 33.6421 221.865 33.2495 221.782 32.8557C221.64 32.8787 221.496 32.8916 221.348 32.8978C220.465 32.9276 219.5 32.712 218.845 32.0843C218.593 32.2555 218.274 32.3633 217.89 32.3823C215.541 32.4983 213.169 32.4466 210.802 32.395C209.509 32.3668 208.217 32.3386 206.931 32.3379C203.281 32.3358 199.628 32.3379 195.975 32.3485C195.418 32.35 194.861 32.3522 194.304 32.3543C191.21 32.3661 188.111 32.378 185.021 32.2956C184.366 32.2781 183.707 32.2667 183.046 32.2553C180.278 32.2074 177.47 32.1589 174.766 31.6573C173.64 35.6603 173.68 40.0585 176.027 43.6346C176.69 44.6427 176.152 45.8305 175.288 46.4603C174.405 47.103 172.817 48.0886 171.458 48.1898C171.406 48.3082 171.352 48.4263 171.299 48.5442C171.22 48.7209 171.14 48.8971 171.063 49.073C170.415 50.551 169.831 52.0383 169.422 53.6031C169.211 54.4096 169.03 55.2295 168.877 56.0544C168.89 56.1987 168.903 56.3428 168.918 56.4868C168.918 56.5016 168.92 56.5162 168.922 56.5331C168.931 56.5925 168.941 56.6601 168.948 56.6981C168.967 56.7997 168.986 56.9012 169.005 57.0028C169.063 57.3154 169.122 57.6277 169.184 57.9388C169.381 58.9427 169.533 59.955 169.641 60.9714C169.837 62.8311 169.818 65.2491 168.005 66.3501C167.036 66.9401 165.874 66.8791 164.849 66.4831C164.278 66.2631 163.777 65.9661 163.261 65.6601C163.156 65.5971 163.049 65.5341 162.941 65.4711C162.775 65.3741 162.605 65.284 162.435 65.1951C162.222 65.0821 162.009 64.9711 161.805 64.8431C161.703 64.7801 161.606 64.7041 161.515 64.6241C160.829 64.7691 160.159 65.0421 159.783 65.2281C158.775 65.7291 157.89 66.4541 157.138 67.2871C155.539 69.0601 155.059 71.5581 155.283 73.8771C155.492 76.0341 156.339 78.5131 158.044 79.9491C158.786 80.5741 159.711 80.9401 160.689 80.9291C161.171 80.9251 161.615 80.8241 162.079 80.7011C162.278 80.6491 162.496 80.6261 162.714 80.6031C163.001 80.5731 163.287 80.5431 163.527 80.4471C164.154 80.1961 164.927 80.9631 164.672 81.5931C164.615 81.7331 164.565 81.8681 164.517 81.9991C164.403 82.3101 164.298 82.5941 164.128 82.8551C165.878 85.7121 167.794 88.4811 169.833 91.1381C171.125 92.8201 172.579 94.3151 174.039 95.8161C174.655 96.4491 175.272 97.0831 175.879 97.7341C176.782 98.7021 177.158 100.608 175.524 101.022C174.088 101.39 172.972 100.072 172.086 99.0271C171.968 98.8871 171.853 98.7511 171.743 98.6261C167.866 94.2151 164.936 89.1511 163.564 83.4341C162.946 83.8731 162.236 84.1121 161.488 84.2161C159.998 84.4211 158.492 84.1271 157.186 83.3731C152.243 80.5171 151.047 72.8011 153.362 67.9651C153.921 66.8011 154.745 65.7611 155.751 64.9541C155.672 64.8031 155.64 64.6251 155.691 64.4341C155.781 64.1001 155.879 63.7701 155.982 63.4411C155.869 63.3911 155.787 63.2881 155.803 63.1341C155.881 62.3291 155.958 61.5245 156.035 60.7199L156.077 60.2805C156.068 59.8444 156.054 59.4084 156.041 58.9723C156.011 57.9713 155.981 56.9695 155.993 55.9626C156.004 54.8912 156.041 53.8203 156.077 52.7494C156.119 51.5176 156.161 50.2859 156.166 49.0536C156.18 45.0625 156.267 41.0735 156.355 37.0846C156.444 33.0422 156.532 28.9999 156.544 24.9554C156.557 21.0262 156.565 17.0911 156.462 13.1642C156.46 13.1364 156.46 13.1091 156.459 13.0818C156.459 13.0573 156.458 13.0328 156.458 13.0078C156.445 12.5259 156.414 12.0189 156.383 11.4987C156.209 8.62616 156.012 5.34726 158.612 3.62576C159.117 3.29196 159.747 3.28776 160.296 3.50336C161.877 2.40216 163.858 1.87146 165.753 1.56506C168.547 1.11386 171.359 0.843361 174.173 0.572761C174.996 0.493661 175.819 0.41446 176.642 0.33076C178.539 0.13846 180.536 0.0646594 182.445 0.106959C183.439 0.128659 184.439 0.0927609 185.441 0.0568609C186.386 0.0229609 187.333 -0.0109402 188.277 0.00335981C190.482 0.0392598 192.705 0.121758 194.919 0.303458C194.97 0.298258 195.022 0.29346 195.074 0.28876C195.127 0.28396 195.18 0.27926 195.232 0.27386C198.585 -0.04784 201.935 0.12226 205.287 0.29246C206.098 0.33366 206.91 0.37496 207.722 0.40916C211.689 0.57616 215.878 0.986159 219.441 2.88596C219.899 3.12986 220.287 3.40716 220.618 3.71616C221.082 3.78146 221.525 3.91316 221.922 4.13446C223.069 3.90256 224.349 4.41656 224.621 5.74786C225.016 7.69866 225.166 9.66606 224.929 11.6446C224.926 11.6695 224.923 11.6951 224.92 11.7213C224.918 11.7439 224.915 11.767 224.912 11.7904C225.391 13.6258 225.359 15.6302 224.961 17.4404C225.129 19.7277 225.225 22.0215 225.238 24.3114C225.24 24.658 225.245 25.0059 225.25 25.3545C225.268 26.5996 225.286 27.8539 225.171 29.0878C225.041 30.4763 224.47 31.5751 223.571 32.6298C223.401 32.8284 223.115 32.8614 222.877 32.8132C222.815 32.8008 222.762 32.7838 222.713 32.7638C223.157 33.715 223.524 34.7136 223.884 35.6905C223.963 35.9072 224.043 36.1228 224.122 36.3366C224.82 38.2092 225.496 40.1135 225.975 42.0537C226.947 45.9656 227.587 49.9518 227.959 53.9654ZM160.635 71.6691C160.434 71.5311 160.232 71.3911 160.013 71.2881C159.986 71.2751 158.828 70.8991 159.052 71.3951C159.128 71.5601 158.929 71.7441 158.788 71.5981C158.386 71.1901 158.61 70.7001 158.993 70.3361C159.683 69.6791 160.714 69.8311 161.562 69.9881C162.74 70.2051 163.886 70.7211 164.879 71.3831C165.948 72.0951 167.268 73.0821 167.479 74.4321C167.671 75.6731 166.438 77.0401 165.168 76.2101C164.481 75.7601 164 75.0901 163.517 74.4181C163.173 73.9401 162.828 73.4591 162.407 73.0571C161.91 72.5831 161.373 72.1671 160.805 71.7861C160.748 71.7481 160.692 71.7091 160.635 71.6691Z" fill="#221E1F"/>
<path fill-rule="evenodd" clip-rule="evenodd" d="M205.166 90.865C203.746 90.286 202.479 89.319 201.552 88.084C201.23 87.654 201.147 87.201 201.214 86.786C201.29 86.32 201.566 85.897 201.942 85.614C202.319 85.33 202.791 85.189 203.247 85.261C203.644 85.323 204.038 85.54 204.351 85.99L204.416 86.08C204.967 86.826 205.684 87.437 206.502 87.832C207.29 88.212 208.172 88.389 209.084 88.286C210.822 88.09 212.019 87.15 213.292 85.873C213.45 85.712 213.608 85.546 213.766 85.377C213.866 85.224 214.006 85.125 214.16 85.074C214.331 85.016 214.525 85.02 214.703 85.082C214.874 85.141 215.027 85.255 215.13 85.406C215.227 85.549 215.283 85.726 215.265 85.93C215.148 87.252 214.457 88.433 213.475 89.36C212.384 90.39 210.938 91.102 209.577 91.352C208.078 91.627 206.55 91.43 205.166 90.865ZM210.285 70.457C211.88 71.427 214.311 73.689 212.595 76.094C210.574 78.215 207.666 75.784 206.233 74.684C204.904 73.832 203.41 76.024 204.643 77.019C215 84.69 219.204 70.711 211.092 69.317C210.198 69.163 209.867 70.157 210.285 70.457ZM191.725 61.5339C191.901 59.3451 195.233 58.848 195.565 61.014C195.861 62.954 195.512 64.736 194.638 66.483C193.804 68.152 191.706 67.374 191.547 65.854C191.334 63.817 191.615 62.895 191.725 61.5339ZM217.09 60.5648C217.555 59.9562 218.226 59.5406 219.029 59.7755C221.54 60.5095 220.8 64.076 219.918 65.811C219.439 66.754 217.89 66.993 217.19 66.163C216.049 64.81 215.503 62.1066 216.953 60.7735C216.993 60.7046 217.037 60.635 217.09 60.5648ZM194.603 51.9564L195 51.8869C196.227 51.6746 197.752 51.4706 198.62 52.4575C199.081 52.9808 199.239 53.9534 198.62 54.4543C197.532 55.3356 196.328 54.9941 195.024 55.0687C193.949 55.1304 192.916 55.3084 191.881 55.6045C189.609 56.254 187.758 57.4396 185.818 58.7416C185.564 58.9123 185.304 58.5866 185.425 58.3484C186.545 56.154 188.715 54.3514 190.889 53.2526C192.05 52.6661 193.319 52.1795 194.603 51.9564ZM214.801 50.9733L215.105 51.0355C218.409 51.7263 222.701 53.1063 224.265 56.3525C224.325 56.8115 224.262 56.9099 224.211 56.9742L224.194 56.9956C224.151 57.0505 224.118 57.1261 223.919 57.1886C223.864 57.1754 223.808 57.1615 223.752 57.1467C223.034 56.9587 222.467 56.6997 221.918 56.431L221.322 56.1375C220.631 55.7986 219.934 55.472 219.195 55.2309C217.619 54.7164 215.997 54.3541 214.351 54.1606C213.994 54.1187 213.65 53.9982 213.379 53.7916C213.122 53.5956 212.925 53.3242 212.835 52.9634C212.719 52.4966 212.753 52.1431 213.003 51.7219C213.191 51.4056 213.461 51.1863 213.77 51.0604C214.085 50.9321 214.444 50.9018 214.801 50.9733Z" fill="#221E1F"/>
<path fill-rule="evenodd" clip-rule="evenodd" d="M11.3375 289.278C38.9386 293.472 67.0405 293.683 94.8705 292.16C105.885 291.335 116.933 291.187 127.939 292.241C134.442 292.725 162.955 294.905 165.284 289.079C163.818 258.052 160.848 226.76 151.739 196.92C147.992 186.324 144.774 177.53 137.462 168.762C135.158 166.368 130.188 161.347 127.34 159.709C124.873 158.291 123.842 158.797 122.425 156.401C121.018 153.754 119.979 149.334 117.981 147.467C115.945 145.565 112.929 146.245 109.191 146.858C109.878 137.573 105.594 135.208 99.6915 133.443C89.3165 129.482 79.0715 131.472 76.4605 144.106C71.6185 144.106 68.8995 146.19 65.9595 148.193C64.7575 149.011 65.5935 151.097 64.1575 151.74C61.5019 152.686 56.8084 152.455 54.2511 153.619C42.6222 158.913 32.2647 166.591 25.4627 177.803C10.2134 201.742 -0.261757 252.169 1.55094 280.542C0.756743 281.788 1.85505 283.575 2.13415 284.914C2.48655 286.08 3.62754 286.855 4.81844 286.722C6.48024 288.51 9.05065 288.908 11.3375 289.278Z" fill="white"/>
<path fill-rule="evenodd" clip-rule="evenodd" d="M125.583 159.007C125.413 158.913 125.563 158.671 125.733 158.751C133.918 162.592 140.198 169.332 144.616 177.119C149.192 185.183 151.799 194.337 154.047 203.285L154.129 203.609C156.526 213.181 158.564 222.852 160.399 232.546C162.258 242.364 163.749 252.242 164.949 262.161C165.543 267.066 166.072 271.979 166.485 276.902C166.691 279.362 166.879 281.824 167.047 284.287C167.114 285.272 167.178 286.257 167.232 287.243L167.271 287.982C167.305 288.653 167.384 289.326 167.219 289.988C167.076 290.558 166.774 291.074 166.508 291.598C165.983 292.633 164.543 292.463 163.977 291.598L163.813 291.346C163.438 290.766 163.126 290.227 163.008 289.505C162.894 288.805 162.89 288.072 162.839 287.366C162.745 286.067 162.665 284.766 162.573 283.466C162.382 280.729 162.166 277.994 161.928 275.261C161.457 269.867 160.951 264.476 160.33 259.096C159.227 249.535 157.843 239.999 156.211 230.513C154.616 221.247 152.6 212.075 150.497 202.915L150.279 201.967C146.597 185.973 140.922 167.555 125.583 159.007ZM38.3951 221.635C38.4553 221.475 38.7143 221.438 38.7581 221.635C39.3095 224.119 39.364 226.677 39.4483 229.219C39.5313 231.728 39.5279 234.248 39.4914 236.757C39.3566 245.981 39.1035 255.197 38.8846 264.42C38.7752 269.033 38.6725 273.647 38.5937 278.261C38.5639 279.991 38.5389 281.721 38.5181 283.452L38.4926 285.734C38.4799 286.743 38.4535 287.74 38.3305 288.748C38.2493 289.411 38.0765 290.044 37.7106 290.612C37.4509 291.015 37.0808 291.22 36.7201 291.494L36.6526 291.547C36.1924 291.91 35.7078 291.913 35.2521 291.547L35.1198 291.442C34.6844 291.101 34.3082 290.835 34.0303 290.297C33.6437 289.548 33.5818 288.734 33.5161 287.909C33.4164 286.658 33.4825 285.388 33.4954 284.134C33.5212 281.616 33.556 279.1 33.6002 276.583C33.7622 267.353 34.0825 258.121 34.6662 248.908C34.9412 244.568 35.3141 240.214 35.8143 235.892L35.9095 235.082C36.0612 233.81 36.1996 232.516 36.3555 231.217C34.028 229.58 31.9821 227.593 30.2374 225.338C30.109 225.172 30.3205 224.94 30.4755 225.1C32.2582 226.947 34.3022 228.419 36.5651 229.576C36.9359 226.858 37.4457 224.155 38.3951 221.635ZM77.2795 139.36C77.3115 139.335 77.3615 139.324 77.3915 139.36C77.8925 139.943 77.7905 140.835 77.8065 141.575L77.8085 141.643C77.8445 142.724 77.8515 143.802 77.8475 144.884L77.8365 148.327C77.8345 148.8 77.7965 149.293 77.8205 149.769L77.8335 149.954C78.0965 150.223 78.2185 150.612 78.1295 151.003C78.1135 151.504 77.8515 151.922 77.4695 152.185L78.2885 153.348L79.1085 154.51C80.7975 156.907 82.5065 159.284 84.2875 161.616C86.1025 163.993 88.0395 166.281 90.0665 168.481C91.0565 169.556 92.0635 170.616 93.0945 171.652C93.5135 172.073 93.9425 172.484 94.3665 172.899L94.7895 173.317C95.0385 173.566 95.3525 173.813 95.5185 174.129C95.6155 174.316 95.6375 174.776 95.6725 174.852C95.9855 175.54 95.4515 176.636 94.5655 176.293L94.6055 176.266C94.7675 176.154 94.6635 176.152 94.2955 176.261C94.0625 176.26 93.8445 176.207 93.6415 176.101L93.5805 176.068C93.2945 175.922 93.0385 175.64 92.8055 175.414L92.7475 175.359C92.2145 174.86 91.7075 174.331 91.1965 173.809C90.1315 172.72 89.0905 171.608 88.0815 170.466C86.0705 168.189 84.1635 165.818 82.3585 163.374C80.5185 160.885 78.8095 158.268 77.3395 155.544C76.7815 154.51 76.2695 153.456 75.7795 152.39C74.8245 152.084 74.6035 151.068 74.6695 149.924C74.3175 149.104 74.0005 148.266 73.8125 147.411C73.7875 147.294 73.9375 147.183 74.0275 147.286C74.3335 147.633 74.6155 148.002 74.8875 148.381C75.0515 147.579 75.2585 146.841 75.3565 146.37L75.7795 144.293C73.3955 144.169 70.7825 145.149 69.1385 146.864C69.0505 147.311 68.7065 147.631 68.3715 148.049C67.9885 148.526 67.6545 149.062 67.4055 149.622C66.8525 150.864 67.1645 152.694 66.0925 153.605C65.9805 153.7 65.8555 153.766 65.7275 153.807C66.2355 156.302 66.0045 159.052 65.9935 161.584V161.807C65.9955 164.64 65.9015 167.476 65.7915 170.308L65.6805 173.11C65.5365 176.847 65.4425 180.586 65.8055 184.302C67.4625 182.834 69.1765 181.432 70.9495 180.097C72.1155 179.219 73.3045 178.372 74.5145 177.557L75.4985 176.9C76.6775 176.109 77.8845 175.295 79.1755 174.729C80.8635 173.989 82.4685 174.243 84.0975 175.002C85.7205 175.759 87.2955 176.637 88.8875 177.457C90.5065 178.291 92.1295 179.117 93.7505 179.946C94.8245 180.495 96.3985 180.991 97.1865 182.002C97.2365 181.778 97.2955 181.555 97.3635 181.333C97.2855 180.994 97.3155 180.628 97.5055 180.279C100.153 175.413 102.603 170.431 105.035 165.455C106.266 162.937 107.436 160.389 108.67 157.872L109.869 155.421C110.069 155.012 110.27 154.604 110.472 154.197C110.774 153.587 111.089 152.983 111.395 152.374C111.525 152.117 111.687 151.862 111.813 151.603L111.872 151.472C111.875 151.466 112.166 150.552 111.941 150.639L111.922 150.648C111.807 150.713 111.716 150.569 111.79 150.477C112.107 150.084 112.549 150.432 112.73 150.795C113.229 151.795 112.315 153.365 111.963 154.322L111.944 154.376C110.853 157.465 109.617 160.497 108.351 163.519C105.924 169.311 103.317 175.015 100.715 180.728L100.684 180.826C101.239 180.401 101.831 180.015 102.338 179.639C103.618 178.691 104.935 177.789 106.25 176.89C108.662 175.242 111.138 173.703 113.656 172.224L114.16 171.929C115.418 171.196 116.664 170.602 118.157 170.822C119.543 171.026 120.833 171.772 122.086 172.377L122.215 172.439L126.087 174.28C125.673 172.629 125.225 170.986 124.757 169.349C123.845 166.156 122.842 162.99 121.754 159.853C120.738 156.921 119.639 154.021 118.477 151.145L118.127 150.281C117.654 149.097 117.183 147.806 115.829 147.441C114.475 147.076 112.923 147.617 111.686 146.845C111.574 146.775 111.588 146.59 111.724 146.556L112.487 146.363C113.92 146.007 115.6 145.648 116.955 145.995C118.429 146.373 119.649 147.61 120.365 148.897C121.16 150.329 121.721 151.931 122.324 153.458L122.42 153.698C123.113 155.426 123.779 157.163 124.417 158.912C125.692 162.408 126.852 165.946 127.903 169.516C128.409 171.236 128.889 172.965 129.351 174.697C129.483 175.196 129.702 175.8 129.882 176.43C130.087 176.631 130.282 176.855 130.465 177.111C130.768 177.535 130.551 178.032 130.174 178.286C130.159 178.719 130.063 179.127 129.832 179.477C128.933 180.842 126.557 180.49 126.653 178.655C126.668 178.374 126.778 178.106 126.943 177.879L126.938 177.843L126.92 177.775C126.507 177.578 126.093 177.357 125.656 177.141L121.593 175.133C120.416 174.551 119.112 173.652 117.803 173.43C116.583 173.224 115.296 174.133 114.248 174.682L114.18 174.717C111.646 176.016 109.13 177.359 106.625 178.712C105.402 179.373 104.195 180.062 102.976 180.73C101.958 181.29 100.858 182.092 99.7125 182.408C99.2235 182.788 98.6425 182.737 98.1755 182.45C98.3885 183.772 98.3755 185.128 98.4415 186.48C98.5295 188.287 98.5425 190.099 98.5715 191.908L98.5835 192.586C98.6605 196.586 98.7015 200.587 98.7175 204.588C98.7715 218.835 98.6135 233.086 98.5775 247.333C98.5585 254.491 98.4165 261.655 98.2305 268.81C98.1515 271.842 97.9875 274.87 97.8095 277.898L97.7115 279.549C97.5035 283.033 97.3815 286.556 96.7365 289.993C96.6525 290.441 95.8945 290.453 95.8195 289.993C95.2265 286.31 95.1935 282.546 95.0795 278.82L95.0555 278.075C94.9185 274.074 94.8535 270.076 94.8675 266.073C94.9175 251.82 95.2885 237.577 95.5915 223.329C95.7435 216.17 95.8455 209.008 96.0825 201.851C96.2005 198.27 96.3345 194.692 96.4935 191.112C96.5645 189.514 96.6325 187.917 96.7395 186.322L96.7865 185.638C96.8195 185.192 96.8465 184.751 96.8785 184.314C95.4375 184.841 94.1195 183.866 92.8225 183.199C91.3275 182.43 89.8335 181.659 88.3385 180.892L86.8425 180.125L83.8475 178.597C82.4995 177.908 81.4605 177.223 80.0225 178.031C74.8415 180.938 70.0805 184.807 65.7665 188.867C64.9385 189.646 63.1907 189.437 62.9812 188.132C62.086 182.557 62.6304 176.902 63.0875 171.311L63.2559 169.235C63.4601 166.755 63.6825 164.276 63.9785 161.807C64.1115 160.702 64.2435 159.598 64.3895 158.496L64.5015 157.669C64.6845 156.362 64.8035 155.063 65.1925 153.81C65.0695 153.77 64.9515 153.705 64.8465 153.605C63.676 152.495 64.2405 150.568 64.7735 149.247C65.3015 147.943 66.1045 146.805 67.1115 145.826C67.3315 145.612 67.6405 145.474 67.9515 145.467C70.3925 143.849 73.0705 143.042 75.8565 143.925C75.9355 143.551 76.0145 143.177 76.0995 142.804L76.1845 142.431C76.4015 141.506 76.4815 139.978 77.2795 139.36ZM102.295 285.449C103.053 285.24 103.882 285.46 104.437 286.015C104.992 286.57 105.211 287.4 105.003 288.157C104.898 288.531 104.71 288.854 104.437 289.129C104.182 289.383 103.884 289.563 103.545 289.672L103.466 289.696L103.342 289.747C102.962 289.849 102.582 289.849 102.203 289.747C101.84 289.645 101.525 289.462 101.257 289.196C100.992 288.929 100.808 288.613 100.706 288.25C100.604 287.87 100.604 287.49 100.706 287.111L100.758 286.987C100.863 286.614 101.051 286.29 101.324 286.015C101.599 285.742 101.922 285.553 102.295 285.449ZM147.268 209.946C147.392 209.803 147.594 209.986 147.517 210.138C146.337 212.452 145.022 214.749 143.73 217.004C143.833 217.629 143.936 218.249 144.054 218.853C144.557 221.429 145.174 223.958 145.576 226.558C147.021 235.903 147.771 245.351 148.415 254.78C149.061 264.244 149.143 273.711 149.24 283.193C149.249 284.015 148.617 284.97 147.77 285.125C147.382 285.196 147.092 285.182 146.705 285.125C145.824 284.995 145.273 283.985 145.235 283.193C144.983 277.894 144.643 272.601 144.249 267.31C143.551 257.93 143.124 248.524 142.56 239.134L142.362 235.852C142.149 232.296 141.954 228.737 141.89 225.176C141.848 222.816 141.974 220.458 141.897 218.101C141.825 215.925 141.604 213.559 142.084 211.421C142.102 211.341 142.228 211.321 142.265 211.398C142.763 212.448 143.079 213.589 143.323 214.754C144.608 213.128 145.916 211.499 147.268 209.946ZM63.0988 152.471C63.2792 152.457 63.272 152.728 63.0988 152.748C60.5771 153.041 58.1411 154.068 55.7601 154.94L55.5561 155.014C53.1506 155.888 50.8053 156.903 48.5484 158.113C44.1356 160.479 40.0835 163.53 36.5008 167.023C22.1969 180.966 15.6783 201.073 10.9017 219.968C8.24781 230.466 6.36052 241.142 5.13732 251.899C4.53242 257.219 4.10481 262.559 3.85551 267.908C3.72791 270.649 3.64741 273.393 3.61381 276.137C3.59651 277.542 3.59142 278.948 3.59312 280.354C3.59402 280.998 3.70892 281.809 3.53672 282.434C3.37702 283.014 2.92661 283.524 2.59341 284.007C2.19861 284.579 1.48891 284.549 1.08861 284.007L0.940918 283.809C0.513918 283.243 0.0962169 282.701 0.0352169 281.96C-0.0300831 281.166 0.0160153 280.348 0.0130153 279.551C0.00621532 277.944 0.0261157 276.338 0.0582157 274.731C0.120116 271.653 0.241415 268.576 0.421615 265.502C0.787515 259.264 1.38982 253.038 2.25222 246.85C3.78522 235.849 6.08292 224.953 9.09262 214.262C11.9321 204.177 15.2959 194.121 20.0879 184.779C24.5372 176.105 30.3741 168.036 38.076 161.974C41.6577 159.155 45.5566 156.806 49.7602 155.036C51.8803 154.144 54.1066 153.416 56.3708 153C58.6098 152.59 60.8391 152.647 63.0988 152.471ZM102.729 267.622C103.129 267.619 103.575 267.707 103.918 267.928L104.377 268.283C104.501 268.442 104.624 268.603 104.748 268.763C105.034 269.137 105.072 269.742 105.012 270.187C104.999 270.484 104.911 270.761 104.748 271.017L104.399 271.469C104.063 271.743 103.783 271.938 103.377 272.07C103.165 272.139 102.96 272.153 102.756 272.142L102.688 272.138L102.729 272.144L102.658 272.136C102.591 272.13 102.525 272.123 102.458 272.114C102.413 272.108 102.367 272.104 102.322 272.098C102.278 272.095 102.236 272.093 102.191 272.097C101.675 272.146 101.156 271.853 100.789 271.516C100.459 271.213 100.163 270.57 100.209 270.114L100.229 269.923C100.263 269.602 100.292 269.475 100.428 269.153C100.56 268.839 100.745 268.561 100.997 268.327C101.478 267.879 102.068 267.627 102.729 267.622ZM101.131 244.102C101.816 243.355 102.993 243.3 103.843 243.752C104.05 243.863 104.24 244.039 104.423 244.187C104.883 244.559 105.063 245.23 105.089 245.795C105.114 246.354 104.819 247.018 104.423 247.404L104.327 247.497C104.09 247.728 103.751 247.928 103.419 247.989C102.885 248.087 102.436 248.084 101.939 247.874C101.511 247.694 101.143 247.404 100.892 247.01L100.852 246.944C100.834 246.916 100.818 246.888 100.803 246.859L100.781 246.816C100.305 245.9 100.433 244.863 101.131 244.102ZM101.486 220.459C101.795 220.362 102.104 220.348 102.413 220.417C102.623 220.418 102.818 220.471 102.999 220.576C103.196 220.631 103.368 220.731 103.512 220.875C103.687 220.978 103.826 221.117 103.929 221.292C104.135 221.517 104.274 221.78 104.346 222.083L104.429 222.701L104.346 223.32L104.111 223.875C104.047 223.959 103.982 224.043 103.916 224.127C103.813 224.302 103.673 224.442 103.498 224.546C103.384 224.659 103.254 224.744 103.108 224.802C102.59 225.174 101.901 225.295 101.287 225.126C100.923 225.024 100.607 224.839 100.339 224.573C100.072 224.304 99.8875 223.988 99.7855 223.624L99.7435 223.333C99.6895 222.943 99.6805 222.727 99.7915 222.231C99.8395 222.013 99.9805 221.705 100.054 221.576C100.369 221.023 100.882 220.644 101.486 220.459ZM128.324 203.449C129.211 203.443 130.099 203.444 130.986 203.454L131.652 203.463C132.766 203.481 133.721 203.366 134.597 204.139C135.233 204.701 134.952 205.642 134.349 206.065C133.434 206.706 132.287 206.384 131.236 206.313C130.127 206.239 129.018 206.177 127.908 206.127C125.758 206.031 123.608 205.969 121.457 205.96C119.31 205.951 117.16 205.971 115.014 206.006C112.83 206.041 110.556 206.245 108.384 206.019C108.086 205.988 108.018 205.595 108.313 205.493C110.359 204.785 112.662 204.555 114.806 204.285C117.019 204.005 119.231 203.807 121.457 203.679C123.743 203.548 126.033 203.465 128.324 203.449ZM101.482 196.492L101.555 196.494C101.946 196.495 102.311 196.587 102.652 196.77L102.725 196.81L103.194 197.173C103.481 197.462 103.68 197.803 103.79 198.196L103.873 198.812C103.885 199.131 103.818 199.429 103.673 199.705C103.58 199.993 103.42 200.241 103.194 200.451C102.984 200.677 102.735 200.837 102.448 200.931C102.193 201.064 101.92 201.132 101.629 201.132L101.555 201.13C101.137 201.129 100.747 201.023 100.386 200.814L99.9165 200.451C99.6295 200.162 99.4305 199.821 99.3205 199.428L99.2375 198.812C99.2255 198.493 99.2915 198.195 99.4375 197.919C99.5305 197.631 99.6905 197.383 99.9165 197.173C100.127 196.947 100.375 196.787 100.663 196.693C100.918 196.559 101.191 196.492 101.482 196.492ZM108.352 142.034C108.851 141.31 109.756 141.954 109.627 142.535C109.661 144.169 109.744 145.754 110.116 147.354C110.286 148.087 110.509 148.82 110.853 149.491L110.997 149.774C111.442 150.653 111.787 151.483 111.188 152.447C110.906 152.902 110.395 153.244 109.842 153.22C107.388 153.114 107.051 149.697 106.902 147.789C106.748 145.825 107.226 143.666 108.352 142.034Z" fill="#221E1F"/>
<path fill-rule="evenodd" clip-rule="evenodd" d="M133.712 98.3457C132.911 85.1993 128.647 70.2947 116.097 63.84C88.4295 52.7319 52.0524 80.7054 50.1265 109.283C49.455 119.065 54.8842 129.754 64.8055 132.473C67.0115 135.397 70.3475 137.182 73.6395 138.732C112.857 159.087 138.189 142.541 133.712 98.3457Z" fill="white"/>
<path fill-rule="evenodd" clip-rule="evenodd" d="M142.647 90.168C141.261 86.3172 139.797 82.496 138.257 78.7043C136.757 75.0142 135.402 71.2442 133.539 67.7289C122.414 46.7334 102.183 46.7334 91.7246 49.4767C86.3016 47.1392 76.1436 47.7985 70.4966 49.9078C61.3544 53.3226 50.2103 66.7556 46.4 72.791C37.9876 86.1164 32.7376 103.852 38.3256 119.251C39.056 121.263 39.9874 123.127 41.0362 124.923C40.3755 125.819 39.6152 126.667 38.7729 127.501C36.2698 129.978 33.7667 132.374 31.6043 135.168C29.4555 137.945 27.6741 140.898 26.348 144.154C23.8474 150.294 23.727 157.247 27.0329 163.106C29.9091 168.203 35.0043 172 40.7446 172.362C41.0393 172.403 41.3345 172.44 41.6309 172.47C42.3914 173.723 43.3189 174.877 44.3774 175.883C47.6203 178.969 55.3506 180.552 59.7598 180.653C59.9858 180.835 60.214 181.017 60.4422 181.197C63.14 183.321 65.9706 185.464 69.0686 186.975C71.1656 188 73.9166 188.856 76.1056 188.116C77.0986 188.78 78.7276 188.64 79.7116 188.097C81.3306 187.205 82.6466 185.599 83.4466 183.955C85.3886 179.962 84.9216 175.594 84.4236 171.329C83.8736 166.618 83.3456 161.905 82.8086 157.194C82.3886 153.51 81.9496 149.765 80.8296 146.216C80.2506 144.377 79.4926 142.61 78.5116 140.949C78.5376 140.81 78.5326 140.67 78.4926 140.539C78.1716 139.495 77.5086 138.948 76.7226 138.238C76.6206 138.147 76.5196 138.054 76.4206 137.959C76.0276 137.511 75.6066 137.094 75.1566 136.741C74.9836 136.566 74.8126 136.388 74.6416 136.211C73.2196 134.721 71.8756 133.155 70.6826 131.476C69.5246 129.849 68.4786 128.15 67.4836 126.419C66.4716 124.658 65.8016 122.716 64.7926 120.968C64.7056 120.818 64.4856 120.789 64.3636 120.913C64.0506 121.237 63.8499 121.596 63.8876 121.974L63.7316 121.997C63.6724 121.427 63.1464 120.962 62.4323 121.087C61.3633 121.272 60.4844 121.342 59.5591 120.987C59.7217 119.907 59.8717 118.825 60.0196 117.741C60.29 115.746 60.5414 113.744 60.7569 111.743C61.2788 111.867 61.7964 112.047 62.3034 112.275C63.026 112.599 63.7083 113.034 64.2916 113.569C64.8656 114.097 65.2636 114.809 65.9646 115.177C66.7716 115.598 67.7456 114.902 67.5086 113.989C67.0296 112.144 64.3146 111.088 62.6351 110.739C62.0583 110.618 61.4689 110.568 60.8795 110.58C61.0126 109.295 61.1309 108.01 61.2281 106.723C61.2745 106.114 61.3168 105.506 61.3569 104.895C62.6626 104.5 64.0616 104.381 65.4196 104.567C65.8676 104.925 66.3156 105.278 66.7486 105.635C68.1236 106.772 69.4926 107.915 70.8446 109.08C70.9676 109.183 71.0876 109.287 71.2106 109.392C72.0136 110.084 73.0146 109.399 72.8796 108.42C71.7766 100.402 76.6866 94.023 82.4356 89.0816C88.7986 83.6098 100.368 82.9726 107.935 73.4945C111.421 74.2042 119.202 76.3118 122.414 81.4307C126.909 88.604 126.322 95.0311 126.664 103.168C127.007 111.312 127.877 119.806 126.028 127.835C124.324 135.239 119.707 141.564 112.545 144.472C112.368 144.544 112.188 144.614 112.009 144.682C108.305 146.079 104.264 146.474 100.368 145.738C96.0556 144.923 92.4556 142.949 88.8686 140.52C88.6616 140.383 88.3586 140.666 88.5156 140.873C93.2436 147.142 102.531 149.236 109.898 147.581C110.243 147.503 110.585 147.419 110.925 147.326C109.277 152.066 109.609 157.27 111.755 161.886C113.046 164.663 115.015 167.066 117.413 168.962C120.056 171.05 123.335 172.736 125.169 175.668C126.848 178.354 126.35 181.372 123.474 182.923C122.75 183.316 122.471 184.587 123.189 185.145C123.464 185.356 123.738 185.572 124.019 185.783C125.629 186.998 130.051 189.281 130.767 189.365C137.126 190.12 141.402 185.449 144.143 179.939C147.36 173.472 146.524 165.591 142.978 159.432C140.135 154.49 134.534 149.621 136.761 143.367C137.555 141.133 139.18 139.229 140.758 137.508C142.558 135.549 144.493 133.715 146.219 131.686C147.935 129.672 149.456 127.48 150.305 124.952C151.545 121.258 150.928 117.263 149.997 113.575C148 105.658 145.408 97.8463 142.647 90.168Z" fill="#221E1F"/>
<path fill-rule="evenodd" clip-rule="evenodd" d="M107.025 131.501C105.605 130.922 104.338 129.955 103.411 128.72C103.089 128.29 103.006 127.837 103.073 127.422C103.149 126.956 103.425 126.533 103.801 126.25C104.178 125.966 104.651 125.825 105.107 125.897C105.503 125.959 105.898 126.176 106.211 126.626L106.275 126.716C106.826 127.462 107.544 128.073 108.362 128.468C109.15 128.848 110.032 129.025 110.944 128.922C112.682 128.726 113.878 127.786 115.151 126.509C115.309 126.348 115.467 126.182 115.625 126.013C115.725 125.86 115.865 125.761 116.019 125.71C116.19 125.652 116.384 125.656 116.562 125.718C116.733 125.777 116.886 125.891 116.989 126.042C117.086 126.185 117.143 126.362 117.125 126.566C117.008 127.888 116.316 129.069 115.334 129.996C114.243 131.026 112.798 131.738 111.437 131.988C109.938 132.263 108.409 132.066 107.025 131.501ZM112.144 111.093C113.739 112.063 116.17 114.325 114.454 116.73C112.433 118.851 109.525 116.42 108.092 115.32C106.763 114.468 105.269 116.66 106.502 117.655C116.859 125.326 121.064 111.347 112.952 109.953C112.058 109.799 111.726 110.793 112.144 111.093ZM93.5845 102.17C93.7605 99.981 97.0925 99.4839 97.4245 101.65C97.7205 103.59 97.3715 105.372 96.4975 107.119C95.6635 108.788 93.5655 108.01 93.4065 106.49C93.1935 104.453 93.4745 103.531 93.5845 102.17ZM118.95 101.201C119.415 100.592 120.085 100.177 120.888 100.411C123.399 101.145 122.66 104.712 121.778 106.447C121.299 107.39 119.749 107.629 119.049 106.799C117.908 105.446 117.362 102.743 118.812 101.409C118.852 101.341 118.897 101.271 118.95 101.201ZM96.4625 92.5923L96.8595 92.5228C98.0865 92.3105 99.6115 92.1065 100.48 93.0934C100.941 93.6167 101.099 94.5893 100.48 95.0902C99.3915 95.9715 98.1875 95.63 96.8835 95.7046C95.8085 95.7663 94.7755 95.9443 93.7405 96.2404C91.4685 96.8899 89.6175 98.0755 87.6775 99.3775C87.4235 99.5482 87.1635 99.2225 87.2845 98.9843C88.4045 96.7899 90.5745 94.9873 92.7485 93.8885C93.9095 93.302 95.1785 92.8154 96.4625 92.5923ZM116.661 91.6092L116.965 91.6714C120.269 92.3622 124.561 93.7422 126.125 96.9884C126.185 97.4474 126.122 97.5458 126.071 97.6101L126.053 97.6315C126.01 97.6864 125.977 97.762 125.778 97.8245C125.723 97.8113 125.668 97.7974 125.612 97.7826C124.894 97.5946 124.327 97.3356 123.778 97.0669L123.181 96.7734C122.49 96.4345 121.793 96.1079 121.054 95.8668C119.478 95.3523 117.857 94.99 116.211 94.7965C115.854 94.7546 115.51 94.6341 115.239 94.4275C114.982 94.2315 114.784 93.9601 114.694 93.5993C114.578 93.1325 114.612 92.779 114.862 92.3578C115.05 92.0415 115.32 91.8222 115.629 91.6963C115.944 91.568 116.304 91.5377 116.661 91.6092Z" fill="#221E1F"/>
<path fill-rule="evenodd" clip-rule="evenodd" d="M251.213 190.412C256.428 186.44 269.521 184.653 275.087 188.478C280.585 192.32 281.184 198.532 283.746 204.246C286.163 203.106 290.154 204.739 290.855 206.983C291.724 208.041 291.763 211.014 292.363 212.436C318.442 216.589 322.401 236.929 325.54 260.021C329.693 283.453 339.12 306.834 335.028 330.946C335.561 331.718 335.981 332.469 336.37 333.36C337.302 334.945 336.102 337.19 334.223 337.103C331.791 336.889 329.383 336.597 326.94 336.506C320.167 336.271 313.387 336.299 306.612 336.385L305.688 336.397C271.54 336.822 237.394 337.66 203.245 337.883C202.006 337.884 201.399 336.773 201.565 335.676C201.898 333.469 202.207 331.26 202.53 329.052C194.452 331.186 185.866 331.723 177.811 329.276C177.248 328.702 179.124 329.013 179.422 328.926C172.009 323.859 174.223 313.184 174.879 305.496C178.962 279.151 180.402 250.002 196.177 227.521C203.001 218.347 213.007 211.083 224.504 209.449L224.823 209.405C228.185 208.956 231.931 208.812 234.87 206.983C238.176 204.342 239.585 199.464 243.063 199.419C244.211 199.404 245.773 200.857 247.454 201.844C247.58 199.673 248.749 197.841 249.007 196.158L249.028 196.014C249.298 194.052 248.929 192.287 251.213 190.412ZM307.26 260.717C299.931 255.624 280.998 258.183 280.565 258.468C279.611 259.096 279.2 259.152 278.684 259.967C278.174 260.035 277.665 260.105 277.156 260.177C276.136 260.511 276.892 261.766 278.071 261.318C277.362 264.377 279.448 266.553 280.279 269.577C280.549 270.559 280.289 272.325 280.279 273.329C280.36 274.608 281.774 276.119 281.538 277.403C280.7 281.965 276.154 286.416 278.071 290.841C279.34 293.341 283.159 294.615 285.698 295.465C290.959 297.484 300.124 295.389 303.181 290.841C304.811 288.416 306.7 282.298 307.672 280.4L307.887 277.39C308.419 269.907 308.891 261.851 307.26 260.717Z" fill="white"/>
<path fill-rule="evenodd" clip-rule="evenodd" d="M241.785 198.977C242.291 198.529 243.04 199.092 242.719 199.698C241.996 201.059 241.255 202.348 240.285 203.551C239.697 204.281 239.067 204.971 238.429 205.653C240.067 207.07 241.472 208.83 242.798 210.48C244.495 212.589 246.098 214.788 248.003 216.718C249.881 218.622 251.957 219.953 254.468 220.84L254.975 221.016C257.497 221.902 260.193 223.098 261.614 225.487C261.894 225.958 261.33 226.54 260.855 226.246C258.385 224.716 255.483 224.408 252.794 223.397C250.196 222.421 247.932 220.918 245.931 218.999C243.934 217.084 242.257 214.905 240.507 212.772C238.777 210.663 236.915 208.861 234.869 207.077C231.711 209.202 228.107 210.127 224.442 211.035L224.042 211.134C220.373 212.043 216.723 213.098 213.281 214.681C210.246 216.076 207.261 217.742 204.788 220.012C202.164 222.422 200.121 225.499 198.252 228.508C194.07 235.241 191.13 242.617 188.542 250.083C185.85 257.848 183.598 265.769 181.78 273.784C180.856 277.861 180.105 281.967 179.488 286.102C179.191 288.093 178.927 290.089 178.695 292.089C178.448 294.225 178.391 296.422 177.736 298.475C177.455 299.355 176.792 299.721 176.129 299.689L175.994 301.376C175.815 303.624 175.649 305.873 175.592 308.135C175.499 311.897 175.541 315.648 175.812 319.401L175.85 319.913C176.063 322.653 176.538 325.731 178.597 327.737C180.729 329.814 184.009 330.468 186.883 330.505C193.578 330.592 200.022 327.428 205.946 324.652C212.047 321.793 217.981 318.62 223.773 315.178C226.723 313.425 229.641 311.614 232.521 309.75C233.935 308.835 235.338 307.905 236.732 306.96C237.529 306.418 238.286 305.825 239.098 305.344C238.7 304.973 238.522 304.391 238.856 303.882C236.507 301.842 235.53 298.204 235.416 295.259C235.323 292.883 235.673 290.513 235.949 288.159C236.088 286.971 236.26 285.786 236.439 284.605C236.509 284.138 236.563 283.638 236.646 283.145C230.305 286.631 223.786 289.736 217.095 292.493C213.666 293.907 210.192 295.178 206.67 296.343L205.956 296.578C202.62 297.671 199.203 298.703 195.754 299.327C195.569 299.361 195.419 299.088 195.616 299.002C198.978 297.518 202.456 296.266 205.868 294.899L206.429 294.671C206.365 294.667 206.298 294.658 206.228 294.642C204.227 294.159 202.241 293.414 200.279 292.787C198.457 292.205 196.411 291.84 194.708 290.962C194.577 290.894 194.65 290.712 194.778 290.703C196.692 290.57 198.769 291.128 200.645 291.457L201.35 291.58C202.531 291.788 203.738 292.012 204.913 292.304C204.955 291.911 205.175 291.515 205.488 291.283C208.931 288.732 208.582 283.581 208.95 279.782L209.223 276.961C209.703 272.025 210.211 267.089 210.983 262.19C211.024 261.929 211.429 262.004 211.431 262.251C211.471 268.324 211.012 274.369 210.783 280.432L210.747 281.427C210.62 285.169 210.521 289.054 208.165 291.933C208.494 291.74 208.94 291.74 209.207 292.058C209.534 292.448 209.724 292.886 209.718 293.316C211.846 292.424 213.966 291.508 216.074 290.573C222.855 287.568 229.493 284.205 235.955 280.567C236.651 280.175 237.312 280.483 237.656 280.999L237.705 280.992C237.713 280.991 237.722 280.99 237.731 280.99L237.78 280.988C237.782 280.988 237.784 280.988 237.785 280.988C238.695 280.488 239.934 280.844 240.715 281.573C240.738 281.595 240.758 281.619 240.778 281.642C241.766 281.198 242.689 280.599 243.527 279.84C245.24 278.286 246.692 276.365 247.958 274.438C250.288 270.889 252.268 266.943 255.416 264.022C257.974 261.649 261.145 260.171 264.472 259.244C264.458 259.147 264.495 259.043 264.562 258.974C264.733 258.799 264.855 258.738 265.076 258.845C265.093 258.853 265.104 258.865 265.111 258.878L265.435 258.323C265.613 258.022 265.795 257.718 265.858 257.639C266.235 257.163 266.624 256.691 267.019 256.229C267.688 255.446 268.45 254.674 269.333 254.131C271.266 252.943 273.299 253.615 275.286 254.265C276.487 254.657 277.684 255.062 278.882 255.461L279.006 255.501C279.9 255.788 280.946 256.04 281.345 256.987C281.504 257.362 281.528 257.751 281.454 258.128C289.944 255.969 299.373 256.961 307.658 259.496C307.976 259.594 308.293 259.855 308.36 260.199C309.309 265.069 309.732 270.063 309.303 275.015C308.932 279.291 307.985 283.48 306.201 287.394L306.099 287.615C304.423 291.242 301.765 295.714 297.706 296.851C295.255 297.537 292.544 297.133 290.044 297.007C287.615 296.884 285.132 296.867 282.725 296.485C280.582 296.144 278.704 295.183 277.38 293.44C276.237 291.936 275.636 290.118 275.143 288.31C274.917 288.382 274.693 288.459 274.473 288.545C273.541 288.909 272.753 289.496 272.039 290.187C270.533 291.646 269.365 293.418 267.789 294.81C266.363 296.071 264.737 297.051 262.994 297.805C259.381 299.367 255.505 299.991 251.683 300.818L251.416 300.876C248.539 301.508 245.603 302.283 243.063 303.782C243.014 304.223 242.813 304.638 242.491 304.91C242.939 305.331 243.128 305.997 242.735 306.622C241.635 308.368 239.742 309.361 238.042 310.477L237.931 310.55C236.259 311.659 234.572 312.746 232.871 313.811C229.414 315.977 225.884 318.023 222.304 319.979C216.547 323.126 210.666 326.094 204.679 328.786C205.038 330.555 204.907 332.378 205.177 334.159L205.219 334.413C205.334 335.074 205.178 335.626 204.723 336.058L204.675 336.102L204.676 336.096L204.633 336.136L204.619 336.148L204.624 336.144C204.571 336.192 204.517 336.237 204.462 336.275L204.392 336.32C203.954 336.586 203.389 336.583 202.941 336.348L202.889 336.32L202.803 336.271C202.21 335.929 201.802 335.084 202.048 334.413C202.652 332.763 202.88 331.001 203.438 329.34L202.996 329.538L202.412 329.793C196.1 332.523 189.088 334.823 182.211 332.961C179.172 332.139 176.331 330.398 174.811 327.562C173.315 324.771 173.103 321.53 173.024 318.425C172.926 314.593 173.131 310.703 173.636 306.903C173.975 304.353 174.385 301.755 175.018 299.231C174.693 298.944 174.453 298.532 174.39 298.022C174.092 295.611 174.614 293.105 174.934 290.708C175.247 288.366 175.592 286.029 175.982 283.7C176.77 278.996 177.686 274.301 178.753 269.652C180.65 261.377 183.156 253.25 186.173 245.316L186.437 244.625C189.225 237.374 192.453 230.278 196.947 223.908C199.097 220.86 201.37 218.097 204.408 215.9C207.254 213.843 210.465 212.361 213.778 211.229C217.095 210.096 220.504 209.336 223.973 208.864C227.496 208.384 231.215 208.09 234.502 206.644C234.086 205.899 234.443 204.892 235.143 204.429C237.497 202.873 239.675 200.848 241.785 198.977ZM317.167 266.656C317.266 266.506 317.5 266.601 317.457 266.778C316.311 271.472 315.236 276.176 314.534 280.959C313.267 289.593 313.5 298.339 313.604 307.037L313.609 307.486C313.662 312.171 313.736 316.856 313.891 321.539C313.969 323.906 314.124 326.296 314.04 328.664C313.994 329.949 313.652 331.164 313.53 332.433C313.424 333.543 313.519 334.669 313.572 335.781C313.607 336.52 312.517 336.488 312.443 335.781L312.348 334.866C312.225 333.708 312.073 332.557 311.693 331.449C311.237 330.116 311.018 328.807 310.86 327.407C310.618 325.262 310.51 323.096 310.416 320.937L310.352 319.443C309.962 310.417 309.975 301.349 310.608 292.333L310.654 291.689C311.28 283.167 312.367 273.958 317.167 266.656ZM292.754 212.942C292.455 212.819 292.559 212.367 292.891 212.446L293.493 212.589C297.908 213.647 302.242 214.793 306.362 216.761C310.485 218.731 313.975 221.671 316.749 225.286C322.141 232.314 324.381 240.855 326.15 249.387C328.115 258.869 329.905 268.385 331.888 277.863L332.256 279.629C334.091 288.457 335.823 297.29 337.099 306.222L337.191 306.87C338.478 316.056 339.252 325.559 337.848 334.769C337.57 336.591 334.539 336.137 334.658 334.337C335 329.133 335.245 323.956 335.008 318.741C334.771 313.524 334.282 308.33 333.553 303.159C332.939 298.807 332.025 294.509 331.215 290.192L331.088 289.51C330.411 285.838 329.712 282.17 329.015 278.502L327.973 273.009C326.411 264.785 324.819 256.553 323.02 248.381L322.914 247.9C321.153 240.037 318.558 231.801 313.277 225.557C307.918 219.221 300.247 216.03 292.754 212.942ZM273.282 296.341C273.411 296.053 273.862 296.085 274 296.341C274.543 297.343 274.604 298.622 274.706 299.754L274.717 299.87C274.848 301.251 274.963 302.637 275.034 304.022C275.168 306.651 275.233 309.276 275.224 311.909C275.216 314.606 275.162 317.301 275.016 319.995L274.977 320.716C274.844 323.057 274.621 325.668 273.51 327.715C273.105 328.459 272.006 328.24 271.772 327.488C271.005 325.024 271.399 322.103 271.596 319.58L271.749 317.611C271.9 315.642 272.044 313.673 272.158 311.701C272.315 309.004 272.444 306.305 272.569 303.607C272.609 302.73 272.653 301.854 272.699 300.977L272.77 299.663C272.831 298.563 272.826 297.357 273.282 296.341ZM187.054 299.832L187.393 299.504C188.435 298.484 189.752 296.912 191.293 297.01C191.907 297.049 192.299 297.559 192.171 298.164C191.899 299.456 190.581 300.127 189.632 300.916C188.593 301.78 187.613 302.704 186.636 303.637C185.768 304.464 184.934 305.314 184.12 306.192L183.815 306.522C183.523 306.84 181.445 308.721 181.67 309.209L181.682 309.231C181.745 309.324 181.641 309.452 181.537 309.42C180.639 309.136 180.695 308.367 181.035 307.587C181.687 306.089 182.828 304.703 183.825 303.424C184.82 302.147 185.896 300.959 187.054 299.832ZM276.534 262.264C275.84 260.623 273.283 260.657 271.832 260.756C268.177 261.003 264.223 261.928 260.971 263.637C257.599 265.408 255.328 268.247 253.296 271.386L253.201 271.534C251.22 274.614 249.313 278.26 246.211 280.377C244.632 281.456 242.787 282.442 240.87 282.868C240.739 283.1 240.526 283.283 240.246 283.349L240.116 283.379C239.57 283.5 238.722 283.633 237.99 283.553C237.995 283.912 237.991 284.268 238 284.607C238.026 285.581 238.037 286.558 238.037 287.532C238.037 289.572 237.927 291.617 238.013 293.657C238.088 295.462 238.343 297.348 239.209 298.961C239.844 300.145 240.683 300.928 241.695 301.676C244.185 300.158 247.001 299.232 249.858 298.536C253.314 297.695 256.853 297.134 260.23 295.993C261.855 295.443 263.418 294.725 264.834 293.748C266.337 292.712 267.485 291.309 268.666 289.937L268.85 289.724C270.055 288.341 271.371 287.018 273.074 286.268C274.541 285.623 276.474 285.508 277.757 284.508C278.427 283.985 278.483 283.227 278.554 282.45C277.733 282.567 276.863 282.379 276.044 282.283L275.62 282.233C274.846 282.141 274.09 282.04 273.328 281.843C273.186 281.806 273.186 281.593 273.328 281.556C274.228 281.324 275.121 281.225 276.044 281.116L276.261 281.089C277.097 280.98 277.975 280.814 278.794 280.998C278.941 280.439 279.154 279.904 279.451 279.369C279.87 278.617 280.661 277.765 280.768 276.887C280.8 276.625 280.738 276.315 280.615 276.083L280.572 276.004C280.52 275.911 280.459 275.817 280.369 275.759C280.359 275.771 280.338 275.784 280.292 275.798C279.661 275.997 279.111 275.688 278.819 275.212C277.58 275.366 276.227 275.314 275.064 275.366L273.889 275.423C272.633 275.48 271.321 275.505 270.14 275.252C269.976 275.216 269.926 274.942 270.091 274.871C271.542 274.251 273.301 274.053 274.855 273.814C275.722 273.681 276.596 273.579 277.466 273.462C278.045 273.384 278.66 273.255 279.26 273.224C280.765 271.35 279.954 268.393 277.86 267.586C277.097 267.922 276.411 267.727 275.578 267.655C274.746 267.584 273.912 267.535 273.076 267.539C271.402 267.546 269.629 267.987 267.971 267.797C267.701 267.766 267.451 267.407 267.719 267.188C268.988 266.152 270.806 265.815 272.417 265.594L272.751 265.549C273.291 265.478 273.947 265.375 274.628 265.314C274.782 265.013 275.059 264.786 275.474 264.729C275.597 264.712 275.721 264.703 275.845 264.692L275.843 264.68C276.856 264.631 276.812 262.92 276.534 262.264ZM207.224 294.268C207.206 294.295 207.186 294.322 207.165 294.347L207.133 294.384L207.3 294.317L207.224 294.268ZM294.201 258.597C289.939 258.139 285.672 258.236 281.398 258.359C281.056 259.477 279.866 260.43 278.714 260.466C279.616 261.841 279.71 263.702 279.076 265.16C280.421 265.695 281.579 266.657 282.282 268.027C283.257 269.925 283.129 272.038 282.166 273.792C282.988 274.537 283.474 275.747 283.425 276.887C283.371 278.158 282.613 279.244 281.984 280.297C281.304 281.435 281.281 282.437 281.072 283.712C280.766 285.578 279.509 286.709 277.89 287.416L277.976 287.755C278.393 289.38 278.913 291.094 280.105 292.282C281.639 293.811 284.019 293.797 286.046 293.893L286.144 293.898C288 293.991 289.856 294.1 291.711 294.205L293.103 294.283C295.239 294.4 297.291 294.414 299.035 293.002C301.882 290.695 303.834 286.879 305.069 283.5C307.663 276.408 307.694 268.625 306.503 261.238C302.511 259.951 298.369 259.045 294.201 258.597ZM258.763 270.364L258.794 270.366C259.672 270.466 260.274 271.177 260.489 272.02C260.801 273.245 260.648 274.353 261.398 275.459C262.17 276.597 262.644 277.508 262.756 278.913C262.803 279.491 262.781 280.068 262.91 280.634L263.003 281.03C263.102 281.453 263.184 281.86 263.134 282.314C263.089 282.728 262.888 283.051 262.473 283.184C261.12 283.617 260.075 282.619 259.726 281.358C259.424 280.269 259.827 278.971 259.401 277.948C259.165 277.381 258.73 276.907 258.484 276.336C258.24 275.77 258.118 275.179 258.079 274.564C258.005 273.401 259.033 272.003 258.46 270.949C258.337 270.724 258.476 270.357 258.763 270.364ZM240.794 258.359C241.71 258.173 242.749 257.746 243.653 258.101C244.117 258.284 244.347 258.85 243.954 259.244C243.273 259.927 242.283 259.965 241.366 260.126L241.285 260.14C240.2 260.341 239.113 260.532 238.025 260.712C235.978 261.051 233.925 261.351 231.866 261.606C229.751 261.868 227.63 262.101 225.506 262.277L224.683 262.344C222.889 262.488 221.022 262.596 219.262 262.321C219.006 262.281 219.047 261.908 219.262 261.843C221.19 261.259 223.306 261.103 225.3 260.855C227.42 260.592 229.536 260.314 231.647 259.985C233.754 259.655 235.859 259.302 237.955 258.911C238.903 258.735 239.849 258.551 240.794 258.359ZM273.848 256.484C273.044 256.199 272.16 255.778 271.289 255.919C269.786 256.162 268.45 257.626 267.26 258.59L267.858 258.474C270.912 257.887 274.958 257.254 277.522 259.197C277.529 259.186 277.534 259.175 277.541 259.164C277.748 258.849 277.988 258.604 278.25 258.335C278.275 258.311 278.299 258.287 278.323 258.262L278.464 258.112L278.141 258C277.449 257.755 276.629 257.439 276.5 257.393L276.491 257.39C275.609 257.091 274.726 256.795 273.848 256.484ZM248.749 192.429C248.623 190.812 251.14 190.825 251.264 192.429C251.536 195.931 250.748 199.4 249.053 202.471C249.04 202.493 249.027 202.513 249.013 202.534C250.074 203.086 251.147 203.616 252.243 204.089C253.646 204.695 255.075 205.246 256.529 205.714C257.845 206.138 259.466 206.305 260.572 207.186C262.905 209.045 262.029 212.901 261.58 215.401L261.51 215.795C261.286 217.081 261.125 218.401 261.667 219.636C262.246 220.954 263.416 221.932 264.461 222.876L264.672 223.067C265.597 223.91 266.654 224.935 267.332 226.078C267.952 224.797 268.796 223.75 269.689 222.571C270.326 221.73 269.873 221.452 269.415 220.631C268.975 219.84 268.76 218.997 268.897 218.094C269.151 216.428 270.483 215.225 271.808 214.32C273.373 213.253 275.119 212.462 276.737 211.469C280.061 209.428 283.298 207.095 286.215 204.504C286.295 204.433 286.435 204.527 286.37 204.624C284.066 208.13 281.365 211.159 278.045 213.731C276.699 214.773 275.284 215.638 273.861 216.547L273.451 216.81C272.88 217.18 272.167 217.676 271.908 218.306C271.648 218.94 272.203 219.419 272.501 219.945C273.449 221.613 272.992 223.17 271.868 224.585L271.816 224.65C270.699 226.027 269.853 227.307 269.448 229.066C268.578 232.845 269.79 236.78 271.058 240.327L271.108 240.467C271.794 242.379 272.523 244.277 273.119 246.219L273.283 246.756C273.823 248.544 274.265 250.306 273.659 252.144C273.453 252.769 272.601 252.917 272.247 252.328C270.999 250.254 270.688 247.758 269.905 245.478C269.143 243.255 268.267 241.073 267.53 238.841C266.582 235.968 265.947 232.875 266.291 229.861C266.281 229.843 266.27 229.827 266.262 229.808L266.02 229.28C265.362 227.849 264.726 226.6 263.528 225.459C262.279 224.269 260.923 223.216 259.941 221.776C257.806 218.648 259.126 215.168 259.384 211.748L259.413 211.328C259.46 210.618 259.486 209.653 259.022 209.161C258.501 208.608 257.277 208.467 256.585 208.222C254.797 207.589 253.034 206.851 251.355 205.965C249.757 205.122 248.209 204.19 246.768 203.099L246.038 202.549C244.885 201.679 243.69 200.729 242.917 199.544C242.828 199.408 242.98 199.188 243.141 199.253C244.431 199.777 245.609 200.61 246.815 201.334C246.834 201.29 246.856 201.245 246.881 201.201C248.373 198.498 248.987 195.503 248.749 192.429ZM289.943 210.947C290.456 209.537 292.798 209.646 292.705 211.321C292.633 212.608 292.087 213.769 291.588 214.937L291.534 215.062C291.019 216.279 290.424 217.422 289.711 218.538C288.35 220.67 286.756 222.649 285.053 224.517C283.509 226.21 281.482 227.246 279.147 227.074C278.163 227.001 277.17 226.751 276.308 226.259C275.284 225.675 274.172 223.921 272.865 224.346C272.739 224.387 272.621 224.202 272.73 224.114C274.238 222.899 275.95 224.783 277.394 225.237C279.57 225.921 281.803 225.165 283.204 223.405C284.666 221.568 286.012 219.511 287.24 217.51C287.865 216.494 288.434 215.44 288.926 214.354C289.422 213.257 289.535 212.065 289.943 210.947ZM286.435 202.273C286.372 202.078 286.614 201.893 286.784 202.004C287.776 202.649 288.634 203.502 289.548 204.25C290.563 205.079 291.584 205.892 292.622 206.692C294.134 207.858 292.38 210.005 291.049 208.731C289.227 206.988 287.231 204.709 286.435 202.273ZM280.994 195.45C281.397 193.897 283.778 194.538 283.431 196.073L283.42 196.119C282.762 198.655 283.698 201.236 285.697 202.88L285.77 202.94C287.035 203.952 285.243 205.721 283.992 204.719C281.259 202.531 280.122 198.814 280.994 195.45Z" fill="#221E1F"/>
<path fill-rule="evenodd" clip-rule="evenodd" d="M306.071 133.866C301.908 108.678 270.121 104.136 249.407 109.438C249.025 104.593 245.974 100.312 242.167 97.4958C225.993 85.8527 206.845 105.62 210.678 122.657C211.366 127.818 215.49 133.707 221.26 132.824C214.007 146.555 211.173 174.242 227.153 182.801C228.694 183.899 228.95 186.128 230.137 187.557C232.063 189.862 240.292 192.799 244.744 190.445C246.143 191.731 247.756 192.982 249.643 193.427C259.391 201.233 273.636 202.994 285.505 199.773C292.818 198.532 300.399 195.232 304.161 188.49C307.349 183.358 305.88 177.346 304.418 171.915C303.787 168.927 303.376 165.916 303.123 162.879C303.641 162.273 303.67 161.433 303.799 160.667C304.361 157.953 305.587 155.434 306.201 152.728C307.573 146.585 307.335 140.022 306.071 133.866Z" fill="white"/>
<path fill-rule="evenodd" clip-rule="evenodd" d="M305.737 146.694C305.497 149.731 304.21 152.464 303.133 155.294C303.251 153.619 303.195 151.877 303.313 150.138C302.06 139.248 287.257 136.387 281.51 128.153C281.728 127.688 281.806 123.531 280.949 124.7C277.626 139.25 257.87 146.55 244.344 146.578C243.321 145.735 241.292 146.626 241.675 148.307C243.698 157.178 244.141 166.457 242.842 175.471C242.23 178.653 242.127 182.483 240.218 185.225C238.192 187.153 240.628 187.308 241.968 186.873C242.342 187.398 242.736 187.909 243.132 188.417C241.207 189.748 238.397 189.022 236.404 188.136C234.188 186.963 232.92 184.688 231.314 182.864C230.437 181.099 229.107 180.084 227.397 179.127C217.884 172.659 218.129 158.47 219.495 148.215C223.475 117.699 257.331 102.975 284.503 113.576C299.177 117.33 306.052 132.508 305.737 146.694ZM217.237 129.417C211.434 123.636 212.602 113.529 216.25 106.865C223.559 92.9394 244.32 93.3918 246.806 110.271C236.219 113.899 227.285 121.679 221.966 131.503C220.235 131.318 218.56 130.546 217.237 129.417ZM306.071 133.87C301.908 108.682 270.121 104.141 249.407 109.443C249.026 104.598 245.974 100.317 242.167 97.5003C225.993 85.8575 206.845 105.625 210.678 122.662C211.366 127.822 215.49 133.712 221.26 132.829C214.007 146.559 211.173 174.247 227.153 182.806C228.694 183.904 228.95 186.133 230.137 187.562C232.063 189.867 240.292 192.804 244.744 190.45C245.802 191.749 251.81 195.7 251.372 191.827C250.93 190.784 249.565 190.512 248.655 189.996C246.744 188.94 245.084 187.453 243.779 185.706C247.877 174.147 247.564 161.278 245.269 149.376C258.987 148.686 275.128 142.671 281.178 129.463C285.269 139.075 297.953 140.312 301.157 151.059C301.35 156.704 300.14 162.264 301.017 167.912C301.275 173.443 304.198 178.938 302.508 184.433C297.787 196.416 280.792 198.175 269.564 197.674C266.897 197.453 264.683 196.012 262.491 194.643C261.177 194.019 259.612 195.324 260.418 196.717C263.492 201.008 269.815 201.384 274.67 201.229C287.271 200.481 305.481 196.757 306.135 181.192C305.72 175.021 303.299 169.116 303.123 162.884C303.641 162.278 303.67 161.437 303.799 160.672C304.361 157.957 305.587 155.439 306.201 152.733C307.573 146.59 307.335 140.026 306.071 133.87Z" fill="#221E1F"/>
<path fill-rule="evenodd" clip-rule="evenodd" d="M280.025 182.963C278.605 182.384 277.337 181.417 276.411 180.182C276.089 179.752 276.005 179.299 276.073 178.884C276.149 178.418 276.425 177.995 276.801 177.712C277.178 177.428 277.65 177.287 278.106 177.359C278.502 177.421 278.897 177.638 279.209 178.088L279.274 178.178C279.825 178.924 280.543 179.535 281.361 179.93C282.149 180.31 283.03 180.487 283.943 180.384C285.68 180.188 286.878 179.248 288.151 177.971C288.308 177.81 288.466 177.644 288.625 177.475C288.725 177.322 288.864 177.223 289.018 177.172C289.19 177.114 289.384 177.118 289.561 177.18C289.733 177.239 289.886 177.353 289.988 177.504C290.086 177.647 290.141 177.824 290.123 178.028C290.007 179.35 289.315 180.531 288.333 181.458C287.243 182.488 285.797 183.2 284.436 183.45C282.936 183.725 281.408 183.528 280.025 182.963ZM285.143 162.555C286.739 163.525 289.169 165.787 287.453 168.192C285.433 170.313 282.524 167.882 281.091 166.782C279.762 165.93 278.269 168.122 279.502 169.117C289.859 176.788 294.062 162.809 285.95 161.415C285.057 161.261 284.725 162.255 285.143 162.555ZM266.583 153.632C266.759 151.443 270.092 150.946 270.423 153.112C270.72 155.052 270.37 156.834 269.497 158.581C268.662 160.25 266.564 159.472 266.405 157.952C266.193 155.915 266.473 154.993 266.583 153.632ZM291.949 152.663C292.413 152.054 293.084 151.638 293.888 151.873C296.399 152.607 295.659 156.174 294.777 157.909C294.298 158.852 292.749 159.091 292.049 158.261C290.908 156.908 290.362 154.204 291.812 152.871C291.851 152.802 291.895 152.733 291.949 152.663ZM269.462 144.054L269.858 143.985C271.085 143.772 272.611 143.568 273.479 144.555C273.939 145.079 274.098 146.051 273.479 146.552C272.39 147.433 271.187 147.092 269.883 147.167C268.808 147.228 267.775 147.406 266.739 147.702C264.468 148.352 262.617 149.537 260.677 150.839C260.422 151.01 260.162 150.684 260.284 150.446C261.404 148.252 263.574 146.449 265.748 145.35C266.908 144.764 268.178 144.277 269.462 144.054ZM289.66 143.071L289.963 143.133C293.267 143.824 297.559 145.204 299.124 148.45C299.183 148.909 299.12 149.008 299.069 149.072L299.052 149.093C299.01 149.148 298.976 149.224 298.777 149.286C298.722 149.273 298.666 149.259 298.61 149.245C297.893 149.057 297.326 148.798 296.776 148.529L296.181 148.235C295.49 147.896 294.793 147.57 294.054 147.329C292.477 146.814 290.856 146.452 289.209 146.258C288.852 146.217 288.509 146.096 288.237 145.889C287.98 145.693 287.784 145.422 287.694 145.061C287.578 144.594 287.611 144.241 287.861 143.82C288.05 143.503 288.319 143.284 288.629 143.158C288.944 143.03 289.303 143 289.66 143.071Z" fill="#221E1F"/>
<path fill-rule="evenodd" clip-rule="evenodd" d="M304.051 163.842C301.486 166.494 297.205 167.255 293.792 165.833C285.029 162.17 289.318 150.747 296.076 147.679C296.92 147.468 298.048 146.969 299.076 146.856C299.169 146.81 299.371 146.942 299.617 146.817C307.068 147.649 308.765 159.221 304.051 163.842ZM275.788 164.521C272.912 168.338 267.563 169.516 263.193 167.741C254.56 164.34 257.622 154.21 263.529 150.239C276.006 145.549 281.158 157.483 275.788 164.521ZM257.074 156.063C257.066 156.059 257.058 156.058 257.05 156.054C257.095 156.034 257.141 156.014 257.186 155.993C257.172 156.032 257.155 156.07 257.141 156.109C257.119 156.093 257.099 156.075 257.074 156.063ZM309.99 151.937C309.286 151.938 308.268 152.054 307.685 152.543C306.247 147.692 300.94 143.202 296.324 146.476C292.689 147.645 289.992 150.239 288.459 153.687C285.695 152.042 281.349 152.744 278.952 154.92C277.382 149.731 273.519 147.914 268.921 147.645C263.902 146.823 258.9 151.699 257.339 155.611C256.041 155.463 254.102 155.05 252.881 155.851C244.957 153.772 231.103 152.626 229.492 153.781C228.344 154.222 227.714 156.933 229.318 157.079C230.715 156.88 229.154 155.093 230.563 154.898C238.068 154.432 245.353 155.944 252.779 156.579C253.442 157.471 255.584 157.769 256.727 157.411C254.927 164.046 258.812 168.561 264.633 169.913C273.648 171.984 281.49 163.918 279.133 155.527C281.864 154.168 285.005 154.226 287.979 154.942C283.008 173.243 312.471 172.422 307.87 153.17C310.932 154.694 311.597 152.244 309.99 151.937Z" fill="#221E1F"/>
<path fill-rule="evenodd" clip-rule="evenodd" d="M95.2059 360.479C97.735 360.636 100.264 360.759 102.793 360.854C135.862 362.086 168.906 358.315 201.955 357.49C213.464 357.187 224.914 357.338 236.394 358.262C237.519 358.353 238.805 357.142 238.667 355.989C236.546 337.674 233.893 319.409 232.518 301.019C232.517 300.046 232.642 299.075 232.976 298.159C233.039 298.087 233.366 297.281 233.656 297.231C233.561 297.302 233.991 297.178 233.718 297.199C235.377 296.927 237.005 295.135 235.801 293.42C223.393 274.395 206.454 257.03 201.005 234.433C199.717 228.324 195.067 227.946 190.113 225.426C188.567 224.506 184.787 221.959 184.172 220.188C182.703 213.804 185.29 207.551 177.731 204.968C172.74 203.584 163.919 202.412 158.87 203.872C152.71 205.923 153.171 212.867 149.598 217.644C147.751 220.407 144.601 224.19 141.692 224.614C140.282 224.819 139.244 221.966 137.836 222.162C115.895 227.493 86.002 263.859 76.5719 283.99C74.4467 290.326 81.3004 288.415 80.8793 294.783C80.3603 306.864 79.225 322.329 79.8983 334.425C80.5289 341.445 80.0622 348.801 82.2436 355.557C81.6564 356.27 82.5 356.99 83.1883 357.3C84.0556 358.776 92.5891 360.275 95.2059 360.479Z" fill="white"/>
<path fill-rule="evenodd" clip-rule="evenodd" d="M152.328 210.035C152.898 207.468 156.982 208.569 156.283 211.126C155.199 215.08 152.951 218.817 149.778 221.44C147.327 223.465 143.987 225.272 140.674 225.605C140.985 225.908 141.283 226.231 141.596 226.54C142.301 227.241 143.051 227.892 143.824 228.518C145.413 229.803 147.065 230.959 148.87 231.927C156.076 235.795 164.216 236.687 172.265 235.786C176.085 235.359 179.962 234.635 183.553 233.237C185.218 232.591 186.836 231.741 188.265 230.667L188.639 230.387C189.39 229.819 190.392 229.019 190.861 228.144C189.433 228.465 187.627 226.943 186.636 226.058C185.552 225.086 184.639 223.832 183.965 222.547C182.645 220.026 181.946 216.773 183.053 214.07C183.127 213.89 183.363 213.92 183.384 214.115C183.712 217.266 184.561 220.22 186.822 222.554C187.825 223.587 189.027 224.454 190.339 225.056L190.524 225.141C191.083 225.399 191.671 225.703 191.907 226.256C191.998 226.246 192.089 226.254 192.175 226.278C192.253 226.299 192.325 226.322 192.395 226.347C192.239 226.041 192.156 225.68 192.171 225.252C192.226 223.598 194.497 223.547 194.812 225.02C194.755 224.826 194.679 225.014 194.822 225.073C194.82 225.056 194.816 225.037 194.812 225.02L194.816 225.036L194.825 225.073H194.822C194.828 225.1 194.833 225.127 194.836 225.155L194.839 225.192L194.837 225.161C194.835 225.139 194.832 225.118 194.829 225.1L194.824 225.073C194.846 225.083 194.875 225.09 194.909 225.09L194.923 225.095C194.976 225.118 195.163 225.205 195.218 225.227C195.596 225.367 196.018 225.411 196.405 225.531C197.244 225.79 197.983 226.216 198.494 226.943C198.862 227.466 199.067 228.064 199.151 228.685C202.863 230.471 206.377 232.791 209.32 235.664C215.888 242.072 220.468 250.092 224.227 258.395C226.14 262.621 227.844 266.937 229.512 271.265L229.775 271.948C231.562 276.6 233.142 281.303 233.531 286.303C233.567 286.751 233.419 287.172 233.163 287.521C233.254 287.897 233.301 288.273 233.288 288.641C233.286 288.698 233.282 288.755 233.277 288.812C233.877 288.801 234.465 289.053 235.022 289.759C235.248 289.687 235.494 289.678 235.734 289.757C237.203 290.226 237.439 291.839 237.716 293.189C238.001 294.584 238.126 296.013 238.128 297.435C238.128 297.945 237.836 298.587 237.342 298.805C236.413 299.215 235.411 299.483 234.45 299.855C233.727 300.134 233.003 300.398 232.272 300.646C232.677 301.353 232.808 302.338 233.028 303.085C233.372 304.249 233.649 305.418 233.882 306.61C235.458 314.715 236.55 322.907 238.025 331.029C238.762 335.098 239.62 339.139 240.494 343.18C240.925 345.166 241.384 347.149 241.876 349.123C242.138 350.175 242.41 351.228 242.691 352.274C242.773 352.58 242.856 352.885 242.939 353.189L243.086 353.722C243.408 353.899 243.682 354.168 243.872 354.535C244.568 355.88 244.168 357.395 242.835 358.152C241.386 358.976 239.656 358.198 238.857 356.86C238.295 355.916 238.111 354.665 237.834 353.614C237.522 352.435 237.224 351.249 236.936 350.063C234.985 342.008 233.677 333.812 232.692 325.585L232.622 324.997C232.122 320.762 231.638 316.516 231.325 312.261C231.171 310.171 231.048 308.081 230.972 305.986C230.934 304.908 230.996 303.824 231.057 302.748C231.084 302.277 231.125 301.804 231.139 301.332L231.144 301.265C231.148 301.218 231.153 301.155 231.158 301.089L231.163 301.009C229.705 301.466 228.226 301.846 226.732 302.167C223.555 302.854 220.303 303.237 217.06 303.042C217.513 308.415 218.102 313.774 218.926 319.098C219.72 324.226 220.637 329.342 221.672 334.428C222.19 336.983 222.75 339.532 223.339 342.072C223.656 343.429 224.017 344.777 224.303 346.141C224.472 346.952 224.525 347.631 224.184 348.39C224.559 349.41 224.892 350.435 225.219 351.401L225.317 351.689C225.896 353.38 226.994 355.108 225.847 356.77C225.254 357.628 224.286 358.118 223.312 358.148C223.295 358.158 223.276 358.171 223.257 358.181C222.733 358.462 222.129 358.517 221.554 358.397C220.682 358.568 219.807 358.733 218.93 358.883C216.765 359.257 214.589 359.566 212.408 359.826C208.257 360.32 204.078 360.591 199.901 360.741C184.61 361.292 169.301 360.324 154.004 360.603C146.21 360.745 138.416 361.096 130.635 361.561C126.752 361.793 122.867 362.043 118.981 362.235L117.779 362.294C114.304 362.46 110.827 362.588 107.355 362.334C107.288 362.33 107.235 362.303 107.199 362.265C106.001 362.129 104.797 361.026 104.917 359.752C105.435 354.324 105.953 348.897 106.472 343.467C107.396 333.794 108.327 324.12 109.269 314.449L109.406 313.052C109.722 309.794 110.025 306.527 110.178 303.256C109.405 303.201 108.634 303.131 107.862 303.046C99.5057 302.131 91.4944 299.602 83.8023 296.281L83.4907 296.146C82.7977 295.843 82.0392 295.541 81.2618 295.218C81.2747 296.695 81.2259 298.175 81.2195 299.637C81.209 302.066 81.228 304.494 81.2343 306.92C81.2491 311.921 81.4392 316.924 81.6885 321.916C82.1259 330.733 82.6392 339.538 83.4167 348.334C83.6132 350.547 83.8796 352.756 84.0674 354.969C84.1796 356.273 83.9111 357.359 82.7176 358.044C82.1301 358.382 81.6759 358.241 81.0928 357.968C79.6688 357.3 79.6287 355.721 79.4935 354.348C79.3902 353.312 79.2949 352.276 79.2019 351.239C79.0035 349.026 78.8322 346.813 78.6928 344.596C78.1416 335.787 77.9808 326.986 78.3611 318.166C78.5376 314.041 78.7925 309.907 79.1308 305.789L79.2104 304.839C79.4892 301.548 79.6688 298.095 80.2456 294.783C77.9195 293.751 75.6146 292.439 74.5456 290.257C73.1599 287.425 74.6829 285.004 76.8526 283.336C76.8315 283.055 76.8526 282.776 76.9118 282.522C77.535 279.823 78.5787 277.156 79.5864 274.582C80.6026 271.995 81.7245 269.448 82.9583 266.956C87.9104 256.974 94.6752 247.852 102.739 240.167C106.745 236.351 111.129 232.823 115.808 229.864C118.128 228.4 120.507 227.047 122.97 225.842L123.334 225.665C125.049 224.832 126.973 223.947 128.88 223.484C129.078 223.336 129.279 223.196 129.481 223.063C130.231 222.564 131.25 222.926 131.693 223.638C131.909 223.471 132.158 223.323 132.443 223.19L132.725 223.061C134.436 222.29 136.491 221.57 138.348 222.076C139.502 222.391 140.41 223.241 140.818 224.323C141.754 223.828 142.673 223.319 143.571 222.695C145.014 221.698 146.322 220.459 147.496 219.159C149.852 216.545 151.563 213.483 152.328 210.035ZM234.065 292.462C233.904 292.509 233.735 292.526 233.56 292.504C233.877 292.541 233.242 292.729 233.068 292.819L233.055 292.826C232.738 293.007 232.419 293.183 232.096 293.352C231.342 293.749 230.571 294.106 229.787 294.442C228.242 295.1 226.647 295.605 225.01 295.975C223.409 296.336 221.729 296.547 220.087 296.581C218.989 296.602 217.685 296.552 216.549 296.228C216.68 298.221 216.825 300.212 216.988 302.201L219.233 301.686C221.478 301.171 223.72 300.643 225.935 300.001C227.598 299.519 229.237 298.955 230.858 298.346C231.707 298.027 232.55 297.689 233.383 297.325C233.797 297.144 234.185 296.929 234.569 296.711L234.897 296.524C234.821 295.634 234.682 294.762 234.479 293.882C234.374 293.417 234.194 292.94 234.065 292.462ZM80.3512 283.076C80.066 284.002 79.6286 284.866 78.6315 285.075C78.2786 285.149 77.9831 285.109 77.7378 284.989L77.679 285.107C76.8591 286.791 76.6183 288.568 78.5047 289.865C79.3563 290.45 80.2836 290.957 81.2427 291.411C82.958 292.228 84.7846 292.884 86.5068 293.552L86.8498 293.686C89.9301 294.895 93.0589 295.996 96.2364 296.917C99.4605 297.849 102.741 298.597 106.063 299.073C107.463 299.272 108.874 299.411 110.288 299.502C110.311 297.6 110.3 295.696 110.294 293.794C109.791 293.73 109.293 293.662 108.811 293.605C107.345 293.434 105.883 293.225 104.429 292.965C101.393 292.422 98.3892 291.672 95.4589 290.712C90.0293 288.93 84.9779 286.383 80.3512 283.076ZM139.88 224.811C138.646 223.505 136.287 223.976 134.797 224.61C134.347 224.802 133.893 224.997 133.462 225.231L133.378 225.278C132.876 225.567 132.879 225.739 133.124 226.316C133.443 227.074 133.887 227.808 134.309 228.511C136.118 231.532 138.499 234.161 141.218 236.382C150.847 244.244 164.681 247.017 176.723 244.384C182.503 243.122 188.078 240.573 192.332 236.393L192.72 236.008C194.435 234.29 196.79 231.805 196.625 229.26C196.546 228.036 195.547 227.966 194.527 227.73C194.109 227.632 193.709 227.495 193.363 227.301C193.642 228.503 192.157 230.291 191.389 231.042C189.782 232.616 187.846 233.846 185.799 234.766C181.903 236.518 177.666 237.346 173.446 237.87C168.659 238.466 163.768 238.413 159.017 237.532C154.882 236.765 150.807 235.313 147.249 233.051C145.618 232.016 144.011 230.834 142.65 229.458L142.361 229.166C141.379 228.171 140.236 226.967 139.648 225.661C139.424 225.663 139.202 225.656 138.98 225.641C138.824 225.633 138.74 225.411 138.896 225.328C139.071 225.236 139.246 225.143 139.422 225.052C139.392 224.954 139.367 224.86 139.346 224.762C139.329 224.68 139.415 224.604 139.491 224.65C139.597 224.713 139.699 224.781 139.798 224.853C139.825 224.84 139.853 224.826 139.88 224.811Z" fill="#221E1F"/>
<path fill-rule="evenodd" clip-rule="evenodd" d="M200.887 147.215C188.183 138.803 162.732 139.717 148.747 144.871C135.102 149.2 130.325 161.263 128.059 174.295C125.305 188.942 125.675 210.057 145.478 209.801C148.262 211.148 151.347 211.732 154.227 212.848C158.17 214.211 162.036 215.794 166.036 216.989C173.916 219.528 182.685 219.307 190.16 215.592C194.289 213.596 195.999 210.488 198.699 207.177C206.556 197.542 210.51 183.754 210.156 171.504C209.535 162.877 208.108 152.891 200.887 147.215Z" fill="white"/>
<path fill-rule="evenodd" clip-rule="evenodd" d="M216.962 182.724C215.659 174.63 215.298 166.397 213.591 158.366C211.985 150.808 208.983 143.667 203.737 137.905C199.043 132.75 192.973 128.965 186.458 126.566C173.765 121.893 159.166 122.95 146.887 128.405C135.394 133.509 126.227 142.952 120.884 154.285C117.413 161.648 115.668 169.477 114.893 177.557C114.033 186.533 113.94 195.602 113.589 204.61C113.547 205.721 113.486 206.833 113.471 207.945C113.454 209.162 113.946 210.229 114.348 211.362C114.375 211.442 114.415 211.519 114.464 211.591C114.162 211.628 113.86 211.673 113.558 211.721C113.22 211.774 113.234 212.324 113.558 212.389C116.294 212.947 119.106 213.026 121.888 213.163C124.772 213.307 127.66 213.385 130.548 213.482C133.364 213.577 136.18 213.672 138.996 213.767C140.475 213.818 141.954 213.869 143.433 213.917C144.136 213.941 144.84 213.966 145.546 213.989C145.896 214.002 146.249 214.012 146.6 214.025C146.885 214.034 147.35 214.215 147.379 214.006C147.432 214.038 147.489 214.065 147.551 214.084C147.618 214.12 147.684 214.163 147.747 214.209C148.091 214.446 148.613 214.416 148.962 214.209C148.993 214.19 149.027 214.169 149.061 214.148C149.321 213.993 149.503 213.769 149.604 213.516C151.049 215.262 153.608 213.3 152.129 211.453C151.334 210.46 143.433 186.106 146.703 167.553L159.819 165.816C162.217 165.573 166.679 165.089 166.679 165.089C166.679 165.089 167.771 161.524 168.084 160.376C168.107 160.292 168.13 160.205 168.155 160.12C168.468 160.672 168.783 161.221 169.1 161.771L170.718 165.062C170.718 165.062 194.604 164.662 200.46 164.7C200.56 164.7 201.031 171.823 200.817 174.959C200.386 181.257 199.928 187.551 199.29 193.833C198.883 197.855 197.901 201.799 196.439 205.506C194.129 211.362 187.423 216.928 180.884 216.928C176.814 216.928 167.617 213.63 166.277 212.964C164.938 212.298 164.14 214.116 165.36 214.843C167.833 216.316 174.649 219.44 180.884 219.44C189.94 219.44 196.776 210.844 197.615 209.612C205.86 209.16 214.294 209.369 222.529 210.187C223.22 210.255 223.816 209.422 223.594 208.786C220.636 200.317 218.386 191.582 216.962 182.724Z" fill="#221E1F"/>
<path fill-rule="evenodd" clip-rule="evenodd" d="M183.152 203.274C181.732 202.695 180.464 201.728 179.538 200.493C179.216 200.063 179.132 199.61 179.2 199.195C179.276 198.729 179.552 198.306 179.928 198.023C180.305 197.739 180.777 197.598 181.233 197.67C181.629 197.732 182.024 197.949 182.336 198.399L182.401 198.489C182.952 199.235 183.67 199.846 184.488 200.241C185.276 200.621 186.157 200.798 187.07 200.695C188.807 200.499 190.005 199.559 191.278 198.282C191.435 198.121 191.593 197.955 191.752 197.786C191.852 197.633 191.991 197.534 192.145 197.483C192.317 197.425 192.511 197.429 192.688 197.491C192.86 197.55 193.013 197.664 193.115 197.815C193.213 197.958 193.268 198.135 193.25 198.339C193.134 199.661 192.442 200.842 191.46 201.769C190.37 202.799 188.924 203.511 187.563 203.761C186.063 204.036 184.535 203.839 183.152 203.274ZM188.27 182.866C189.866 183.836 192.296 186.098 190.58 188.503C188.56 190.624 185.651 188.193 184.218 187.093C182.889 186.241 181.396 188.433 182.629 189.428C192.986 197.099 197.189 183.12 189.077 181.726C188.184 181.572 187.852 182.566 188.27 182.866ZM169.71 173.943C169.886 171.754 173.219 171.257 173.55 173.423C173.847 175.363 173.497 177.145 172.624 178.892C171.789 180.561 169.691 179.783 169.532 178.263C169.32 176.226 169.6 175.304 169.71 173.943ZM195.076 172.974C195.54 172.365 196.211 171.95 197.015 172.184C199.526 172.918 198.786 176.485 197.904 178.22C197.425 179.163 195.876 179.402 195.176 178.572C194.035 177.219 193.489 174.516 194.939 173.182C194.978 173.114 195.022 173.044 195.076 172.974ZM172.589 164.365L172.985 164.296C174.212 164.084 175.738 163.88 176.606 164.866C177.066 165.39 177.225 166.362 176.606 166.863C175.517 167.745 174.314 167.403 173.01 167.478C171.935 167.539 170.902 167.717 169.866 168.013C167.595 168.663 165.744 169.849 163.804 171.151C163.549 171.321 163.289 170.996 163.411 170.757C164.531 168.563 166.701 166.76 168.875 165.662C170.035 165.075 171.305 164.588 172.589 164.365ZM192.787 163.382L193.09 163.445C196.394 164.135 200.686 165.515 202.251 168.761C202.31 169.22 202.247 169.319 202.196 169.383L202.179 169.405C202.137 169.459 202.103 169.535 201.904 169.598C201.849 169.584 201.793 169.57 201.737 169.556C201.02 169.368 200.453 169.109 199.903 168.84L199.308 168.546C198.617 168.208 197.92 167.881 197.181 167.64C195.604 167.125 193.983 166.763 192.336 166.57C191.979 166.528 191.636 166.407 191.364 166.201C191.107 166.005 190.911 165.733 190.821 165.372C190.705 164.906 190.738 164.552 190.988 164.131C191.177 163.815 191.446 163.595 191.756 163.469C192.071 163.341 192.43 163.311 192.787 163.382Z" fill="#221E1F"/>
<path fill-rule="evenodd" clip-rule="evenodd" d="M212.804 166.775C212.63 166.746 212.456 166.719 212.282 166.693C212.146 166.616 211.986 166.557 211.801 166.521C211.377 166.413 210.957 166.341 210.537 166.302C204.509 164.945 190.564 166.872 189.988 172.017C188.069 172.659 186.408 172.084 184.183 172.142C182.489 165.06 153.211 166.06 151.803 170.329C151.798 170.328 151.792 170.326 151.787 170.324C150.434 169.906 148.439 170.007 146.891 169.94C143.584 169.871 140.274 170.166 137.039 170.864C130.981 171.827 122.713 172.954 126.926 180.522C126.927 180.523 126.928 180.525 126.929 180.526H126.929C127.655 181.27 128.888 180.671 128.934 179.663C127.517 176.077 130.716 175.647 133.178 174.616C139.303 172.415 145.54 172.11 151.875 172.791C152.351 173.352 153.074 173.842 153.839 174.098C158.074 174.801 155.842 177.944 158.52 178.401C158.028 189.358 171.325 195.339 179.03 188.136C182.106 185.128 182.84 180.671 183.553 176.653C183.93 176.568 184.17 176.362 184.31 176.089C185.217 175.183 185.786 174.346 187.58 174.098C189.373 173.849 190.754 174.348 190.941 174.501C190.988 174.596 191.038 174.691 191.097 174.786C191.179 174.928 191.291 175.041 191.417 175.13C189.646 186.041 198.113 192.941 206.661 187.282C210.375 183.787 211.16 178.436 211.315 173.66C211.818 173.356 212.137 172.767 211.963 172.026C211.723 171.005 212.286 170.122 213.183 169.678C214.349 169.101 214.142 166.997 212.804 166.775ZM176.075 171.951C175.014 171.718 174.561 173.354 175.625 173.588C176.379 173.754 177.018 174.134 177.449 174.778L177.495 174.848C178.074 175.77 179.538 174.919 178.955 173.991C178.299 172.947 177.28 172.216 176.075 171.951ZM207.15 170.936C206.776 170.673 206.21 170.868 205.993 171.241C205.754 171.651 205.91 172.108 206.261 172.376L206.296 172.402C206.618 172.629 206.931 173.035 206.97 173.451L206.973 173.503C207.015 174.592 208.707 174.597 208.665 173.503C208.624 172.432 208.004 171.538 207.15 170.936Z" fill="#221E1F"/>
</svg>
