<svg width="343" height="353" viewBox="0 0 343 353" fill="none" xmlns="http://www.w3.org/2000/svg">
<path fill-rule="evenodd" clip-rule="evenodd" d="M100.544 245.148C113.48 245.51 125.7 245.91 138.612 245.148C159.272 243.869 219.906 246.174 233.234 245.148C234.239 245.07 237.698 246.174 237.77 245.148C238.356 238.003 238.736 165.713 236.996 160.739C235.255 155.765 226.663 131.854 215.715 120.704C212.663 117.692 208.017 116.525 205.451 113.045C203.239 109.249 203.411 107.021 201.226 105.024C200.278 104.157 198.041 103.806 196.38 102.603C194.709 100.942 196.291 97.2863 195.605 94.9733C194.192 89.1973 188.985 85.4923 183.293 84.6193C175.383 82.7263 167.032 84.5163 163.243 90.7323C161.833 93.0463 162.583 95.8583 160.849 99.5663C160.973 102.367 157.703 103.044 155.748 104.155L151.867 108.079C139.91 114.809 125.843 118.444 115.365 127.487C106.458 136.527 97.5974 146.976 93.6451 159.206C92.8268 162.539 92.5598 165.984 92.2207 169.389C91.2527 179.341 88.5571 189.001 86.2374 198.695C83.5923 210.908 81.1267 223.874 84.6916 236.203C85.7194 238.813 98.204 245.026 100.544 245.148Z" fill="white"/>
<path fill-rule="evenodd" clip-rule="evenodd" d="M162.559 91.7273C162.661 91.3893 163.107 91.4843 163.141 91.8053C163.477 94.9923 163.056 98.3233 162.65 101.489C162.456 103.017 162.342 104.607 162.048 106.113C162.009 106.274 161.973 106.437 161.939 106.598C162.036 106.771 162.325 106.965 162.462 107.098L163.057 107.678L164.253 108.836C166.591 111.101 168.931 113.369 171.27 115.635L174.702 118.964C175.88 120.105 177.216 121.198 178.249 122.47C178.809 123.161 178.935 124.008 178.384 124.748C178.111 125.114 177.622 125.38 177.125 125.435C177.319 125.706 177.469 126.012 177.564 126.352C177.759 127.046 177.058 127.897 176.312 127.608C175.465 127.282 174.766 126.699 173.904 126.42C173.034 126.137 172.086 126.082 171.184 126.234C170.77 126.304 170.364 126.407 169.969 126.538C174.197 128.485 178.771 129.603 183.436 129.763C184.386 129.795 185.335 129.782 186.279 129.719C187.868 129.616 189.446 129.375 190.997 128.986C192.216 128.679 193.422 128.295 194.593 127.83C195.167 127.601 195.735 127.35 196.285 127.065L196.333 127.036C196.457 126.959 198.754 125.656 198.794 125.461C198.834 125.265 198.833 125.197 198.758 125.026C198.684 124.856 198.477 124.739 198.477 124.739C197.768 124.435 197.032 124.153 196.257 124.148C194.474 124.137 192.528 125.456 191.054 126.355C189.434 127.342 187.944 128.495 186.385 129.565C186.349 129.59 186.31 129.601 186.271 129.601C186.106 129.601 185.954 129.398 186.059 129.239C187.177 127.593 188.685 126.223 190.263 125.026L190.899 124.55C192.344 123.472 194.034 122.278 195.791 122.017C197.943 121.7 200.192 123.043 202.113 123.829L205.513 125.222C206.119 125.469 206.779 125.68 207.389 125.961L205.964 121.5C205.251 119.269 204.542 117.037 203.839 114.804L203.701 114.367C203.001 112.1 202.357 109.742 201.19 107.671C200.911 107.175 200.592 106.707 200.278 106.236C199.95 105.748 199.828 105.209 199.416 104.773C198.6 103.909 197.432 103.402 196.316 103.07C196.044 102.99 196.124 102.631 196.38 102.603C197.525 102.482 198.616 102.749 199.651 103.232L200.081 103.438C201.059 103.901 202.014 104.331 202.74 105.162C204.396 107.06 205.256 109.45 206.046 111.808L206.257 112.441C206.552 112.344 208.562 112.957 208.813 113.103C216.345 116.288 222.146 122.218 226.388 129.167C231.036 136.782 233.568 145.484 235.658 154.094C236.301 156.752 236.919 159.417 237.51 162.089C234.871 163.105 232.066 163.636 229.595 165.067C228.654 165.612 229.505 167.074 230.449 166.527C232.762 165.187 235.398 164.692 237.875 163.75C239.218 169.935 240.413 176.154 241.414 182.398C244.488 201.564 246.429 221.041 246.307 240.469C246.304 240.898 246.178 241.378 245.943 241.79C246.081 241.722 246.188 241.642 246.25 241.545C247.029 240.321 248.984 241.456 248.201 242.686L248.085 242.864C247.497 243.771 246.948 244.465 245.914 244.977C244.872 245.493 243.744 245.579 242.595 245.609C238.688 245.712 234.779 245.779 230.869 245.827C230.333 241.643 230.115 237.419 229.376 233.259C229.186 232.189 227.557 232.642 227.746 233.708C228.46 237.725 228.688 241.803 229.186 245.847C220.826 245.937 212.462 245.938 204.108 245.962C192.787 245.995 181.468 245.972 170.148 245.965L165.296 245.964C152.219 245.964 139.142 245.922 126.064 245.835L122.954 245.813C121.717 238.517 120.875 231.159 120.859 223.744C120.857 222.657 119.167 222.654 119.169 223.744C119.185 231.15 120.018 238.51 121.243 245.803C118.147 245.79 115.052 245.801 111.956 245.911L110.38 245.967C107.226 246.075 104.066 246.142 100.919 245.89C97.4247 245.609 93.8904 244.966 90.7573 243.32C89.3462 242.577 88.1038 241.628 87.0419 240.511C88.1213 239.883 89.2161 239.28 90.2616 238.596C91.1682 238.002 90.3225 236.538 89.4085 237.136C88.2819 237.874 87.0975 238.516 85.9374 239.198C85.0974 238.077 84.408 236.832 83.8845 235.49C83.0585 233.369 82.7395 231.089 82.4627 228.844C82.1354 226.201 82 223.535 82 220.873C82 215.272 82.5895 209.688 83.4115 204.155C84.1976 198.854 85.2367 193.596 86.3351 188.354L86.4852 187.64C87.569 182.487 88.6021 177.319 89.8444 172.203C90.993 167.471 92.3204 162.762 93.9024 158.144C95.3105 159.015 96.7841 159.776 98.1702 160.684C99.0831 161.281 99.9309 159.818 99.0233 159.224C97.5445 158.256 95.9671 157.451 94.4747 156.505C96.2437 151.56 98.32 146.73 100.809 142.104C105.795 132.841 112.514 124.554 121.118 118.437C125.426 115.377 130.152 112.873 135.115 111.051C140.175 109.191 145.418 108.172 150.781 107.754C150.934 107.742 151.02 107.883 151.014 108.014L151.01 108.039L151.223 108.073C151.301 107.542 151.461 107.029 151.768 106.557C152.465 105.484 153.786 104.795 154.842 104.135L155.094 103.979C156.351 103.2 157.677 102.432 159.139 102.159C159.189 102.151 159.22 102.203 159.186 102.244C158.222 103.349 156.991 104.194 155.861 105.129L155.6 105.346C154.664 106.117 153.359 106.991 153.324 108.28C153.285 109.797 153.594 111.376 153.706 112.889C153.818 114.398 153.896 115.905 153.936 117.418C154.082 122.84 153.908 128.263 153.428 133.663L155.548 132.243C158.849 130.032 162.162 127.828 165.542 125.758C167.587 124.505 169.885 123.434 172.335 123.482C173.022 123.495 173.798 123.594 174.542 123.806C173.742 123.047 172.975 122.24 172.191 121.477C170.9 120.219 169.609 118.962 168.318 117.706L164.596 114.079L160.872 110.452C159.719 109.326 158.367 108.288 158.49 106.513C158.589 105.097 159.31 103.687 159.801 102.322C159.871 102.125 159.935 101.931 159.993 101.739C160.986 98.4373 161.55 95.0153 162.559 91.7273ZM210.661 233.373C209.892 232.602 208.696 233.797 209.466 234.568L209.874 234.974C210.554 235.653 211.229 236.353 211.699 237.192L211.768 237.319C212.275 238.282 213.735 237.428 213.227 236.465C212.6 235.275 211.602 234.314 210.661 233.373ZM177.676 233.155C175.226 232.687 172.864 232.687 170.413 233.155C169.346 233.359 169.797 234.989 170.861 234.786C173.005 234.376 175.083 234.376 177.227 234.786C178.289 234.989 178.745 233.359 177.676 233.155ZM144.577 216.112C143.522 215.845 143.072 217.475 144.128 217.742L144.648 217.873C146.414 218.309 148.096 218.635 149.932 218.229C150.979 217.998 150.555 216.407 149.523 216.591L149.482 216.599C147.784 216.974 146.22 216.528 144.577 216.112ZM203.36 205.13C202.58 204.371 201.384 205.565 202.165 206.325C203.141 207.274 204.291 207.995 205.684 208.034C206.756 208.063 206.77 206.423 205.731 206.345L205.684 206.343C204.751 206.317 204.006 205.757 203.36 205.13ZM103.891 200.614C104.864 200.127 104.009 198.668 103.038 199.154L97.1971 202.076C96.224 202.562 97.079 204.021 98.05 203.536L103.891 200.614ZM219.312 200.986C218.225 200.956 218.225 202.647 219.312 202.677C220.335 202.706 221.383 203.093 222.294 203.535C223.269 204.009 224.126 202.551 223.146 202.075C221.956 201.497 220.648 201.024 219.312 200.986ZM164.736 192.823C165.631 192.215 164.785 190.749 163.882 191.363C162.65 192.2 161.534 193.19 160.322 194.053L159.988 194.284C159.094 194.893 159.939 196.358 160.842 195.745C162.186 194.831 163.393 193.736 164.736 192.823ZM227.587 180.534C226.5 180.534 226.498 182.225 227.587 182.225L227.794 182.224C228.691 182.219 229.637 182.195 230.472 182.553L230.568 182.597C231.548 183.058 232.405 181.6 231.421 181.137C230.197 180.56 228.918 180.535 227.587 180.534ZM133.726 179.326L133.868 179.273C134.884 178.908 134.446 177.274 133.419 177.643C131.871 178.199 130.666 179.251 129.323 180.163C128.428 180.771 129.273 182.236 130.176 181.623C131.333 180.837 132.41 179.841 133.726 179.326ZM197.12 174.928L197.348 174.806C198.316 174.307 197.463 172.848 196.495 173.346C195.729 173.74 195.042 174.266 194.289 174.684L194.061 174.806C193.094 175.304 193.948 176.764 194.914 176.266C195.681 175.871 196.368 175.346 197.12 174.928ZM171.41 158.551L171.236 158.382C170.458 157.621 169.262 158.815 170.04 159.578C171.985 161.482 174.285 162.928 176.604 164.326L177.025 164.58C177.96 165.141 178.811 163.679 177.878 163.12L177.259 162.747C175.197 161.503 173.16 160.219 171.41 158.551ZM124.638 156.972C125.294 156.121 123.868 155.288 123.202 156.089L123.179 156.119C122.496 157.005 121.687 157.807 120.841 158.539L120.682 158.675C120.178 159.104 119.262 160.022 118.554 160.082C117.478 160.174 117.469 161.866 118.554 161.773C119.649 161.68 120.591 160.909 121.418 160.249C122.622 159.288 123.699 158.192 124.638 156.972ZM214.557 150.813C215.342 150.075 214.182 148.9 213.389 149.592L213.361 149.617C211.893 150.997 209.782 151.367 207.893 151.834C206.837 152.096 207.285 153.727 208.342 153.465L209.203 153.252C211.134 152.77 213.072 152.209 214.557 150.813ZM181.083 140.148C180.029 139.88 179.579 141.51 180.634 141.778C182.427 142.234 184.125 142.823 185.786 143.641C186.759 144.119 187.616 142.662 186.639 142.181C184.852 141.301 183.013 140.638 181.083 140.148ZM198.35 104.505C198.325 104.429 198.404 104.342 198.482 104.37C200.38 105.077 199.37 107.562 198.781 109.05L198.674 109.322C197.752 111.706 196.46 114.027 195.053 116.161C193.581 118.395 191.946 120.534 190.175 122.542C189.407 123.414 188.611 124.26 187.787 125.082L187.477 125.388C186.645 126.207 185.572 127.644 184.281 127.485C182.89 127.318 182.116 125.833 183.13 124.704C183.847 123.905 184.839 123.269 185.639 122.542C186.434 121.823 187.203 121.081 187.952 120.318C189.486 118.752 190.94 117.097 192.27 115.354C193.555 113.668 194.785 111.935 195.902 110.133L196.124 109.772C196.976 108.371 198.942 106.31 198.35 104.505ZM131.15 122.216C130.249 121.6 129.403 123.065 130.296 123.676C131.94 124.799 133.385 126.16 135.164 127.084C136.116 127.579 136.963 126.161 136.051 125.643L136.017 125.625C134.24 124.701 132.792 123.339 131.15 122.216Z" fill="#221E1F"/>
<path fill-rule="evenodd" clip-rule="evenodd" d="M168.915 15.782C200.937 14.2067 215.387 36.7616 216.322 46.8357C216.971 53.8288 212.841 61.8892 212.841 68.1382C212.841 71.3272 216.744 78.1752 214.927 82.8242C210.882 93.1722 202.317 104.655 191.403 104.655C180.489 104.655 166.285 107.675 154.225 90.4012C153.094 88.7802 138.781 79.5682 137.391 70.8152C133.927 49.0112 146.066 16.9061 168.915 15.782Z" fill="white"/>
<path fill-rule="evenodd" clip-rule="evenodd" d="M167.405 1.74534C168.55 0.434945 170.483 -0.0891558 172.201 0.0122442C174.696 0.160244 176.866 1.70095 179.348 1.81505C181.951 1.93555 184.463 1.03304 187.072 1.45154C188.671 1.70944 190.256 2.45125 191.28 3.70245C194.83 2.68584 198.683 4.03215 200.944 6.97204C203.733 6.53874 206.766 8.38615 207.62 11.0743C211.163 11.1884 214.507 14.0353 214.902 17.6029C216.318 17.977 217.547 18.9536 218.302 20.2448C219.178 21.7411 219.324 23.4573 219.166 25.1439C220.833 25.9956 221.68 27.8259 221.902 29.7619C223.425 30.8989 224.086 32.9427 223.775 34.8723C224.942 35.5296 225.544 37.0598 225.537 38.4251C225.531 39.6996 225.193 40.8284 225.669 42.0582C226.092 43.1536 226.244 44.0665 226.011 45.2139L225.987 45.3257C225.946 45.5128 225.912 45.6922 225.881 45.8691C226.196 46.146 226.463 46.493 226.663 46.8967C227.394 48.3719 227.285 50.0545 226.728 51.5506C226.972 52.5034 226.941 53.5098 226.58 54.4256C227.255 55.3989 227.611 56.5927 227.506 57.8312C227.389 59.2178 226.756 60.4592 225.796 61.3772C226.052 63.2712 225.282 65.3182 223.89 66.6522C224.088 67.7852 223.917 68.9742 223.297 70.0492C222.855 70.8152 222.26 71.3862 221.574 71.7832C221.596 72.4162 221.511 73.0632 221.3 73.7112C221.008 74.6112 220.514 75.4392 219.862 76.1072C220.251 78.5922 218.764 81.3492 216.146 82.0472C215.926 82.1052 215.716 82.1322 215.515 82.1362C215.255 84.5262 214.687 86.8832 213.808 89.1222C211.573 94.8222 207.508 99.8052 202.207 102.914C199.585 104.451 196.64 105.503 193.634 105.943C191.471 106.26 189.39 106.182 187.218 105.966C184.492 105.693 181.754 105.286 179.105 104.584L178.679 104.471C177.581 104.176 176.423 103.837 175.471 103.244C174.406 102.58 173.853 101.557 173.608 100.353C173.471 99.6823 173.896 98.9612 174.63 98.9472H174.677C174.837 98.9512 174.997 98.9442 175.158 98.9342L175.279 98.9262H175.285C175.294 98.9242 175.298 98.9242 175.306 98.9242C175.378 98.9132 175.448 98.8922 175.518 98.8822C176.325 98.7462 177.031 98.8812 177.789 99.1332L177.884 99.1652C179.16 99.6042 180.425 100.012 181.744 100.315C183.106 100.625 184.486 100.873 185.87 101.067L186.007 101.084L186.049 101.09L186.071 101.092C186.075 101.092 186.079 101.092 186.083 101.094L186.491 101.145C186.812 101.183 187.133 101.217 187.454 101.251C188.046 101.31 188.637 101.357 189.229 101.39C199.44 101.965 208.015 93.9232 210.603 84.2822C211.541 80.7922 211.602 77.3112 211.325 73.8282C211.237 73.5752 211.184 73.2932 211.186 72.9852C211.186 72.8242 211.195 72.6662 211.205 72.5052C210.861 69.1362 210.263 65.7652 209.889 62.3842C209.452 58.4337 209.209 54.4605 209.297 50.4848C209.342 48.5213 209.551 46.5769 209.825 44.6327L209.925 43.9342C208.684 43.6918 207.53 43.1029 206.611 42.2506C204.617 43.4024 202.036 43.5046 200.068 42.2882C197.862 43.672 194.781 43.7974 192.56 42.4446C191.217 43.4033 189.526 43.8169 187.866 43.4529C187.119 43.2894 186.376 42.9353 185.74 42.4452C185.286 42.5253 184.826 42.5564 184.369 42.5325L184.275 42.5853C183.22 43.1412 182.052 43.507 180.851 43.4664C179.961 43.4362 179.044 43.2606 178.195 42.9284C177.289 43.4758 176.297 43.8494 175.235 43.9834C173.685 44.1789 172.012 43.8359 170.723 42.9563C168.367 44.2988 165.47 44.5055 162.927 43.6034C162.406 44.4858 161.685 45.2467 160.842 45.8332C160.993 46.3746 161.041 46.9521 160.989 47.5073C160.904 48.4211 160.675 49.2406 160.3 49.9765C160.695 50.7982 160.814 51.8073 160.593 52.82C160.278 54.2644 159.438 55.5208 158.35 56.4994C158.254 58.8044 156.99 60.9652 154.934 62.1662C154.83 62.2272 154.726 62.2762 154.623 62.3212C154.532 62.4452 154.424 62.5542 154.3 62.6472C152.992 63.8552 150.922 63.7592 149.283 63.0762C149.251 63.0782 149.22 63.0802 149.188 63.0812C148.603 63.0962 148.204 62.8682 147.967 62.5322C147.728 62.5442 147.491 62.5702 147.253 62.6142C146.382 62.7772 145.427 63.0903 144.639 63.4963C142.594 64.5482 141.648 66.4082 141.365 68.6442C141.056 71.0832 141.758 73.5682 143.644 75.2192C144.561 76.0222 145.734 76.5252 146.925 76.7362C148.241 76.9712 149.648 76.3942 150.62 77.5252C150.814 77.7492 150.947 78.0622 150.842 78.3642C150.512 79.3062 149.969 79.6682 149.12 79.7992C150.347 81.2552 151.606 82.6632 153.001 83.9712C154.509 85.3892 156.068 86.7632 157.429 88.3272C158.868 89.9822 160.167 91.7362 161.069 93.7442C161.585 94.8982 161.999 96.0882 162.445 97.2692L162.524 97.4752C163.022 98.7302 163.683 99.9402 162.918 101.251C162.614 101.767 161.925 102.265 161.291 102.183C159.506 101.955 158.908 100.748 158.359 99.1752C157.945 97.9882 157.628 96.7662 157.182 95.5892C157.099 95.3712 157.008 95.1552 156.912 94.9412C155.883 95.2282 154.751 95.0002 153.833 94.4132C152.851 94.8482 151.764 95.0652 150.714 95.0472C149.307 95.0222 148.023 94.6312 146.919 93.9262C146.831 93.9032 146.742 93.8802 146.655 93.8552C144.975 94.4992 143.007 94.3842 141.486 93.3412C140.5 92.6652 139.827 91.7632 139.444 90.7592C138.171 90.7352 136.912 90.2832 136 89.3802C135.162 88.5512 134.673 87.4812 134.528 86.3692C133.432 86.1522 132.405 85.6222 131.599 84.7292C130.927 83.9842 130.518 83.0342 130.38 82.0492C129.045 81.6682 127.842 80.7962 127.185 79.5812C126.573 78.4502 126.485 77.2222 126.784 76.1062L126.706 75.9942C125.332 75.2752 124.283 74.0972 124.175 72.4142C124.145 71.9352 124.196 71.4552 124.326 71.0022C124.279 70.4952 124.309 69.9882 124.442 69.4982C122.594 67.6992 121.924 64.8102 122.927 62.4222C121.121 60.4772 120.644 57.4023 121.968 55.0945C121.06 53.9953 120.593 52.594 120.671 51.0977C120.768 49.2296 121.624 47.5977 122.648 46.0866C121.888 45.2454 121.482 44.0724 121.512 42.9396C121.554 41.2974 122.427 39.8834 123.519 38.7127C122.566 35.8214 123.631 32.6849 125.97 30.8546C125.496 30.0747 125.321 29.1088 125.475 28.1303C125.746 26.4204 127.028 25.2559 128.412 24.3344C128.122 23.392 128.198 22.3752 128.659 21.4009C129.274 20.1011 130.434 19.2768 131.644 18.5793C131.957 15.6965 135.177 13.2343 137.877 14.7222C137.207 12.577 139.136 10.2606 141.354 10.0154C142.44 6.72264 146.186 4.64714 149.553 5.46514C151.275 3.11064 154.48 2.20415 157.201 3.21425C160.193 0.921048 163.904 0.580845 167.405 1.74534ZM146.095 66.3992C148.197 66.2852 149.773 68.0012 150.88 69.5722C151.919 71.0452 149.253 72.6002 148.476 70.9772C148.197 70.3982 147.88 69.7852 147.456 69.2782C147.384 69.3782 147.321 69.4812 147.259 69.5872L147.196 69.6942C147.149 69.7732 147.101 69.8532 147.061 69.9352C147.065 69.9502 147.001 70.1452 146.999 70.1532C146.826 70.6792 146.448 71.0172 145.933 71.1992C145.267 71.4322 144.637 70.9312 144.424 70.3432C144.084 69.4052 144.874 68.5872 145.696 68.2152C144.889 68.0842 144.094 68.3592 143.511 68.9802C143.431 69.0672 143.296 68.9972 143.292 68.8892C143.224 67.4162 144.764 66.4712 146.095 66.3992Z" fill="#221E1F"/>
<path fill-rule="evenodd" clip-rule="evenodd" d="M192.194 88.5402C190.774 87.9613 189.507 86.9942 188.58 85.7592C188.258 85.3292 188.175 84.8762 188.242 84.4612C188.318 83.9952 188.594 83.5723 188.97 83.2892C189.347 83.0052 189.819 82.8642 190.275 82.9362C190.672 82.9982 191.066 83.2152 191.379 83.6652L191.444 83.7552C191.995 84.5012 192.712 85.1122 193.53 85.5072C194.318 85.8872 195.2 86.0642 196.112 85.9612C197.85 85.7652 199.047 84.8252 200.32 83.5482C200.478 83.3872 200.636 83.2212 200.794 83.0522C200.894 82.8993 201.034 82.8002 201.188 82.7492C201.359 82.6912 201.553 82.6952 201.731 82.7572C201.902 82.8162 202.055 82.9302 202.158 83.0812C202.255 83.2243 202.311 83.4012 202.293 83.6052C202.176 84.9272 201.485 86.1082 200.503 87.0352C199.412 88.0652 197.966 88.7772 196.605 89.0272C195.106 89.3022 193.578 89.1052 192.194 88.5402ZM197.313 68.1322C198.908 69.1022 201.339 71.3642 199.623 73.7692C197.602 75.8902 194.694 73.4592 193.261 72.3592C191.932 71.5072 190.438 73.6992 191.671 74.6942C202.028 82.3652 206.232 68.3862 198.12 66.9922C197.226 66.8382 196.895 67.8322 197.313 68.1322ZM178.753 59.2091C178.929 57.0203 182.261 56.5232 182.593 58.6892C182.889 60.6292 182.54 62.4112 181.666 64.1582C180.832 65.8272 178.734 65.0492 178.575 63.5292C178.362 61.4922 178.643 60.5702 178.753 59.2091ZM204.118 58.24C204.583 57.6314 205.254 57.2158 206.057 57.4507C208.568 58.1847 207.828 61.7512 206.946 63.4862C206.467 64.4292 204.918 64.6682 204.218 63.8382C203.077 62.4852 202.531 59.7819 203.981 58.4488C204.021 58.3799 204.065 58.3102 204.118 58.24ZM181.631 49.6316L182.028 49.5621C183.255 49.3498 184.78 49.1458 185.648 50.1327C186.109 50.656 186.267 51.6286 185.648 52.1295C184.56 53.0108 183.356 52.6693 182.052 52.7439C180.977 52.8056 179.944 52.9836 178.909 53.2797C176.637 53.9292 174.786 55.1148 172.846 56.4168C172.592 56.5875 172.332 56.2618 172.453 56.0236C173.573 53.8292 175.743 52.0266 177.917 50.9278C179.078 50.3413 180.347 49.8547 181.631 49.6316ZM201.829 48.6485L202.133 48.7108C205.437 49.4016 209.729 50.7815 211.293 54.0277C211.353 54.4867 211.29 54.5851 211.239 54.6494L211.222 54.6708C211.179 54.7257 211.146 54.8014 210.947 54.8639C210.892 54.8507 210.836 54.8367 210.78 54.8219C210.062 54.6339 209.495 54.3749 208.946 54.1062L208.35 53.8127C207.659 53.4738 206.962 53.1472 206.223 52.9061C204.647 52.3916 203.025 52.0294 201.379 51.8359C201.022 51.794 200.678 51.6734 200.407 51.4668C200.15 51.2708 199.953 50.9994 199.863 50.6386C199.747 50.1718 199.781 49.8183 200.031 49.3971C200.219 49.0808 200.489 48.8615 200.798 48.7356C201.113 48.6073 201.472 48.577 201.829 48.6485Z" fill="#221E1F"/>
<path fill-rule="evenodd" clip-rule="evenodd" d="M206.042 93.3582C205.305 93.1172 204.581 92.8362 203.853 92.5652C200.133 90.6962 195.639 90.3572 191.738 91.9312C189.823 92.7042 188.037 94.0922 186.116 95.0022C185.659 95.1722 185.199 95.3272 184.734 95.4572C184.449 95.3572 184.164 95.2522 183.88 95.1462C181.842 94.3782 179.925 93.4302 178.064 92.3872C177.865 92.1072 177.659 91.8352 177.438 91.5742C178.785 91.3832 180.104 91.0652 181.297 90.7372C184.96 89.7332 188.412 88.0982 192.063 87.0492C195.462 86.0712 199.151 85.5362 202.565 86.7512C204.185 87.3282 205.611 88.3382 207.187 89.0192C208.003 89.3702 208.981 89.7142 209.934 89.7652C209.319 91.2382 208.542 92.6142 207.479 93.7602C206.993 93.6562 206.511 93.5102 206.042 93.3582ZM213.969 81.8202C213.643 82.0912 212.297 82.9662 211.86 83.4882C211.747 83.4452 211.635 83.4012 211.523 83.3562C211.331 83.1202 211.049 83.0162 210.76 83.0232C208.747 82.0862 206.955 80.7622 205.356 79.1032C204.219 77.9252 203.055 76.6932 201.536 76.0102C199.746 75.2032 197.987 75.5752 196.106 75.6982C194.106 75.8312 192.13 75.2622 190.132 75.5352C188.67 75.7362 187.301 76.3552 186.117 77.2282C183.703 79.0102 182.038 81.5122 179.997 83.6702C177.682 86.1172 174.834 87.6812 171.667 88.4802C171.629 88.4552 171.589 88.4292 171.548 88.4062C169.214 86.2932 167.106 83.9072 165.24 81.3642C163.419 78.8812 158.617 67.7022 157.457 66.7222C156.975 66.3142 156.447 66.1382 155.942 66.1532C155.027 66.1742 154.182 66.8102 153.804 67.8122C153.162 69.5162 153.483 71.7182 153.534 73.5002C153.597 75.6812 153.741 77.8602 153.969 80.0302C154.195 82.1762 154.495 84.3142 154.869 86.4382C155.057 87.5122 155.266 88.5842 155.496 89.6512C155.568 89.9872 155.659 90.2872 155.769 90.5662C155.881 91.0922 156.001 91.6172 156.13 92.1362C156.971 95.5412 158.298 98.9502 160.831 101.463C163.467 104.082 167.051 105.821 170.378 107.377C173.547 108.859 176.868 110.175 180.276 111.207C183.236 112.549 186.405 113.61 189.587 114.168C193.089 114.783 196.772 114.821 200.154 113.603C201.817 113.005 203.389 112.17 204.815 111.131C206.837 110.08 208.656 108.637 210.145 106.726C212.813 103.302 214.086 99.1472 214.643 94.8622C214.786 93.7652 215.322 89.5622 215.364 88.9072C215.5 86.7942 215.636 84.6812 215.772 82.5672C215.837 81.5702 214.613 81.2852 213.969 81.8202Z" fill="#221E1F"/>
<path fill-rule="evenodd" clip-rule="evenodd" d="M166.637 292.589C170.72 292.392 169.078 285.247 168.785 282.624C165.552 273.04 166.312 262.584 165.041 252.539C164.249 243.162 163.231 233.814 162.375 224.444C160.694 205.424 148.62 166.703 134.842 160.476C133.107 152.858 125.938 145.746 116.869 145.746C110.683 138.421 103.237 133.266 93.6866 134.307C89.7406 134.486 85.9126 138.674 82.1316 139.482C80.0146 139.774 61.2239 139.023 57.46 141.259C54.8382 142.606 52.4714 145.094 53.2423 148.263C54.4723 152.101 50.6498 147.948 42.676 152.045C26.4161 161.814 36.1322 174.883 36.5628 175.288C26.416 189.411 17.5474 200.869 13.4439 218.131C10.7845 230.948 11.0839 244.178 8.85555 257.06C8.06885 261.526 6.86185 265.84 5.55575 270.178C4.14025 275.854 3.45205 290.003 2.67175 290.129C1.25055 290.483 3.49315 293.402 4.99905 293.404C46.7506 300.332 89.1606 293.691 131.136 292.606C142.966 292.195 154.808 292.1 166.637 292.589Z" fill="white"/>
<path fill-rule="evenodd" clip-rule="evenodd" d="M103.357 176.535C103.376 176.343 103.634 176.344 103.654 176.535L103.948 179.381C104.307 182.858 104.652 186.328 104.903 189.821C105.215 194.177 105.423 198.531 105.524 202.897C105.875 218.101 105.944 233.313 105.974 248.52C108.03 248.378 110.086 248.241 112.143 248.108C113.539 248.018 114.934 247.931 116.33 247.846L119.89 247.63L121.355 247.54C122.345 247.479 123.47 247.23 124.162 248.107C124.44 248.458 124.579 248.915 124.32 249.332C123.724 250.294 122.809 250.26 121.773 250.302C120.796 250.341 119.82 250.38 118.843 250.418C116.749 250.499 114.656 250.576 112.562 250.634C110.364 250.696 108.168 250.746 105.971 250.784C105.949 257.204 105.683 263.616 105.396 270.029L105.266 272.915C104.915 280.719 104.537 288.53 104 296.324C103.956 296.962 103.054 296.961 103.01 296.324C102.405 287.547 102.006 278.751 101.611 269.962C101.324 263.59 101.157 257.216 101.078 250.841C100.787 250.842 100.497 250.846 100.207 250.848C91.9605 250.883 83.7175 250.919 75.4725 250.842C75.4865 250.858 75.4995 250.875 75.5095 250.896C76.1055 252.305 76.1625 254.103 76.1475 255.616C76.1315 257.35 75.8975 259.063 75.4985 260.75C74.0675 266.792 70.3775 272.204 66.1754 276.678L66.0381 276.823C65.0469 277.871 63.9096 278.924 63.3009 280.259C62.6792 281.621 62.4634 283.215 62.1566 284.68L62.1208 284.848L60.9212 290.391C60.5401 292.152 60.4319 294.719 59.0388 295.989C57.7391 297.175 56.0173 296.556 55.4057 295.03C54.928 293.839 55.4038 292.531 55.6866 291.34L57.9031 282.02C58.2673 280.5 58.6652 278.97 59.4512 277.604C60.2564 276.206 61.4367 275.192 62.6412 274.155C64.9218 272.191 67.0155 269.942 68.7865 267.507C70.5565 265.073 72.0685 262.39 73.1295 259.569C73.6605 258.157 74.0955 256.69 74.3965 255.211C74.6815 253.807 74.6785 252.353 74.9845 250.965C75.0055 250.869 75.0865 250.803 75.1785 250.774C75.1565 250.712 75.1905 250.628 75.2775 250.623L82.0205 250.189C88.0145 249.803 94.0085 249.406 99.9965 248.953L101.055 248.876C100.973 240.37 101.043 231.863 101.197 223.354C101.337 215.551 101.34 207.746 101.572 199.944C101.688 196.072 101.936 192.209 102.213 188.345C102.496 184.393 102.949 180.475 103.357 176.535ZM40.0408 221.777C39.969 221.344 40.5138 221.076 40.765 221.472C43.6364 226 45.0208 230.917 45.6043 236.216C46.1198 240.892 45.9679 245.635 45.7112 250.324C45.4374 255.324 45.118 260.324 44.795 265.321L44.2987 272.986L43.0533 292.199C42.9641 293.574 42.6523 294.823 41.4694 295.462C41.3196 295.587 41.1635 295.7 40.9816 295.797C40.3425 296.139 39.4949 295.966 39.1254 295.31L39.2735 295.407C39.4026 295.489 39.2577 295.375 38.8387 295.067L38.4831 294.607C38.2248 294.219 38.0598 293.837 37.9934 293.375C37.8903 292.657 38.0238 291.87 38.0707 291.149L38.8871 278.55C39.5219 268.755 40.2633 258.964 40.8221 249.164C41.0824 244.597 41.2647 240.025 41.1413 235.45C41.0183 230.9 40.7866 226.273 40.0408 221.777ZM64.8805 137.437L65.0398 137.41C70.7425 136.462 76.9445 136.64 82.1565 139.39C82.1995 139.413 82.1805 139.484 82.1315 139.482L80.4545 139.415C75.1435 139.207 69.8485 139.084 64.6264 140.332L64.0918 140.461C62.2111 140.92 60.2472 141.482 58.7366 142.724C57.2928 143.912 56.5739 145.744 55.8826 147.431L55.7902 147.654C55.0888 149.32 54.2011 150.9 52.6638 151.941C50.6726 153.29 48.2778 153.125 45.9947 153.308C41.9747 153.632 38.688 156.546 37.0528 160.113C36.0626 162.272 35.6402 164.693 35.5566 167.055C35.5137 168.257 35.5076 169.507 35.6677 170.701C35.7188 171.083 36.1908 172.474 36.4314 172.441C36.9661 172.367 37.455 172.646 37.6217 173.073C38.9426 171.797 40.3014 170.557 41.704 169.362C45.2003 166.383 48.9662 163.684 52.9321 161.364C55.9589 159.593 59.1516 157.839 62.4577 156.513C62.1957 156.507 61.9374 156.559 61.6874 156.689C61.578 156.746 61.4692 156.609 61.5556 156.518C62.5969 155.422 63.8443 155.266 65.1017 155.558C65.37 155.473 65.6386 155.39 65.9081 155.312C66.0423 155.273 66.109 155.458 65.9996 155.529L65.6907 155.727C67.0625 156.186 68.4093 157.09 69.4755 157.803C72.5385 159.851 75.2345 162.354 77.9675 164.811L78.4645 165.256C80.8705 167.405 83.3365 169.493 86.0705 171.217C87.5005 172.119 89.0035 172.954 90.5795 173.574C91.9315 174.107 94.1325 174.443 94.7665 175.872C95.3285 176.556 95.0935 177.429 94.4345 177.889C93.3225 179.113 91.0995 178.322 89.7745 177.813C88.1775 177.198 86.6305 176.459 85.1545 175.593C82.2905 173.911 79.6485 171.819 77.1885 169.594C74.6185 167.27 72.1955 164.801 69.6955 162.404C68.6125 161.365 67.5549 160.303 66.4704 159.266L65.9257 158.749C65.3721 158.23 64.5835 157.421 63.7403 156.931C62.1518 157.879 60.5388 158.787 58.9646 159.76C56.7672 161.117 54.6345 162.572 52.5347 164.075C48.4923 166.969 44.6616 170.21 41.1053 173.684C34.583 180.054 29.0263 187.329 24.172 195.032L23.8034 195.619C21.0449 200.028 18.4363 204.579 16.5866 209.45C14.5515 214.811 13.5617 220.449 13.024 226.139C12.4904 231.789 12.3104 237.467 11.714 243.112C11.1023 248.901 9.89731 254.562 8.52661 260.213L8.19971 261.553C6.95941 266.613 5.67931 271.674 5.04171 276.854C4.70141 279.621 4.49661 282.426 4.54291 285.215C4.58941 288.021 5.03011 290.764 5.38561 293.541C5.52191 294.604 4.47571 295.492 3.53961 295.633C2.46301 295.794 1.53801 295.107 1.20341 294.107C0.160207 290.988 -0.029392 287.54 0.00340799 284.267C0.036308 280.943 0.460406 277.641 1.05701 274.375C2.23041 267.95 4.04111 261.659 5.55591 255.311C6.89091 249.716 7.78691 244.112 8.26991 238.38C8.77121 232.433 9.07141 226.467 9.98601 220.563C10.8887 214.735 12.5873 209.168 15.149 203.854C17.4814 199.015 20.3888 194.461 23.437 190.046C27.1386 184.686 31.204 179.585 35.7484 174.937C35.3402 174.92 34.9211 174.788 34.5361 174.548C33.3585 173.813 32.8101 172.375 32.6415 171.063C32.2468 167.993 32.3421 164.787 33.1314 161.785C34.4047 156.943 37.7094 152.64 42.4988 150.895C43.7316 150.445 45.0421 150.281 46.3485 150.249C47.5883 150.218 48.9423 150.38 50.1385 149.987C52.0425 149.361 52.8586 147.117 53.5735 145.417L53.6064 145.339C54.5231 143.172 55.6234 141.314 57.6089 139.961C59.7272 138.518 62.3813 137.861 64.8805 137.437ZM119.071 146.007C120.784 145.412 122.927 145.952 124.603 146.471C126.47 147.05 128.196 148.117 129.675 149.384C131.236 150.719 132.525 152.369 133.437 154.211L133.524 154.389C134.356 156.098 135.304 158.444 134.884 160.322C134.872 160.375 134.858 160.427 134.843 160.476C138.243 162.151 141.383 164.248 144.118 166.907C147.302 170.002 149.999 173.524 152.28 177.329C161.342 192.442 162.937 210.593 164.008 227.828L164.274 232.198C164.856 241.635 165.536 251.049 167.302 260.356L167.431 261.027C169.32 270.771 172.023 280.589 171.749 290.585C171.667 293.58 167.243 293.559 167.114 290.585C166.631 279.389 164.02 268.579 162.251 257.559C159.139 238.169 160.699 218.18 156.289 198.984C154.559 191.451 151.879 184.144 148.051 177.42C146.161 174.098 143.997 170.889 141.464 168.023C139.283 165.557 137.018 163.184 134.47 161.111C133.656 161.927 132.029 161.511 131.604 160.322C131.311 159.505 131.396 158.549 131.21 157.693C131.036 156.898 130.796 156.111 130.477 155.363C129.84 153.872 128.904 152.44 127.826 151.233C126.66 149.928 125.321 148.845 123.822 147.95C122.312 147.049 120.662 146.78 119.071 146.121C119.017 146.099 119.012 146.027 119.071 146.007ZM125.729 249.631C125.731 249.552 125.824 249.515 125.882 249.568C126.481 250.121 126.846 250.914 127.288 251.595C127.798 252.379 128.333 253.148 128.895 253.896C130.02 255.396 131.273 256.81 132.535 258.195C133.709 259.483 134.961 260.716 136.259 261.879C137.666 263.139 139.242 264.264 140.52 265.659C143.187 268.57 143.618 272.567 144.18 276.319L144.242 276.725C144.585 278.951 144.892 281.184 145.169 283.42C145.303 284.508 145.439 285.596 145.548 286.687L145.582 287.032C145.68 288.099 145.706 289.182 145.094 290.115C144.438 291.113 142.946 291.463 142.06 290.506C140.536 288.862 140.822 285.943 140.624 283.828C140.46 282.08 140.273 280.333 140.066 278.589L139.96 277.718C139.715 275.734 139.516 273.711 139.063 271.761C138.663 270.045 137.901 268.749 136.65 267.506C135.391 266.253 134.081 265.084 132.919 263.735C131.686 262.304 130.574 260.77 129.572 259.168C128.714 257.799 128.027 256.308 127.398 254.82L127.293 254.572C126.685 253.12 125.682 251.23 125.729 249.631ZM147.725 187.273C147.738 187.071 148.036 187.067 148.042 187.273C148.079 189.015 148.116 190.756 148.152 192.498C148.441 206.532 148.262 220.599 149.671 234.585C150.335 241.179 151.557 247.677 152.971 254.147C153.695 257.458 154.455 260.761 155.176 264.072C155.879 267.299 156.633 270.542 157.191 273.799C157.739 277 158.23 280.226 158.45 283.468L158.477 283.891C158.572 285.462 159.025 287.772 158.16 289.164C157.224 290.672 155.43 290.699 154.426 289.26C153.484 287.908 153.718 285.504 153.552 283.891C153.383 282.249 153.204 280.604 153 278.965C152.604 275.768 152.081 272.578 151.538 269.403C150.406 262.79 148.765 256.261 147.553 249.659C146.311 242.894 145.428 236.08 145.391 229.192C145.354 222.246 146.089 215.313 146.46 208.382C146.837 201.342 147.266 194.308 147.725 187.273ZM81.4535 143.622C81.8305 142.353 83.1595 141.56 84.4565 141.916C85.6445 142.243 86.6255 143.686 86.1615 144.921C85.6545 146.268 84.7685 147.416 84.0215 148.641C83.3315 149.772 82.3245 150.663 81.6215 151.774L82.3965 152.61C82.7835 153.026 83.1725 153.441 83.5655 153.848L84.9165 155.248C85.9685 156.335 87.0275 157.418 88.1155 158.468C91.3165 161.557 94.5685 164.544 98.1535 167.189C98.9695 167.791 99.7925 168.39 100.638 168.95L100.954 169.159C101.534 169.539 102.181 169.913 102.882 169.848C104.584 169.692 106.123 167.883 107.293 166.757L107.354 166.699C110.254 163.938 112.939 160.921 115.286 157.676C115.807 156.955 116.312 156.222 116.804 155.48C115.669 154.154 115.94 151.565 115.877 149.957C115.833 148.826 115.83 147.695 115.823 146.563L115.82 146.335C115.807 145.602 115.774 144.9 116.249 144.297C116.276 144.262 116.334 144.263 116.369 144.281C117.02 144.623 117.22 145.194 117.498 145.835L117.527 145.901C117.865 146.67 118.188 147.447 118.516 148.22C118.859 149.03 119.174 149.852 119.492 150.671C119.64 151.053 119.782 151.435 119.92 151.82C120.005 152.066 120.092 152.311 120.181 152.555L120.203 152.574C120.321 152.674 120.421 152.78 120.508 152.89C120.871 153.071 121.159 153.402 121.295 153.889C121.59 154.948 120.979 155.812 120.436 156.652C118.226 160.068 115.707 163.322 112.906 166.275C111.515 167.741 110.052 169.142 108.529 170.471L108.263 170.702C106.895 171.878 105.409 172.992 103.582 173.267C101.443 173.589 99.7015 172.525 98.0645 171.3L97.9015 171.177C96.3495 170.002 94.8285 168.785 93.3555 167.512C90.3515 164.918 87.4935 162.132 84.9575 159.076C82.4905 156.103 80.0515 152.779 78.5305 149.202C78.4385 148.984 78.6815 148.756 78.8725 148.938C79.6155 149.645 80.3305 150.391 81.0365 151.146C81.0565 150.034 80.8515 148.913 80.9655 147.794C81.1045 146.434 81.0645 144.932 81.4535 143.622Z" fill="#221E1F"/>
<path fill-rule="evenodd" clip-rule="evenodd" d="M130.383 88.5204C130.613 86.3805 128.109 80.6716 128.169 81.8296C124.155 75.6372 116.32 73.2021 109.561 71.1579C95.2105 66.419 84.0055 72.1421 73.9235 82.2855C67.9713 87.8476 62.3076 94.0607 59.3196 101.76C53.4415 116.449 62.2525 133.197 75.6515 140.214C76.7325 140.8 77.9115 141.356 78.9405 142.063C84.4795 145.264 90.9845 146.372 97.1565 147.765C108.704 150.405 123.206 149.147 130.011 138.149C134.626 130.344 133.4 120.882 133.039 112.22C132.496 104.631 131.544 96.0542 130.383 88.5204Z" fill="white"/>
<path fill-rule="evenodd" clip-rule="evenodd" d="M68.6605 66.8603C76.1415 59.8642 87.1985 56.4733 97.3085 57.0664C102.784 57.3876 108.061 58.7601 113.01 61.1182C114.557 61.8556 116.065 62.7187 117.456 63.7351C118.394 64.173 119.311 64.6469 120.199 65.1621C124.648 67.7406 128.088 71.6462 130.289 76.279C131.34 78.4902 132.169 80.8219 132.639 83.2244L132.715 83.6199C132.954 84.8255 133.428 86.4138 132.829 87.542C132.432 88.29 131.599 88.7615 130.811 88.6981C130.982 89.3913 131.187 90.0844 131.318 90.782L131.675 92.6842C131.734 93.0012 131.793 93.3182 131.851 93.6352C132.195 95.5247 132.512 97.4119 132.765 99.3161C133.296 103.281 133.775 107.255 134.198 111.234C134.501 114.081 134.784 116.93 135.06 119.778L135.225 121.487C135.508 124.429 135.729 127.396 135.537 130.351C135.247 134.783 133.885 138.827 131.24 142.117C131.492 142.723 131.577 143.406 131.767 144.16C132.029 145.203 132.371 146.224 132.735 147.237C132.905 147.635 133.076 148.033 133.245 148.432L133.689 149.489L134.035 150.182C134.41 150.936 134.773 151.701 135.004 152.481C136.498 153.279 137.719 154.582 137.779 156.366C137.832 157.979 136.995 159.686 135.582 160.508C134.187 161.321 132.751 161.001 131.416 160.381C130.252 160.72 129.005 160.763 127.852 160.401C126.964 161.205 125.819 161.76 124.549 161.91C122.635 162.137 120.818 161.601 119.062 160.896L118.94 160.847C118.885 160.825 118.83 160.802 118.777 160.779C116.758 160.682 114.746 159.883 113.314 158.467C112.847 158.008 112.444 157.484 112.118 156.897C110.937 154.76 110.753 152.137 111.915 150.017C111.666 150.028 111.415 150.038 111.165 150.045C107.841 150.139 104.511 149.97 101.195 149.751L100.414 149.698C98.2675 149.544 95.1035 149.18 95.0435 146.519C95.0345 146.179 95.3855 145.923 95.7065 146.014C96.9255 146.358 98.1235 146.9 99.3865 147.094C101.039 147.35 102.75 147.377 104.42 147.47L104.9 147.497C108.265 147.681 111.752 147.794 115.063 147.126C117.535 146.629 120.11 145.724 122.375 144.604C124.549 143.527 126.525 142.117 128.117 140.276C131.627 136.227 132.091 130.514 131.92 125.391C131.713 119.272 130.995 113.162 130.589 107.052L130.406 104.307C130.255 102.018 130.116 99.7255 130.059 97.4353C130.017 95.7635 130.044 94.0875 130.052 92.4158C130.057 91.5809 130.046 90.7419 130.065 89.907C130.076 89.4378 130.131 88.9792 130.171 88.5204C129.985 88.4233 129.812 88.2879 129.656 88.1084C129.533 87.9668 129.438 87.8168 129.372 87.6646C128.584 87.434 128.219 87.1276 127.708 86.4324C127.277 85.847 126.789 85.3059 126.267 84.7987C125.156 83.7208 123.886 82.8395 122.544 82.0721C119.77 80.485 116.732 79.4241 113.669 78.5533C108.979 77.2218 104.107 76.537 99.3465 75.4674C98.0345 77.2977 96.6445 79.0732 95.1905 80.7915C90.6545 86.1513 85.4535 90.9298 79.8805 95.1908C78.7455 96.0594 77.5965 96.9154 76.4305 97.7458C74.8945 100.089 73.3415 102.421 71.7665 104.737L71.0895 105.729L71.0785 105.748C70.9865 105.889 70.8975 106.031 70.8085 106.172C70.6205 106.473 70.4095 106.762 70.1855 107.043C70.0395 107.257 69.8915 107.47 69.7415 107.684C70.0285 107.838 70.2905 108.011 70.4955 108.204C70.9145 108.599 70.8445 109.227 70.4955 109.628C69.3715 110.926 67.5931 109.235 66.3001 108.785C64.8994 109.212 63.7311 110.879 63.1501 112.154C62.3135 113.99 61.9776 116.205 62.3557 118.194C62.702 120.012 63.636 121.582 65.1888 122.567C65.2438 122.601 65.3027 122.637 65.36 122.668C65.3621 122.673 65.3621 122.673 65.3642 122.67C65.417 122.704 65.4719 122.736 65.5269 122.766C66.2557 123.167 67.0564 123.404 67.8865 123.461C68.3619 123.495 68.8585 123.469 69.3335 123.527C69.8215 123.583 70.2235 123.808 70.6925 123.926C71.2095 124.059 71.5435 124.754 71.2185 125.221C71.0575 125.452 70.9055 125.672 70.7425 125.868C71.2775 126.498 71.7425 127.193 72.1625 127.855C72.7375 128.761 73.2465 129.723 73.7115 130.704C74.1405 131.268 74.5505 131.843 74.9475 132.431C77.1975 135.766 78.9195 139.481 79.9775 143.364C81.0255 147.204 81.6805 151.518 80.7105 155.438C79.8165 159.044 77.2075 162.03 73.3455 162.223C72.5395 162.262 71.7475 162.172 71.0015 161.968C69.3645 162.979 67.3355 163.488 65.5197 163.548C64.0505 163.596 62.4424 163.286 61.2426 162.398C59.8193 163.017 58.2753 163.369 56.9327 163.449C55.4304 163.539 53.8581 163.129 52.6334 162.318C51.4681 163.317 50.2106 164.159 48.7818 164.738C46.3247 165.731 43.4008 165.608 41.1508 164.123C38.8966 162.635 37.7494 159.963 38.4381 157.313C39.0719 154.87 41.0642 153.078 42.936 151.534L43.3059 151.231C45.1574 149.719 47.0272 148.256 48.2156 146.126C49.4769 143.867 49.9374 141.242 50.0621 138.685C50.3325 133.054 49.1874 127.475 48.8388 121.874C48.4797 116.089 48.6804 110.287 49.4684 104.545C51.0001 93.3901 55.0311 82.4548 62.324 73.7597C63.3791 72.5015 64.5086 71.3023 65.6988 70.1656C66.6086 68.9753 67.5918 67.8596 68.6605 66.8603ZM165.67 130.552C165.71 130.554 165.748 130.556 165.784 130.571C165.808 130.581 165.829 130.597 165.847 130.615L166.025 130.793C166.089 130.856 166.084 130.953 166.025 131.017C165.973 131.074 165.88 131.076 165.819 131.032L165.801 131.017L165.617 130.832C165.597 130.811 165.58 130.787 165.571 130.757C165.563 130.727 165.563 130.693 165.56 130.662C165.558 130.605 165.613 130.552 165.67 130.552ZM66.5471 113.284C68.2415 112.771 70.2735 113.992 71.2835 115.282C71.7905 115.928 71.9345 116.814 71.2835 117.45C70.7305 117.991 69.6485 118.09 69.1135 117.45C68.5077 116.721 68.0133 115.711 67.1471 115.244C66.2069 114.736 64.9478 114.863 64.726 116.099C64.6879 116.309 64.3879 116.239 64.3753 116.051C64.2929 114.8 65.3893 113.633 66.5471 113.284Z" fill="#221E1F"/>
<path fill-rule="evenodd" clip-rule="evenodd" d="M111.672 134.55C110.252 133.971 108.984 133.004 108.058 131.769C107.736 131.339 107.652 130.886 107.72 130.471C107.796 130.005 108.072 129.582 108.448 129.299C108.825 129.015 109.297 128.874 109.753 128.946C110.149 129.008 110.544 129.225 110.856 129.675L110.921 129.765C111.472 130.511 112.19 131.122 113.008 131.517C113.796 131.897 114.677 132.074 115.59 131.971C117.327 131.775 118.525 130.835 119.798 129.558C119.955 129.397 120.113 129.231 120.272 129.062C120.372 128.909 120.511 128.81 120.665 128.759C120.837 128.701 121.031 128.705 121.208 128.767C121.38 128.826 121.533 128.94 121.635 129.091C121.733 129.234 121.788 129.411 121.77 129.615C121.654 130.937 120.962 132.118 119.98 133.045C118.89 134.075 117.444 134.787 116.083 135.037C114.583 135.312 113.055 135.115 111.672 134.55ZM116.79 114.142C118.386 115.112 120.816 117.374 119.1 119.779C117.08 121.9 114.171 119.469 112.738 118.369C111.409 117.517 109.916 119.709 111.149 120.704C121.506 128.375 125.709 114.396 117.597 113.002C116.704 112.848 116.372 113.842 116.79 114.142ZM98.2304 105.219C98.4064 103.03 101.739 102.533 102.07 104.699C102.367 106.639 102.017 108.421 101.144 110.168C100.309 111.837 98.2114 111.059 98.0524 109.539C97.8404 107.502 98.1204 106.58 98.2304 105.219ZM123.596 104.25C124.06 103.641 124.731 103.226 125.535 103.46C128.046 104.194 127.306 107.761 126.424 109.496C125.945 110.439 124.396 110.678 123.696 109.848C122.555 108.495 122.009 105.792 123.459 104.458C123.498 104.39 123.542 104.32 123.596 104.25ZM101.109 95.6414L101.505 95.5719C102.732 95.3596 104.258 95.1556 105.126 96.1425C105.586 96.6658 105.745 97.6383 105.126 98.1392C104.037 99.0205 102.834 98.6791 101.53 98.7537C100.455 98.8154 99.4224 98.9933 98.3864 99.2894C96.1154 99.9389 94.2644 101.125 92.3244 102.427C92.0694 102.597 91.8094 102.272 91.9314 102.033C93.0514 99.839 95.2214 98.0364 97.3954 96.9376C98.5554 96.3511 99.8254 95.8645 101.109 95.6414ZM121.307 94.6583L121.61 94.7205C124.914 95.4113 129.206 96.7912 130.771 100.037C130.83 100.496 130.767 100.595 130.716 100.659L130.699 100.681C130.657 100.735 130.623 100.811 130.424 100.874C130.369 100.86 130.313 100.846 130.257 100.832C129.54 100.644 128.973 100.385 128.423 100.116L127.828 99.8225C127.137 99.4836 126.44 99.157 125.701 98.9159C124.124 98.4014 122.503 98.0391 120.856 97.8456C120.499 97.8037 120.156 97.6832 119.884 97.4766C119.627 97.2806 119.431 97.0092 119.341 96.6484C119.225 96.1816 119.258 95.828 119.508 95.4068C119.697 95.0905 119.966 94.8713 120.276 94.7454C120.591 94.6171 120.95 94.5868 121.307 94.6583Z" fill="#221E1F"/>
<path fill-rule="evenodd" clip-rule="evenodd" d="M117.37 144.935C117.37 144.935 107.992 146.314 103.794 144.365C99.6094 142.423 95.5384 140.544 91.7424 137.971C87.8524 135.335 84.5524 132.205 82.1974 128.199C80.0064 124.471 78.1854 120.515 76.3514 116.59C76.2444 116.361 75.1914 114.08 74.8194 113.316C74.2474 112.13 72.5734 112.502 72.5734 114.343C72.5734 116.183 72.4914 130.122 75.7064 135.605C78.6074 140.557 83.5234 144.018 88.4084 147.038C93.8124 150.377 100.991 153.987 107.439 154.941C113.274 155.804 119.933 153.381 124.159 149.389C128.576 145.214 129.827 139.541 132.106 134.109C132.616 132.895 130.811 132.162 130.281 133.357C129.284 135.605 117.37 144.935 117.37 144.935Z" fill="#221E1F"/>
<path fill-rule="evenodd" clip-rule="evenodd" d="M185.69 243.603C185.058 249.404 183.625 255.794 186.356 261.267C184.636 261.344 186.031 261.842 186.96 262.013C187.49 262.424 188.202 262.586 188.872 262.529C192.35 263.264 195.941 263.531 199.473 263.947C243.568 267.611 287.959 266.638 332.136 265.059C333.573 264.997 334.537 263.953 334.647 262.547C336.266 241.851 337.072 221.091 337.031 200.332C336.312 193.037 341.823 195.883 338.883 186.27C336.52 176.131 333.021 166.261 328.56 156.857C325.476 150.737 322.571 144.298 317.871 139.223C316.386 139.018 315.121 137.542 313.866 136.718C312.595 136.47 311.653 135.391 310.364 135.059C307.909 134.42 302.415 133.061 300.324 134.695C300.241 134.672 300.158 134.653 300.075 134.63C299.666 135.084 299.104 134.743 298.798 134.335C297.754 133.524 293.187 133.441 292.669 132.195C289.967 129.744 289.244 124.584 289.244 121.565C288.234 120.43 288.164 120.64 286.793 120.04C285.448 118.344 283.824 116.866 282.011 115.701C271.809 109 257.004 116.061 254.616 127.709C250.84 130.7 246.954 133.738 242.33 135.296C240.073 134.135 237.502 133.764 235.107 133.762C233.321 133.697 230.854 132.664 229.694 134.544C210.173 140.936 198.392 159.529 190.015 177.146C188.841 179.654 187.436 182.28 187.796 185.138C188.043 188.56 191.755 190.597 191.054 194.224C190.034 204.201 188.874 214.168 187.812 224.142C187.105 230.629 186.397 237.116 185.69 243.603Z" fill="white"/>
<path fill-rule="evenodd" clip-rule="evenodd" d="M328.496 196.009C327.234 196.466 325.465 196.911 324.562 197.944C324.458 196.982 324.353 196.019 324.247 195.057C326.892 194.994 329.542 194.971 332.189 194.897C330.94 195.203 329.705 195.571 328.496 196.009ZM322.686 256.55C321.776 256.558 320.862 256.621 319.953 256.657C318.201 256.725 316.449 256.792 314.697 256.857C311.123 256.991 307.549 257.121 303.975 257.245C296.896 257.491 289.817 257.718 282.738 257.927C268.578 258.344 254.412 258.596 240.255 259.072C236.327 259.204 232.399 259.307 228.475 259.521C226.442 259.632 224.399 259.727 222.375 259.963C220.668 260.161 218.985 260.497 217.287 260.747C217.401 258.533 217.508 256.32 217.619 254.107C217.724 252.014 217.822 249.92 217.919 247.826C224.546 248.172 231.182 248.313 237.818 248.372C244.837 248.434 251.854 248.609 258.874 248.622C272.772 248.65 286.67 248.475 300.567 248.335C304.498 248.296 308.429 248.256 312.359 248.217C314.324 248.197 316.29 248.177 318.255 248.157C319.236 248.148 320.223 248.169 321.203 248.128C322.249 248.084 322.885 247.787 323.644 247.083C324.049 246.707 324.066 245.942 323.644 245.57C323.035 245.031 322.469 244.618 321.624 244.558C320.795 244.499 319.929 244.58 319.097 244.591C317.272 244.615 315.447 244.639 313.623 244.663C310.113 244.709 306.604 244.756 303.094 244.802C296.075 244.894 289.056 244.988 282.037 245.095C275.158 245.2 268.279 245.279 261.401 245.451C254.379 245.628 247.365 245.948 240.344 246.173C232.871 246.414 225.402 246.7 217.946 247.261C218.125 243.38 218.29 239.498 218.446 235.615C233.25 236.421 248.065 236.995 262.894 237.02C278.343 237.046 293.792 236.782 309.236 236.379C311.412 236.322 313.589 236.264 315.764 236.196C316.887 236.161 318.011 236.128 319.134 236.088C319.959 236.058 320.808 236.022 321.554 235.627C323.027 234.848 323.281 232.572 321.534 231.949C320.578 231.609 319.565 231.942 319.332 232.803C319.261 232.81 319.193 232.816 319.134 232.818C318.291 232.85 317.449 232.873 316.607 232.9C314.782 232.958 312.957 233.017 311.132 233.075C307.762 233.18 304.392 233.277 301.022 233.367C294.142 233.549 287.261 233.698 280.38 233.812C266.755 234.039 253.131 234.249 239.509 234.561C232.493 234.721 225.48 234.93 218.466 235.108C218.633 230.887 218.792 226.667 218.934 222.446C218.951 221.951 218.969 221.456 218.987 220.961C219.992 221.183 221.021 221.305 222.045 221.45C223.822 221.701 225.605 221.888 227.389 222.076C230.752 222.431 234.126 222.648 237.501 222.835C244.381 223.214 251.264 223.482 258.151 223.692C271.777 224.107 285.419 224.198 299.05 224.151C306.451 224.126 313.898 224.223 321.296 223.901C321.752 224.025 322.222 224.012 322.677 223.864C323.05 230.462 323.444 237.059 323.831 243.656C324.092 248.108 324.323 252.574 324.644 257.027C324.017 256.718 323.44 256.543 322.686 256.55ZM194.419 189.514C193.121 188.879 191.689 188.299 190.543 187.399C189.291 186.415 188.983 185.26 189.368 183.715C189.397 183.6 189.431 183.485 189.461 183.37C198.691 183.393 207.898 182.986 217.125 182.767C226.499 182.545 235.869 182.358 245.245 182.305C263.945 182.2 282.642 182.621 301.333 183.147C308.064 183.336 314.795 183.522 321.526 183.706C321.373 185.348 321.432 187.03 321.397 188.66C321.366 190.092 321.374 191.526 321.396 192.96C317.874 192.951 314.354 192.875 310.832 192.835C302.113 192.737 293.399 192.987 284.682 193.187C267.249 193.586 249.812 193.9 232.383 194.425C227.649 194.567 222.885 194.642 218.129 194.845C217.966 194.072 217.784 193.302 217.58 192.537C217.254 191.322 216.887 190.074 215.914 189.23C215.867 189.189 215.803 189.207 215.782 189.265C215.412 190.289 215.506 191.332 215.614 192.406C215.699 193.253 215.757 194.104 215.8 194.955C212.843 195.111 209.892 195.329 206.957 195.657C206.117 195.242 205.277 194.828 204.436 194.416C201.098 192.781 197.758 191.148 194.419 189.514ZM301.58 220.018C294.693 220.073 287.805 220.079 280.918 220.035C267.286 219.947 253.658 219.612 240.029 219.341C236.235 219.266 232.447 219.191 228.653 219.191C226.689 219.191 224.718 219.204 222.756 219.289C221.522 219.343 220.27 219.351 219.04 219.499C219.189 215.527 219.343 211.551 219.338 207.576C232.341 209.546 245.483 210.088 258.614 210.475C271.917 210.868 285.224 211.071 298.533 211.091C302.315 211.097 306.097 211.088 309.88 211.066C311.7 211.055 313.522 211.041 315.342 211.024C316.321 211.015 317.306 211.035 318.284 210.993C319.318 210.95 319.943 210.705 320.665 209.969C321.035 209.592 321.054 208.943 320.665 208.568C319.376 207.323 317.859 207.594 316.183 207.614C314.502 207.635 312.821 207.653 311.14 207.668C307.778 207.699 304.416 207.718 301.054 207.727C294.471 207.744 287.887 207.718 281.303 207.651C267.997 207.515 254.695 207.219 241.393 206.908C234.039 206.735 226.686 206.783 219.337 207.139C219.335 206.48 219.329 205.82 219.316 205.16C219.267 202.661 219.024 200.162 218.643 197.69C222.244 197.678 225.846 197.601 229.431 197.555C238.148 197.443 246.863 197.267 255.58 197.092C264.226 196.919 272.872 196.746 281.519 196.572C290.16 196.399 298.827 196.386 307.458 195.92C312.115 195.668 316.774 195.325 321.436 195.145C321.445 195.573 321.454 196.002 321.463 196.429C321.575 201.68 321.78 206.926 322.045 212.172C322.172 214.692 322.306 217.213 322.444 219.732C322.377 219.726 322.309 219.722 322.239 219.721C315.357 219.676 308.463 219.962 301.58 220.018ZM192.601 174.414C193.39 172.385 194.246 170.369 195.172 168.381C199.102 169.491 203.295 170.063 207.351 170.444C211.67 170.85 215.996 171.078 220.332 171.167C228.881 171.341 237.429 170.936 245.968 170.583C263.532 169.857 281.094 169.327 298.674 169.293C303.584 169.284 308.493 169.306 313.403 169.362C315.857 169.389 318.312 169.423 320.766 169.465C322.028 169.487 323.29 169.51 324.553 169.536C325.112 169.548 325.677 169.589 326.235 169.572C326.982 169.55 327.528 169.325 328.221 169.055C329.017 168.745 329.486 167.414 328.493 166.972C327.501 166.532 326.705 166.273 325.604 166.249C324.412 166.224 323.22 166.2 322.028 166.178C319.854 166.139 317.68 166.105 315.506 166.078C311.088 166.023 306.67 166 302.251 166C293.554 166.001 284.858 166.104 276.163 166.309C258.708 166.72 241.293 167.937 223.844 168.459C219.035 168.603 214.217 168.631 209.407 168.487C204.749 168.347 200.1 167.955 195.448 167.79C197.055 164.401 198.873 161.1 200.925 157.962C208.681 158.234 216.421 158.033 224.179 157.796C228.25 157.672 232.32 157.546 236.391 157.407C238.426 157.337 240.462 157.267 242.497 157.198C243.48 157.164 244.462 157.13 245.444 157.097C246.503 157.06 247.617 157.129 248.645 156.85C248.831 156.8 248.979 156.692 249.09 156.555C251.827 157.963 254.721 159.074 257.697 159.897C264.157 161.684 271.105 162.354 277.787 161.804C283.148 161.363 288.492 160.035 293.206 157.436C303.853 158.416 314.648 157.955 325.317 157.886C326.337 157.879 326.761 156.945 326.59 156.174C330.014 163.556 332.282 171.559 334.405 179.343C335.725 184.181 336.898 189.048 338.015 193.934C337.968 193.938 337.922 193.942 337.876 193.946C338.005 193.411 337.714 192.78 336.982 192.764C332.664 192.664 328.332 192.913 324.013 192.953C323.891 191.872 323.77 190.791 323.642 189.71C323.467 188.238 323.258 186.77 323.08 185.298C323.016 184.765 322.956 184.25 322.882 183.743C326.302 183.836 329.722 183.93 333.142 184.02C335.362 184.079 335.358 180.64 333.142 180.572C314.349 179.997 295.554 179.415 276.754 179.096C257.943 178.776 239.068 178.579 220.271 179.544C210.027 180.07 199.809 180.772 189.693 182.506C190.479 179.763 191.575 177.055 192.601 174.414ZM208.597 148.286C208.938 148.541 209.047 148.702 209.556 148.792C210.107 148.888 210.674 148.919 211.231 148.973C212.423 149.09 213.617 149.134 214.813 149.19C217.2 149.304 219.587 149.424 221.976 149.497C226.719 149.641 231.563 149.844 236.303 149.634C237.463 149.582 237.99 148.625 237.885 147.754C238.774 148.855 239.746 149.889 240.781 150.832C242.445 152.347 244.242 153.69 246.135 154.875C244.907 154.92 243.656 155.074 242.496 155.124C240.531 155.208 238.566 155.293 236.601 155.377C232.459 155.555 228.319 155.746 224.178 155.94C216.515 156.298 208.878 156.744 201.243 157.475C203.424 154.197 205.866 151.106 208.597 148.286ZM333.323 164.207C330.086 155.316 325.911 146.081 318.399 139.974C314.538 136.835 310.236 134.663 305.364 133.635C305.214 133.603 305.155 133.816 305.301 133.864C313.726 136.629 319.96 143.946 324.178 151.444C324.942 152.803 325.65 154.194 326.32 155.606C326.102 155.34 325.768 155.164 325.317 155.171C315.354 155.339 305.275 155.17 295.335 156.143C295.588 155.974 295.842 155.805 296.091 155.628C298.806 153.692 301.25 151.323 303.269 148.64C304.486 148.949 305.767 149.024 307.008 149.142C308.664 149.299 310.332 149.371 311.994 149.461C313.653 149.55 315.319 149.558 316.98 149.598C318.122 149.626 320.354 149.816 320.355 148.069C320.356 146.32 318.122 146.505 316.98 146.528C315.319 146.56 313.654 146.565 311.994 146.643C310.403 146.718 308.802 146.778 307.215 146.92C306.248 147.007 305.252 147.064 304.279 147.218C305.862 144.855 307.123 142.28 307.964 139.565C308.049 139.292 308.077 139.036 308.063 138.8C308.42 138.423 308.648 137.907 308.648 137.434C308.648 136.309 307.772 135.65 306.748 135.532C302.695 135.069 298.229 134.408 294.963 131.743C293.489 130.54 292.304 129.118 291.188 127.587C289.934 125.867 289.464 123.7 289.459 121.594C289.459 121.476 289.263 121.44 289.245 121.565C288.631 125.834 289.516 130.708 292.579 133.906C295.586 137.047 299.671 138.223 303.816 138.91C302.107 143.794 299.286 148.083 295.325 151.457C290.912 155.216 285.325 157.226 279.63 157.985C273.485 158.803 267.044 158.405 261.001 157.069C255.18 155.782 249.485 153.479 244.748 149.805C242.358 147.951 240.159 145.766 238.243 143.427C236.662 141.497 235.449 139.344 234.092 137.276C239.156 138.665 245.278 136.768 249.521 134.087C252.019 132.509 254.208 130.538 256.006 128.194C256.893 127.038 257.682 125.817 258.333 124.512C258.672 123.833 258.976 123.135 259.256 122.43C259.429 121.995 259.598 121.547 259.598 121.069C259.597 120.716 259.509 120.388 259.332 120.083C258.969 119.698 258.897 119.586 259.115 119.748C258.759 119.018 257.728 118.833 257.069 119.211C256.824 119.353 256.246 119.626 255.962 120.083C255.77 120.392 255.666 120.762 255.543 121.101C255.349 121.636 255.154 122.165 254.91 122.68C254.344 123.877 253.665 125.02 252.89 126.094C251.474 128.057 249.655 129.832 247.673 131.217C245.592 132.672 243.35 133.86 240.917 134.603C238.348 135.387 235.805 135.621 233.155 135.908C233.127 135.869 233.099 135.829 233.071 135.79C233.02 135.72 232.909 135.743 232.905 135.835C232.903 135.88 232.904 135.924 232.902 135.968C232.525 136.146 232.493 136.678 232.914 136.883C233.07 139.336 234.128 141.751 235.281 143.874C235.762 144.758 236.304 145.614 236.892 146.442C236.718 146.376 236.523 146.334 236.303 146.325C231.561 146.143 226.719 146.377 221.977 146.551C219.658 146.636 217.341 146.766 215.024 146.89C213.83 146.954 212.632 146.995 211.442 147.118C210.847 147.18 210.248 147.229 209.656 147.318C209.614 147.325 209.574 147.332 209.536 147.338C211.001 145.895 212.544 144.529 214.174 143.253C219.52 139.069 225.661 135.661 232.212 133.807C232.274 133.789 232.265 133.683 232.196 133.69C219.166 135.023 208.312 143.237 200.719 153.552C196.505 159.275 193.31 165.61 190.56 172.143C189.175 175.436 187.863 178.788 186.765 182.189C186.207 183.918 185.955 185.751 186.755 187.447C187.368 188.748 188.499 189.715 189.685 190.483C189.764 190.534 189.845 190.582 189.925 190.632C188.712 194.857 187.9 199.192 187.121 203.514C186.275 208.209 185.536 212.924 184.902 217.653C183.634 227.105 182.663 236.576 182.239 246.106C182.122 248.742 182.044 251.379 182.01 254.018C181.992 255.337 182 256.657 182.018 257.976C182.039 259.453 181.839 261.12 182.59 262.438C183.594 264.198 185.545 263.592 186.402 262.388C186.415 262.404 186.428 262.421 186.44 262.438C186.518 262.284 186.583 262.132 186.639 261.979C186.731 261.776 186.791 261.564 186.813 261.347C186.975 260.529 186.914 259.699 186.907 258.81C186.898 257.56 186.905 256.309 186.909 255.059C186.916 252.698 186.942 250.339 187.01 247.979C187.144 243.26 187.407 238.545 187.766 233.838C188.48 224.488 189.534 215.181 190.435 205.849C190.894 201.098 191.448 196.334 191.543 191.558C192.656 192.144 193.804 192.675 194.915 193.24C196.976 194.29 199.036 195.339 201.097 196.388C203.095 197.406 205.096 198.417 207.098 199.428C209.117 200.447 211.123 201.794 213.394 202.045C214.608 202.178 215.048 200.542 214.332 199.778C213.398 198.78 212.157 198.16 210.91 197.579C212.567 197.64 214.226 197.673 215.886 197.685C215.909 199.775 215.835 201.869 215.731 203.953C215.473 209.067 215.115 214.171 214.775 219.28C214.07 229.898 213.387 240.523 212.855 251.152C212.725 253.755 212.594 256.358 212.463 258.962C212.4 260.227 212.312 261.494 212.276 262.761C212.236 264.182 212.271 265.963 213.585 266.841C214.514 267.46 215.514 267.169 216.211 266.316C217.143 265.177 217.142 263.526 217.217 262.128C217.234 261.805 217.249 261.482 217.266 261.158C218.69 261.343 220.104 261.598 221.534 261.738C223.28 261.908 225.038 262.008 226.793 262.053C230.37 262.145 233.942 262.178 237.52 262.178C244.602 262.179 251.682 262.057 258.763 261.943C272.925 261.714 287.085 261.318 301.242 260.878C305.166 260.756 309.091 260.628 313.015 260.495C315.048 260.426 317.08 260.355 319.112 260.283C321.036 260.214 323.137 260.463 324.83 259.464C324.879 260.072 324.929 260.681 324.983 261.288C325.084 262.439 325.893 263.428 327.122 263.428C328.276 263.428 329.268 262.449 329.261 261.288C328.83 250.787 327.896 240.286 327.157 229.803C326.478 220.175 325.842 210.533 324.871 200.927C325.147 201.105 325.483 201.215 325.88 201.217C327.148 201.222 328.414 200.436 329.601 200.017C330.798 199.595 332.015 199.23 333.248 198.931C333.979 198.753 334.712 198.605 335.447 198.478C335.358 199.981 335.381 201.497 335.353 202.995C335.31 205.297 335.239 207.598 335.183 209.899C335.073 214.434 335.034 218.968 334.947 223.503C334.773 232.645 334.485 241.782 333.997 250.912C333.863 253.421 333.712 255.929 333.544 258.436C333.456 259.759 333.363 261.082 333.265 262.404C333.169 263.704 332.945 265.085 333.435 266.331C333.45 266.322 333.466 266.313 333.481 266.304C333.822 267.377 335.322 267.892 336.031 266.671C337.135 264.767 336.88 262.04 337.007 259.898C337.143 257.601 337.265 255.302 337.374 253.003C337.59 248.403 337.74 243.803 337.827 239.199C338.001 229.991 337.972 220.769 337.409 211.573C337.255 209.059 337.039 206.55 336.818 204.041C336.652 202.16 336.561 200.228 336.267 198.347C337.702 198.135 339.147 198.012 340.606 197.976C342.018 197.941 342.929 196.667 342.63 195.318C340.285 184.754 337.024 174.369 333.323 164.207Z" fill="#221E1F"/>
<path fill-rule="evenodd" clip-rule="evenodd" d="M274.332 37.282C286.328 37.282 298.736 46.584 303.133 52.5198C306.83 57.5104 308.821 80.0774 308.821 95.3287C308.821 98.5177 310.58 104.531 310.067 107.582C308.185 118.762 299.988 128.139 283.763 128.139C267.538 128.139 255.904 121.705 243.844 104.431C237.993 104.431 235.157 99.9417 235.116 92.8577C235.075 85.7737 240.764 83.1959 240.764 83.1959C240.764 83.1959 238.735 55.2386 243.844 47.9599C248.954 40.6811 262.337 37.282 274.332 37.282Z" fill="white"/>
<path fill-rule="evenodd" clip-rule="evenodd" d="M269.285 33.3289C276.859 32.5617 284.281 33.2063 291.745 34.5401C292.315 34.6435 292.639 35.0178 292.759 35.4677C296.275 35.6284 299.794 35.8864 303.305 36.0788C304.579 36.1485 305.302 37.4079 304.721 38.5452C304.605 38.7711 304.484 38.9909 304.362 39.2108L304.516 39.16C305.572 38.821 306.713 38.6539 307.742 39.1919C309.052 39.8767 309.565 41.3877 309.276 42.7783C309.202 43.1334 309.077 43.4737 308.936 43.8057C309.223 43.7867 309.513 43.793 309.8 43.8311C311.329 44.034 312.466 45.207 312.546 46.7689C312.665 49.1273 311.146 51.52 309.356 53.2085C309.616 53.7434 309.715 54.3732 309.607 55.0115C309.392 56.2733 308.463 57.0288 307.386 57.5217C307.835 58.9485 308.047 60.4403 307.922 61.9647C307.88 62.4737 307.435 62.894 306.966 62.9972C308.716 67.8189 309.602 72.9957 310.239 78.04C310.694 81.629 310.918 85.2387 310.945 88.8547C310.958 90.4877 310.931 92.1217 310.863 93.7547L310.835 94.3667C310.751 96.1317 310.746 97.9847 310.429 99.7307C311.511 101.572 311.946 103.857 312.13 105.92C312.358 108.473 311.997 111.106 311.192 113.535C308.154 122.711 298.985 128.502 289.776 130.007C281.251 131.4 271.387 129.525 266.406 121.779C266.327 121.657 266.494 121.555 266.591 121.636C270.156 124.535 274.29 125.829 278.782 126.459C286.548 127.545 295.277 125.702 301.51 120.816C304.501 118.47 306.658 115.054 307.607 111.379C308.091 109.5 308.258 107.541 308.067 105.607C307.873 103.646 307.005 101.972 306.458 100.118C306.274 99.4917 306.467 98.9107 306.851 98.4967C306.958 96.9917 307.212 95.4747 307.309 93.9737C307.417 92.2677 307.481 90.5627 307.506 88.8547C307.549 85.3127 307.402 81.764 307.104 78.2368C306.559 71.7777 305.112 65.4755 304.263 59.0713C303.948 59.3535 303.497 59.4693 303.025 59.2228L302.976 59.196L302.718 59.0483C302.703 59.0483 302.687 59.0504 302.672 59.0523C300.908 59.2237 299.078 58.9786 297.388 58.4521C295.619 57.9028 293.978 57.0574 292.512 55.9309C292.233 57.3446 292.117 58.7733 292.115 60.2147C292.113 61.1151 291.16 61.5824 290.403 61.1977C287.051 59.494 283.848 57.5308 280.808 55.3243C280.453 57.144 280.098 58.9636 279.741 60.7854C279.603 61.4873 278.71 61.7705 278.137 61.4366C275.86 60.1112 273.893 58.3762 272.291 56.3132C271.972 56.9249 271.651 57.5364 271.328 58.1466L270.842 59.0608C270.363 59.959 269.72 60.9526 268.67 61.2398C267.559 61.5441 266.631 60.8236 266.258 59.8174C266.144 59.5048 266.038 59.1834 265.941 58.86C264.994 61.0223 263.925 63.1358 262.717 65.1521C260.904 68.1763 258.728 70.871 256.558 73.6355C255.899 74.4748 254.771 73.6735 254.68 72.8579C254.627 72.3782 254.583 71.8963 254.545 71.4163C253.281 73.9686 251.961 76.497 250.524 78.952L250.73 79.7587C251.323 82.1423 251.815 84.5427 252.351 86.9387C252.524 87.7127 252.113 88.8177 251.21 88.9497C250.131 89.1067 249.111 89.6577 248.006 89.2787C246.801 88.8647 246.563 87.8227 245.994 86.8357C245.88 86.6387 245.748 86.4577 245.606 86.2867L245.57 86.3337C245.482 86.4497 245.27 86.3227 245.323 86.1897L245.385 86.0357C244.896 85.5167 244.311 85.0847 243.773 84.6187C242.496 84.4037 241.058 84.6397 240.178 85.1587C238.173 86.3417 237.252 88.7807 237.233 91.0237C237.21 93.6487 238.023 96.5987 239.396 98.8437C240.001 99.8307 240.829 100.722 241.923 101.16C243.009 101.595 244.186 101.46 245.291 101.87C246.022 102.143 246.472 102.955 246.031 103.69C246.001 103.741 245.968 103.787 245.936 103.836L246.264 104.272C246.49 104.574 246.726 104.898 246.946 105.235C247.508 105.882 248.099 106.505 248.672 107.141C249.73 108.314 250.757 109.519 251.798 110.709C252.781 111.831 253.82 112.886 254.891 113.923C255.903 114.906 257.167 115.733 258.096 116.781C259 117.804 259.246 119.59 257.758 120.182C256.113 120.838 254.656 119.3 253.548 118.274L253.501 118.231C251.471 116.361 249.637 114.225 248.181 111.873C246.738 112.855 244.652 112.949 243.215 111.967C242.459 111.45 241.879 110.582 241.597 109.637C241.331 109.697 241.066 109.731 240.807 109.727C240.673 109.805 240.54 109.88 240.404 109.95C239.333 110.508 238.017 110.259 237.527 109.073C237.081 107.996 237.541 106.774 237.943 105.736L238.026 105.522C238.254 104.931 238.505 104.286 238.818 103.679C237.947 103.024 237.203 102.21 236.574 101.285C234.459 98.1667 233.403 93.6077 233.87 89.8887C234.151 87.6437 235.205 85.3187 236.931 83.8057L236.868 83.6407C236.384 82.4131 235.944 81.1807 235.659 79.8832C235.326 78.3657 235.163 76.7933 235.015 75.2483C234.702 71.9851 234.787 68.6478 235.203 65.3973C235.985 59.2787 237.966 53.2721 241.484 48.1807C240.487 46.9863 239.697 45.5809 240.108 43.9642C240.297 43.2222 240.725 42.5186 241.372 42.0936C241.729 41.8592 242.154 41.8233 242.511 41.6288L242.618 41.5697C242.775 41.4781 242.655 41.4878 242.561 41.0624C242.192 39.3629 242.498 37.7209 244.368 37.1566C246.128 36.6262 247.793 37.7526 248.834 39.0947C251.56 37.1607 255.151 36.1485 258.31 35.2883C261.901 34.3138 265.586 33.7053 269.285 33.3289ZM239.846 90.3297C239.834 88.9457 241.145 88.0917 242.437 88.3187C243.303 88.4697 244.027 88.9867 244.706 89.5217L245.037 89.7837C245.864 90.4337 246.814 91.1337 247.306 92.0527C248.029 93.4097 246.502 95.2357 245.076 94.2847C244.097 93.6287 243.47 92.5777 242.828 91.6017L242.762 91.5007C242.47 91.0637 242.215 90.5987 241.815 90.2477L241.729 90.1717C241.598 90.0597 241.457 89.9577 241.287 89.9097C240.96 89.8157 240.354 89.9477 240.21 90.3367L240.197 90.3767C240.144 90.5737 239.849 90.5307 239.846 90.3297Z" fill="#221E1F"/>
<path fill-rule="evenodd" clip-rule="evenodd" d="M287.757 111.607C286.337 111.028 285.07 110.061 284.143 108.826C283.821 108.396 283.738 107.943 283.805 107.528C283.881 107.062 284.157 106.639 284.533 106.356C284.91 106.072 285.382 105.931 285.838 106.003C286.235 106.065 286.629 106.282 286.942 106.732L287.007 106.822C287.558 107.568 288.275 108.179 289.093 108.574C289.881 108.954 290.763 109.131 291.675 109.028C293.413 108.832 294.61 107.892 295.883 106.615C296.041 106.454 296.199 106.288 296.357 106.119C296.457 105.966 296.597 105.867 296.751 105.816C296.922 105.758 297.116 105.762 297.294 105.824C297.465 105.883 297.618 105.997 297.721 106.148C297.818 106.291 297.874 106.468 297.856 106.672C297.739 107.994 297.048 109.175 296.066 110.102C294.975 111.132 293.529 111.844 292.168 112.094C290.669 112.369 289.141 112.172 287.757 111.607ZM292.876 91.1987C294.471 92.1687 296.902 94.4307 295.186 96.8357C293.165 98.9567 290.257 96.5257 288.824 95.4257C287.495 94.5737 286.001 96.7657 287.234 97.7607C297.591 105.432 301.795 91.4527 293.683 90.0587C292.789 89.9047 292.458 90.8987 292.876 91.1987ZM274.316 82.2756C274.492 80.0868 277.824 79.5897 278.156 81.7557C278.452 83.6957 278.103 85.4777 277.229 87.2247C276.395 88.8937 274.297 88.1157 274.138 86.5957C273.925 84.5587 274.206 83.6367 274.316 82.2756ZM299.681 81.3065C300.146 80.6979 300.817 80.2823 301.62 80.5172C304.131 81.2512 303.391 84.8177 302.509 86.5527C302.03 87.4957 300.481 87.7347 299.781 86.9047C298.64 85.5517 298.094 82.8483 299.544 81.5152C299.584 81.4463 299.628 81.3767 299.681 81.3065ZM277.194 72.6981L277.591 72.6286C278.818 72.4163 280.343 72.2123 281.211 73.1992C281.672 73.7225 281.83 74.6951 281.211 75.196C280.123 76.0773 278.919 75.7358 277.615 75.8104C276.54 75.8721 275.507 76.0501 274.472 76.3462C272.2 76.9957 270.349 78.1813 268.409 79.4833C268.155 79.654 267.895 79.3283 268.016 79.0901C269.136 76.8957 271.306 75.0931 273.48 73.9943C274.641 73.4078 275.91 72.9212 277.194 72.6981ZM297.392 71.715L297.696 71.7772C301 72.468 305.292 73.848 306.856 77.0942C306.916 77.5532 306.853 77.6516 306.802 77.7159L306.785 77.7373C306.742 77.7922 306.709 77.8678 306.51 77.9303C306.455 77.9171 306.399 77.9032 306.343 77.8884C305.625 77.7004 305.058 77.4414 304.509 77.1727L303.913 76.8792C303.222 76.5403 302.525 76.2137 301.786 75.9726C300.21 75.4581 298.588 75.0958 296.942 74.9023C296.585 74.8604 296.241 74.7399 295.97 74.5333C295.713 74.3373 295.516 74.0659 295.426 73.7051C295.31 73.2383 295.344 72.8848 295.594 72.4636C295.782 72.1473 296.052 71.928 296.361 71.8021C296.676 71.6738 297.035 71.6435 297.392 71.715Z" fill="#221E1F"/>
<path fill-rule="evenodd" clip-rule="evenodd" d="M303.986 59.712C305.207 59.2933 306.181 60.5637 305.946 61.671C305.67 62.975 304.309 64.0216 303.407 64.9408C302.46 65.9088 301.495 66.8577 300.493 67.7708C298.581 69.5167 296.6 71.1608 294.51 72.6931L293.871 73.1614C291.956 74.5633 290.046 75.9327 287.995 77.1463C286.884 77.8014 285.762 78.4355 284.625 79.0463C284.22 79.264 283.725 79.5998 283.216 79.8494C285.077 81.2866 286.51 83.4807 286.82 85.5237C287.589 90.6007 284.319 95.3057 279.705 97.1757C277.404 98.1077 274.843 98.3787 272.384 98.0977C269.883 97.8117 267.348 97.0717 265.723 95.0227C264.28 93.2027 263.76 90.8797 263.657 88.5997C263.608 87.5177 263.619 86.4517 263.847 85.4947C262.852 85.5027 261.857 85.4987 260.87 85.5097C258.432 85.5327 255.99 85.5437 253.55 85.4757C251.034 85.4037 248.53 85.2917 246.022 85.0677C244.922 84.9687 243.827 84.8057 242.732 84.6487C241.67 84.4987 240.497 84.4417 239.504 84.0067C239.437 83.9797 239.465 83.8817 239.523 83.8627C240.582 83.5207 241.784 83.5817 242.887 83.5147L243.962 83.4487C244.857 83.3957 245.752 83.3467 246.65 83.3175C248.724 83.2492 250.796 83.2325 252.87 83.1969L253.759 83.1803C256.199 83.1317 258.639 83.1042 261.079 83.026C262.091 82.9943 263.105 82.9351 264.122 82.8802C264.24 82.6116 264.413 82.3664 264.58 82.1278C265.079 81.4134 265.712 80.7836 266.37 80.2129C267.715 79.0376 269.23 78.165 270.92 77.5795C272.595 77.0013 275.045 76.7145 276.817 76.7518C278.589 76.7892 281.114 77.0392 281.925 78.4883C282.01 78.6384 283.554 78.3488 284.012 77.9978C285.084 77.1801 286.136 76.3389 287.169 75.4766C289.087 73.8724 291.06 72.2936 292.877 70.5775C294.751 68.8064 296.61 67.0057 298.393 65.1458C299.289 64.2137 300.183 63.2796 301.051 62.3243C301.939 61.3499 302.701 60.1495 303.986 59.712Z" fill="#221E1F"/>
<path fill-rule="evenodd" clip-rule="evenodd" d="M135.221 349.943C142.271 349.965 149.12 350.206 156.19 350.23C184.926 350.326 213.927 350.186 242.768 349.021C250.919 348.691 252.954 348.7 261.07 348.188C265.862 348.171 280.257 347.775 279.537 341.245C279.218 329.083 276.208 316.973 275.26 304.845C273.441 282.044 271.892 258.53 262.755 237.204C260.641 232.111 256.099 228.78 251.603 225.785C247.094 222.555 245.987 218.967 241.826 215.318C240.946 214.546 235.949 214.232 233.261 212.274C229.348 209.425 227.407 204.76 225.947 203.966C224.873 203.382 224.893 199.35 222.74 197.924C219.85 196.009 210.643 194.585 207.293 194.319C204.077 194.063 198.485 194.6 195.468 195.778C190.437 197.742 188.431 201.489 186.215 206.316C156.945 215.366 130.191 230.691 121.882 261.601C114.717 287.526 114.455 315.319 117.223 341.908C117.776 343.852 117.388 346.9 119.068 348.188C113.231 348.523 134.429 349.728 135.221 349.943Z" fill="white"/>
<path fill-rule="evenodd" clip-rule="evenodd" d="M268.355 324.345C267.801 324.068 267.224 323.752 266.591 323.73C265.505 323.692 265.503 322.001 266.591 322.039C267.54 322.072 268.373 322.468 269.208 322.885C270.182 323.371 269.326 324.829 268.355 324.345ZM266.591 276.752C267.332 276.753 268.08 276.847 268.649 277.365C268.987 277.674 268.961 278.249 268.649 278.561C268.315 278.894 267.791 278.868 267.454 278.561C267.564 278.661 267.455 278.562 267.415 278.54C267.405 278.535 267.4 278.531 267.397 278.529C267.389 278.526 267.381 278.525 267.367 278.521C267.279 278.499 267.191 278.477 267.102 278.461C267.1 278.465 266.913 278.449 266.869 278.447C266.776 278.444 266.684 278.443 266.591 278.443C266.133 278.443 265.746 278.057 265.746 277.598C265.746 277.141 266.134 276.752 266.591 276.752ZM258.644 295.718C258.402 296.78 256.773 296.328 257.015 295.269C257.366 293.729 257.302 292.151 257.015 290.605C256.817 289.54 258.446 289.087 258.644 290.156C258.989 292.01 259.066 293.87 258.644 295.718ZM256.51 234.953C255.251 234.654 254.006 234.618 252.719 234.618C251.629 234.617 251.631 232.927 252.719 232.927C254.155 232.927 255.556 232.989 256.959 233.322C258.019 233.574 257.567 235.204 256.51 234.953ZM252.292 276.136C251.562 275.771 250.831 275.406 250.102 275.041C249.127 274.554 249.984 273.096 250.954 273.581L253.145 274.677C254.119 275.164 253.262 276.622 252.292 276.136ZM251.988 309.433C251.062 310.768 249.76 311.598 248.198 312.013C247.144 312.292 246.698 310.661 247.748 310.382C248.866 310.086 249.859 309.546 250.529 308.579C251.145 307.691 252.61 308.537 251.988 309.433ZM246.148 249.903C245.897 249.435 245.52 249.237 245.052 249.226C243.964 249.201 243.964 247.511 245.052 247.536C246.119 247.56 247.097 248.096 247.607 249.05C248.12 250.01 246.661 250.863 246.148 249.903ZM235.428 261.396C235.125 261.726 234.538 261.718 234.233 261.396C234.046 261.199 233.89 260.979 233.766 260.738C233.719 260.646 233.675 260.553 233.624 260.464C233.601 260.424 233.575 260.385 233.549 260.347C233.54 260.339 233.522 260.32 233.503 260.3C233.178 259.957 233.186 259.45 233.503 259.105C233.806 258.774 234.393 258.783 234.698 259.105C234.884 259.302 235.041 259.522 235.164 259.763C235.211 259.854 235.256 259.947 235.307 260.037C235.33 260.076 235.356 260.115 235.382 260.153C235.391 260.161 235.409 260.18 235.428 260.2C235.753 260.544 235.745 261.051 235.428 261.396ZM234.526 286.362C233.426 286.866 232.219 286.866 231.118 286.362C230.701 286.172 230.602 285.569 230.815 285.206C231.061 284.784 231.556 284.713 231.971 284.902C232.47 285.131 233.175 285.131 233.674 284.902C234.09 284.712 234.58 284.779 234.83 285.206C235.044 285.572 234.942 286.172 234.526 286.362ZM231.524 304.034C231.335 304.482 230.926 304.72 230.449 304.738C229.976 304.756 229.624 304.337 229.604 303.893C229.591 303.606 229.746 303.361 229.969 303.21C229.969 303.194 229.969 303.178 229.969 303.163C229.969 302.689 230.356 302.338 230.814 302.317C231.27 302.297 231.66 302.72 231.659 303.163C231.659 303.461 231.641 303.757 231.524 304.034ZM227.163 332.13C225.815 332.151 224.497 332.473 223.148 332.495C222.058 332.512 222.061 330.822 223.148 330.804C224.497 330.782 225.814 330.461 227.163 330.439C228.253 330.421 228.25 332.112 227.163 332.13ZM221.555 223.779C220.766 224.531 219.79 224.902 218.829 225.372C217.854 225.848 216.998 224.39 217.976 223.912C218.79 223.514 219.692 223.22 220.36 222.584C221.148 221.833 222.345 223.027 221.555 223.779ZM219.436 243.268C218.882 242.991 218.304 242.674 217.672 242.652C216.586 242.614 216.584 240.924 217.672 240.962C218.621 240.995 219.454 241.391 220.289 241.808C221.263 242.294 220.406 243.752 219.436 243.268ZM209.276 321.485C209.026 321.016 208.648 320.818 208.18 320.808C207.092 320.783 207.092 319.092 208.18 319.117C209.247 319.141 210.226 319.677 210.735 320.631C211.248 321.592 209.789 322.445 209.276 321.485ZM205.757 284.769C205.421 284.461 205.444 283.887 205.757 283.574C206.122 283.209 206.487 282.844 206.852 282.478C207.186 282.144 207.71 282.169 208.047 282.478C208.384 282.787 208.36 283.361 208.047 283.674C207.682 284.039 207.317 284.404 206.952 284.769C206.618 285.104 206.094 285.079 205.757 284.769ZM201.608 341.99C200.389 341.962 199.246 341.612 198.098 341.23C197.07 340.887 197.513 339.255 198.548 339.599C199.545 339.931 200.548 340.275 201.608 340.299C202.696 340.325 202.697 342.015 201.608 341.99ZM196.132 305.834C195.031 305.803 194.117 305.242 193.345 304.491C192.563 303.731 193.759 302.536 194.54 303.295C194.982 303.725 195.492 304.126 196.132 304.143C197.22 304.174 197.221 305.864 196.132 305.834ZM199.533 259.337C199.546 259.787 199.737 260.27 200.016 260.566C200.763 261.357 199.569 262.554 198.821 261.761C198.203 261.107 197.869 260.232 197.843 259.337C197.812 258.247 199.502 258.252 199.533 259.337ZM186.642 222.512C186.288 221.819 185.825 221.007 185.12 220.624C184.162 220.105 185.016 218.645 185.973 219.164C186.931 219.685 187.617 220.71 188.101 221.659C188.596 222.627 187.137 223.482 186.642 222.512ZM184.451 240.096C184.059 240.085 183.67 240.018 183.291 239.915C183.13 239.871 182.97 239.821 182.808 239.777C182.739 239.758 182.445 239.721 182.625 239.731C182.168 239.706 181.78 239.363 181.78 238.885C181.78 238.446 182.169 238.015 182.625 238.04C183.253 238.074 183.823 238.387 184.451 238.405C185.538 238.436 185.539 240.127 184.451 240.096ZM178.974 267.122H177.149C176.06 267.122 176.062 265.431 177.149 265.431H178.974C180.064 265.431 180.062 267.122 178.974 267.122ZM176.845 341.875C176.291 342.152 175.639 342.414 175.191 342.838C174.4 343.586 173.204 342.392 173.996 341.643C174.567 341.103 175.297 340.763 175.992 340.415C176.402 340.21 176.905 340.302 177.148 340.718C177.368 341.094 177.253 341.671 176.845 341.875ZM172.767 320.511C172.696 320.492 172.622 320.478 172.55 320.468C172.263 320.429 171.962 320.443 171.673 320.443C170.584 320.442 170.586 318.751 171.673 318.752C172.531 318.752 173.422 318.764 174.096 319.365C174.438 319.67 174.405 320.251 174.096 320.56C173.761 320.896 173.242 320.864 172.901 320.56C172.937 320.593 172.814 320.525 172.767 320.511ZM171.673 291.78C171.919 291.273 171.923 290.943 171.923 290.38C171.924 289.291 173.614 289.292 173.613 290.38C173.613 291.197 173.491 291.893 173.133 292.633C172.933 293.046 172.347 293.153 171.977 292.936C171.561 292.694 171.474 292.19 171.673 291.78ZM166.786 252.118C165.806 252.451 164.931 252.923 164.068 253.493C163.157 254.095 162.311 252.63 163.215 252.033C164.2 251.383 165.219 250.868 166.337 250.487C167.371 250.136 167.811 251.769 166.786 252.118ZM161.086 223.661C160.358 223.682 159.606 223.961 158.957 224.276C157.982 224.75 157.126 223.292 158.104 222.816C159.031 222.366 160.046 222 161.086 221.971C162.176 221.94 162.171 223.631 161.086 223.661ZM158.53 299.626C158.244 299.638 157.999 299.483 157.847 299.261C157.832 299.261 157.816 299.26 157.8 299.26C157.327 299.26 156.976 298.873 156.955 298.415C156.935 297.959 157.358 297.569 157.8 297.569C158.099 297.57 158.395 297.588 158.672 297.705C159.119 297.894 159.357 298.302 159.375 298.78C159.393 299.254 158.974 299.606 158.53 299.626ZM154.375 241.161C153.337 241.501 152.896 239.868 153.925 239.531C155.133 239.136 156.368 238.83 157.576 238.435C158.614 238.096 159.055 239.729 158.025 240.066C156.817 240.461 155.583 240.766 154.375 241.161ZM150.584 273.075C150.262 274.113 148.631 273.667 148.954 272.625C149.266 271.62 149.289 270.608 149.289 269.563C149.29 268.473 150.98 268.475 150.979 269.563C150.979 270.752 150.939 271.93 150.584 273.075ZM139.284 311.299C139.222 311.72 138.889 312.023 138.452 312.043C138.007 312.063 137.591 311.64 137.607 311.197C137.638 310.346 138.331 309.653 139.182 309.622C139.655 309.604 140.007 310.023 140.027 310.467C140.046 310.899 139.686 311.236 139.284 311.299ZM133.565 262.709C132.672 263.007 131.718 263.291 131.018 263.952C130.226 264.699 129.03 263.505 129.823 262.757C130.746 261.885 131.933 261.473 133.116 261.078C134.152 260.733 134.592 262.366 133.565 262.709ZM129.69 295.555C129.444 295.974 128.947 296.05 128.534 295.858C127.979 295.6 127.367 295.609 126.77 295.608C125.68 295.607 125.682 293.917 126.77 293.917C127.691 293.918 128.542 294.005 129.387 294.398C129.802 294.592 129.903 295.189 129.69 295.555ZM127.5 335.416C127.027 335.434 126.675 335.015 126.655 334.571C126.635 334.139 126.996 333.802 127.398 333.739C127.459 333.318 127.793 333.015 128.23 332.995C128.675 332.975 129.091 333.398 129.075 333.841C129.044 334.692 128.351 335.385 127.5 335.416ZM281.477 341.809C281.19 340.776 280.533 339.941 280.036 339.011C279.87 338.698 279.812 338.503 279.722 338.273C279.599 338.519 279.361 338.703 279.004 338.703C278.317 338.704 277.515 338.659 276.874 338.953C276.458 339.144 275.967 339.076 275.718 338.65C275.504 338.284 275.607 337.683 276.022 337.493C276.965 337.061 277.98 337.013 279.004 337.012C279.256 337.012 279.448 337.106 279.583 337.246C279.974 331.886 279.965 326.522 279.595 321.158C279.2 315.427 278.291 309.809 277.34 304.151C276.88 301.408 276.282 298.637 276.398 295.843C276.514 293.068 277.704 290.481 276.861 287.697C276.523 286.581 275.944 285.559 275.568 284.455C275.164 283.267 275.2 282.094 275.384 280.864C275.762 278.36 276.39 275.885 275.386 273.44C274.943 272.355 274.224 271.387 273.878 270.267C273.447 268.875 273.506 267.334 273.434 265.89C273.288 262.978 273.25 260.046 273.009 257.14C272.902 255.838 272.667 254.604 272.133 253.41C271.619 252.26 270.857 251.214 270.517 249.995C270.179 248.794 270.149 247.528 269.967 246.3C269.777 245.002 269.479 243.724 269.078 242.477C267.527 237.65 264.686 233.313 261.329 229.553C257.76 225.556 253.495 222.547 248.967 219.742C246.586 218.267 244.206 216.792 241.827 215.317C241.776 215.594 241.6 215.848 241.261 215.962C240.368 216.26 239.414 216.544 238.713 217.205C237.922 217.952 236.726 216.758 237.518 216.01C238.345 215.229 239.384 214.817 240.442 214.456C239.358 213.773 238.262 213.065 237.039 212.67C235.968 212.324 234.388 212.626 233.519 211.84C232.837 211.22 232.621 210.073 232.36 209.231C232.032 208.187 231.749 207.086 231.333 206.072C231.05 205.379 230.638 204.713 230.118 204.176C229.89 203.297 229.471 202.494 228.732 202.005C226.797 200.725 224.42 201.997 223.569 203.823C222.865 203.821 222.124 203.975 221.439 204.017C220.032 204.106 218.623 204.146 217.214 204.142C214.457 204.134 211.698 203.954 208.964 203.588C204.075 202.933 199.332 201.612 194.526 200.583C194.498 200.52 194.467 200.456 194.429 200.393C193.393 198.655 190.814 198.949 189.189 199.607C188.492 199.888 187.782 200.243 187.383 200.902C186.96 201.187 186.595 201.534 186.352 201.9C185.849 202.654 185.46 204.176 184.44 204.303C183.768 204.385 183.086 204.256 182.403 204.353C181.55 204.472 180.785 204.772 179.997 205.114C173.997 207.72 167.794 210.618 161.282 211.628C159.755 211.865 158.2 212.11 156.874 212.966C155.796 213.661 154.963 214.617 154.074 215.523C153.208 216.407 152.494 216.798 151.258 216.956C149.758 217.149 148.459 217.563 147.362 218.653C146.452 219.56 145.858 220.718 145.144 221.771C144.417 222.845 143.35 223.449 142.243 224.072C139.626 225.548 137.188 227.329 135.064 229.466C130.592 233.972 127.883 239.763 125.154 245.406C122.202 251.51 119.443 257.688 117.529 264.206C115.653 270.605 114.538 277.189 114.022 283.834C113.479 290.806 113.403 297.806 112.951 304.783C112.725 308.268 112.554 311.758 112.381 315.245C112.212 318.69 111.964 322.141 112.004 325.59C112.081 332.258 113.413 338.948 115.744 345.191C116.325 346.744 116.969 348.277 117.656 349.786C118.258 351.111 120.318 350.963 120.964 349.786C121.112 349.515 121.228 349.236 121.326 348.953C123.016 348.968 124.723 348.837 126.402 348.993C129.369 349.27 132.341 349.424 135.316 349.608C141.202 349.974 147.098 350.217 152.986 350.553C153.557 350.586 154.129 350.618 154.7 350.652C150.504 337.66 151.048 323.614 150.384 310.102C150.331 309.012 152.021 309.019 152.074 310.102C152.741 323.672 152.173 337.754 156.518 350.767C158.203 350.881 159.886 351.021 161.564 351.225C162.92 351.388 164.283 351.58 165.652 351.513C167.205 351.439 168.721 351.083 170.236 350.775C172.989 350.215 175.64 350.468 178.404 350.813C181.36 351.183 184.326 351.388 187.3 351.517C199.212 352.039 211.203 352.514 223.11 351.718C225.992 351.525 228.867 351.255 231.73 350.887C234.679 350.509 237.597 349.872 240.544 349.511C243.449 349.156 246.119 350.13 248.99 350.31C251.918 350.494 254.925 349.883 257.826 349.532C258.772 349.417 259.719 349.306 260.667 349.195C259.447 340.831 258.753 332.404 258.08 323.98C257.993 322.893 259.684 322.903 259.77 323.98C260.438 332.338 261.116 340.702 262.334 349.001C267.357 348.416 272.385 347.824 277.355 346.914C278.771 346.656 280.178 346.235 281.025 344.971C281.652 344.035 281.779 342.887 281.477 341.809Z" fill="#221E1F"/>
<path fill-rule="evenodd" clip-rule="evenodd" d="M212.834 122.409C244.633 123.416 246.55 138.526 246.55 163.865C246.55 189.205 230.055 205.173 223.981 207.961C217.907 210.749 201.913 222.725 187.48 217.206C173.047 211.688 177.226 188.371 177.226 178.352C177.226 168.334 181.036 121.402 212.834 122.409Z" fill="white"/>
<path fill-rule="evenodd" clip-rule="evenodd" d="M225.734 199.639C219.894 202.9 213.208 203.027 206.927 200.974C203.16 199.747 199.706 197.849 196.473 195.579C193.661 193.602 191.151 191.411 188.665 189.084C186.618 184.567 184.795 180.059 183.941 175.145C183.176 170.734 183.075 166.154 183.962 161.752C190.524 156.352 197.046 150.908 203.559 145.447C206.876 142.665 210.201 139.899 213.567 137.176C215.276 135.794 216.968 134.391 218.671 133.002C218.952 132.774 219.231 132.546 219.512 132.317C223.027 134.892 226.796 137.098 230.287 139.715C232.114 141.086 233.891 142.547 235.583 144.083C236.47 144.889 237.337 145.719 238.182 146.571C238.955 147.349 239.701 148.465 240.797 148.759C240.947 148.798 241.089 148.807 241.222 148.788C242.688 161.63 243.73 175.496 237.449 187.158C234.708 192.246 230.823 196.794 225.734 199.639ZM187.746 204.358C186.942 203.621 188.14 202.429 188.941 203.162C193.97 207.771 200.545 210.214 207.187 211.345C208.258 211.528 207.801 213.157 206.737 212.975C199.803 211.795 192.988 209.162 187.746 204.358ZM181.711 211.429C180.751 210.914 181.606 209.455 182.564 209.969C186.482 212.072 190.78 213.164 195.14 213.902C196.212 214.083 195.754 215.712 194.69 215.532C190.183 214.769 185.76 213.602 181.711 211.429ZM197.658 140.199C200.91 137.28 204.404 134.503 208.095 132.159C211.83 129.788 215.91 128.369 220.319 128.336C220.01 128.583 219.717 128.858 219.419 129.113C218.587 129.826 217.756 130.542 216.926 131.256C215.265 132.687 213.6 134.116 211.961 135.57C208.733 138.436 205.494 141.287 202.272 144.159C196.08 149.68 190.021 155.321 184.093 161.125C184.125 160.983 184.158 160.841 184.192 160.7C186.155 152.499 191.493 145.734 197.658 140.199ZM223.146 128.693C223.167 128.629 223.182 128.568 223.19 128.509C231.651 129.612 238.718 135.84 241.055 144.041C240.852 144.324 240.74 144.66 240.782 145.017C240.803 145.197 240.824 145.379 240.846 145.559C240.556 145.271 240.258 145.003 240.005 144.747C239.162 143.893 238.298 143.062 237.41 142.253C235.596 140.598 233.711 139.051 231.725 137.608C228.271 135.097 224.531 132.789 220.414 131.584C220.684 131.362 220.955 131.14 221.227 130.92C222.041 130.259 222.795 129.714 223.146 128.693ZM238.315 119.924C233.12 114.245 225.926 110.086 218.35 108.64C211.116 107.258 203.627 108.169 196.793 110.855C182.492 116.477 171.208 128.839 165.924 143.164C162.844 151.51 161.834 160.66 162.759 169.494C163.68 178.288 166.327 187.37 171.144 194.852C171.586 195.537 172.07 196.194 172.577 196.83C172.351 199.413 171.489 201.945 170.132 204.147C170.06 204.265 169.983 204.381 169.907 204.497C168.518 205.537 167.077 206.514 165.671 207.521C164.452 208.395 163.246 209.291 162.099 210.258C161.017 211.171 159.761 212.188 159.029 213.421C158.428 214.43 158.183 215.803 159.003 216.766C159.99 217.926 161.663 217.517 163 217.517C163.115 217.517 163.229 217.52 163.343 217.521C163.745 217.773 164.158 218.002 164.559 218.214C168.609 220.362 172.674 222.486 176.743 224.599C184.847 228.811 192.918 233.193 201.189 237.071C205.021 238.87 209.124 240.442 213.417 240.436C217.444 240.429 221.084 238.829 224.228 236.397C227.811 233.626 230.807 230.107 233.713 226.658C234.875 225.277 236.014 223.881 237.132 222.465C239.278 221.748 241.408 221.539 243.322 222.921C244.858 224.031 246.882 222.522 246.918 220.856C246.93 220.265 246.905 219.681 246.842 219.106C246.457 215.555 244.72 212.343 242.764 209.363C241.695 207.733 240.569 206.133 239.437 204.548C239.17 204.174 238.909 203.8 238.655 203.42C243.204 196.72 246.812 189.291 249.03 181.528C251.361 173.359 252.153 164.889 251.633 156.424C250.835 143.451 247.277 129.722 238.315 119.924Z" fill="#221E1F"/>
<path fill-rule="evenodd" clip-rule="evenodd" d="M222.405 190.411C220.985 189.832 219.717 188.865 218.791 187.63C218.469 187.2 218.385 186.747 218.453 186.332C218.529 185.866 218.805 185.443 219.181 185.16C219.558 184.876 220.03 184.735 220.486 184.807C220.882 184.869 221.277 185.086 221.589 185.536L221.654 185.626C222.205 186.372 222.923 186.983 223.741 187.378C224.529 187.758 225.41 187.935 226.323 187.832C228.06 187.636 229.258 186.696 230.531 185.419C230.688 185.258 230.846 185.092 231.005 184.923C231.105 184.77 231.244 184.671 231.398 184.62C231.57 184.562 231.764 184.566 231.941 184.628C232.113 184.687 232.266 184.801 232.368 184.952C232.466 185.095 232.521 185.272 232.503 185.476C232.387 186.798 231.695 187.979 230.713 188.906C229.623 189.936 228.177 190.648 226.816 190.898C225.316 191.173 223.788 190.976 222.405 190.411ZM227.523 170.003C229.119 170.973 231.549 173.235 229.833 175.64C227.813 177.761 224.904 175.33 223.471 174.23C222.142 173.378 220.649 175.57 221.882 176.565C232.239 184.236 236.442 170.257 228.33 168.863C227.437 168.709 227.105 169.703 227.523 170.003ZM208.963 161.08C209.139 158.891 212.472 158.394 212.803 160.56C213.1 162.5 212.75 164.282 211.877 166.029C211.042 167.698 208.944 166.92 208.785 165.4C208.573 163.363 208.853 162.441 208.963 161.08ZM234.329 160.111C234.793 159.502 235.464 159.087 236.268 159.322C238.779 160.056 238.039 163.622 237.157 165.357C236.678 166.3 235.129 166.539 234.429 165.709C233.288 164.356 232.742 161.653 234.192 160.32C234.231 160.251 234.275 160.181 234.329 160.111ZM211.842 151.502L212.238 151.433C213.465 151.221 214.991 151.017 215.859 152.004C216.319 152.527 216.478 153.499 215.859 154C214.77 154.882 213.567 154.54 212.263 154.615C211.188 154.676 210.155 154.854 209.119 155.151C206.848 155.8 204.997 156.986 203.057 158.288C202.802 158.458 202.542 158.133 202.664 157.894C203.784 155.7 205.954 153.897 208.128 152.799C209.288 152.212 210.558 151.726 211.842 151.502ZM232.04 150.519L232.343 150.582C235.647 151.272 239.939 152.652 241.504 155.899C241.563 156.358 241.5 156.456 241.449 156.52L241.432 156.542C241.39 156.597 241.356 156.672 241.157 156.735C241.102 156.721 241.046 156.708 240.99 156.693C240.273 156.505 239.706 156.246 239.156 155.977L238.561 155.684C237.87 155.345 237.173 155.018 236.434 154.777C234.857 154.262 233.236 153.9 231.589 153.707C231.232 153.665 230.889 153.544 230.617 153.338C230.36 153.142 230.164 152.87 230.074 152.509C229.958 152.043 229.991 151.689 230.241 151.268C230.43 150.952 230.699 150.732 231.009 150.606C231.324 150.478 231.683 150.448 232.04 150.519Z" fill="#221E1F"/>
<path fill-rule="evenodd" clip-rule="evenodd" d="M246.431 171.29C243.866 173.942 239.585 174.703 236.172 173.281C227.409 169.618 231.698 158.195 238.456 155.127C239.3 154.917 240.428 154.417 241.456 154.304C241.549 154.258 241.751 154.39 241.997 154.265C249.448 155.098 251.145 166.669 246.431 171.29ZM218.168 171.969C215.292 175.786 209.943 176.964 205.573 175.189C196.94 171.788 200.002 161.658 205.909 157.687C218.386 152.997 223.538 164.931 218.168 171.969ZM199.454 163.511C199.446 163.507 199.438 163.506 199.43 163.502C199.475 163.482 199.521 163.462 199.566 163.441C199.552 163.48 199.535 163.518 199.521 163.557C199.499 163.541 199.479 163.523 199.454 163.511ZM252.37 159.385C251.666 159.387 250.648 159.502 250.065 159.991C248.627 155.14 243.32 150.65 238.704 153.924C235.069 155.094 232.372 157.687 230.839 161.135C228.075 159.49 223.729 160.193 221.332 162.368C219.762 157.179 215.899 155.362 211.301 155.094C206.282 154.271 201.28 159.147 199.719 163.059C198.421 162.911 196.482 162.498 195.261 163.299C187.337 161.22 173.483 160.074 171.872 161.229C170.724 161.67 170.094 164.381 171.697 164.527C173.095 164.328 171.534 162.541 172.943 162.346C180.448 161.88 187.733 163.392 195.159 164.027C195.822 164.919 197.964 165.217 199.107 164.859C197.307 171.494 201.192 176.009 207.013 177.361C216.028 179.432 223.87 171.366 221.513 162.975C224.244 161.616 227.385 161.674 230.359 162.39C225.388 180.691 254.851 179.87 250.25 160.618C253.312 162.142 253.977 159.693 252.37 159.385Z" fill="#221E1F"/>
</svg>
