<svg width="38" height="30" viewBox="0 0 38 30" fill="none" xmlns="http://www.w3.org/2000/svg">
<path d="M24.659 0.299998V29H21.666V15.757H3.708V29H0.674V0.299998H3.708V13.092H21.666V0.299998H24.659ZM38.0005 28.264C37.6939 28.54 37.3105 28.7547 36.8505 28.908C36.4059 29.046 35.9382 29.115 35.4475 29.115C34.3129 29.115 33.4389 28.8083 32.8255 28.195C32.2122 27.5817 31.9055 26.7153 31.9055 25.596V18.282H29.7435V16.902H31.9055V14.257H33.5385V16.902H37.2185V18.282H33.5385V25.504C33.5385 26.2247 33.7149 26.7767 34.0675 27.16C34.4355 27.528 34.9569 27.712 35.6315 27.712C35.9689 27.712 36.2909 27.6583 36.5975 27.551C36.9195 27.4437 37.1955 27.2903 37.4255 27.091L38.0005 28.264Z" fill="black"/>
</svg>
